SplineFontDB: 3.0
FontName: CMUConcrete-BoldItalic
FullName: CMU Concrete Bold Extended Italic
FamilyName: CMU Concrete
Weight: Bold
Copyright: Converted by Andrey V. Panov from TeX fonts
UComments: "2009-6-18: Created." 
Version: 0.7.0
ItalicAngle: -14.04
UnderlinePosition: -100
UnderlineWidth: 50
Ascent: 800
Descent: 200
LayerCount: 2
Layer: 0 0 "+BBcEMAQ0BD0EOAQ5 +BD8EOwQwBD0A"  1
Layer: 1 0 "+BB8ENQRABDUENAQ9BDgEOQAA +BD8EOwQwBD0A"  0
NeedsXUIDChange: 1
XUID: [1067 12153190]
FSType: 0
OS2Version: 0
OS2_WeightWidthSlopeOnly: 0
OS2_UseTypoMetrics: 1
CreationTime: 1245316366
ModificationTime: 1245317088
PfmFamily: 17
TTFWeight: 700
TTFWidth: 5
LineGap: 200
VLineGap: 90
OS2TypoAscent: 0
OS2TypoAOffset: 1
OS2TypoDescent: 0
OS2TypoDOffset: 1
OS2TypoLinegap: 200
OS2WinAscent: 1002
OS2WinAOffset: 0
OS2WinDescent: 341
OS2WinDOffset: 0
HheadAscent: 1002
HheadAOffset: 0
HheadDescent: -341
HheadDOffset: 0
Lookup: 1 0 0 "Case substitutions"  {"Case substitutions subtable"  } ['case' ('cyrl' <'dflt' > 'grek' <'dflt' > 'latn' <'dflt' > ) ]
Lookup: 1 0 0 "Italic substitutions"  {"Italic substitutions cyr"  } ['locl' ('cyrl' <'MKD ' 'SRB ' > ) ]
Lookup: 3 0 0 "Greek alternatives"  {"Greek alternatives subtable"  } ['salt' ('grek' <'dflt' > ) ]
Lookup: 1 0 0 "Greek substitutions"  {"Greek substitutions subtable"  } ['locl' ('grek' <'dflt' > ) ]
Lookup: 4 0 1 "Latin Dutch ligatures"  {"Latin Dutch ligatures subtable"  } ['liga' ('latn' <'NLD ' > ) ]
Lookup: 4 0 1 "Latin ligatures excepting Turkic"  {"Latin ligatures excepting Turkic subtable"  } ['liga' ('latn' <'dflt' 'NLD ' 'VIT ' > ) ]
Lookup: 4 0 1 "Latin ligatures"  {"Latin ligatures subtable"  } ['liga' ('latn' <'dflt' 'NLD ' 'VIT ' 'TRK ' 'AZE ' > ) ]
Lookup: 4 0 1 "Cyrillic ligatures"  {"Cyrillic ligatures subtable"  } ['liga' ('cyrl' <'dflt' 'MKD ' 'SRB ' > ) ]
Lookup: 3 0 0 "Latin alternatives"  {"Latin alternatives subtable"  } ['salt' ('latn' <'dflt' > ) ]

StartChar: .notdef
Encoding: 0 0 0
Width: 760
Flags: HW
HStem: 10 60<105 655> 705 60<105 655>
VStem: 10 60<112 663> 690 60<112 663>
DStem2: 105 705 70 663 0.702289 -0.711892<5.31938 389.612 448.699 832.991> 70 112 105 70 0.702289 0.711892<0 384.292 443.379 827.672>
LayerCount: 2
Fore
SplineSet
10 10 m 1
 10 765 l 1
 750 765 l 1
 750 10 l 1
 10 10 l 1
70 112 m 1
 346 388 l 1
 70 663 l 1
 70 112 l 1
105 70 m 1
 655 70 l 1
 380 346 l 1
 105 70 l 1
105 705 m 1
 380 429 l 1
 655 705 l 1
 105 705 l 1
414 388 m 1
 690 112 l 1
 690 663 l 1
 414 388 l 1
EndSplineSet
EndChar

StartChar: uni262D
Encoding: 9773 9773 1
Width: 700
Flags: HW
TeX: 117 0
HStem: -1 21G<56 93 593.5 601> 39 76<321.786 462.78> 102 51<140.549 177.987>
VStem: 129 54<101.776 137.734> 556 82<197.341 366.709>
DStem2: 123 357 178 301 0.707107 0.707107<0 86.9741 130.108 182.434>
LayerCount: 2
Fore
SplineSet
40 18 m 0
 40 64 129 102 129 128 c 0
 129 148 134 153 148 153 c 0xb8
 162 153 164 157 182 180 c 1
 229 156 307 115 390 115 c 0
 438 115 463 128 463 129 c 0
 463 135 406 186 240 363 c 1
 178 301 l 1
 123 357 l 1
 252 486 l 1
 347 470 l 1
 271 393 l 1
 484 190 l 1
 513 165 l 1
 519 165 556 218 556 295 c 0
 556 473 346 588 346 593 c 1
 394 593 638 478 638 267 c 0
 638 167 592 118 580 100 c 1
 636 44 637 42 637 38 c 0xd8
 637 17 605 -1 597 -1 c 2
 596 -1 l 2
 591 -1 590 1 529 62 c 1
 500 51 474 39 428 39 c 0xd8
 297 39 201 138 188 138 c 0
 183 138 182 134 182 130 c 0
 182 126 183 123 183 118 c 0
 183 108 178 102 168 102 c 0
 131 102 122 0 64 -0 c 0
 48 0 40 7 40 18 c 0
EndSplineSet
EndChar

StartChar: longs
Encoding: 383 383 2
Width: 381
Flags: HW
TeX: 108 0
HStem: -200 75<78.2557 127.572> 397 75<124.9 235> 625 75<362.936 423.49>
VStem: -22 100<-124 -82.6125> 422 99<582.966 623.719>
AnchorPoint: "above" 385 694 basechar 0
AnchorPoint: "below" 116 -194 basechar 0
LayerCount: 2
Fore
SplineSet
-22 -130 m 0
 -22 -79 25 -68 38 -68 c 0
 64 -68 78 -83 78 -107 c 0
 78 -112 77 -118 76 -124 c 1
 82 -124 88 -125 93 -125 c 0
 143 -125 152 -73 235 397 c 1
 145 397 l 2
 130 397 117 401 117 418 c 1
 118 429 121 439 124 448 c 1
 128 467 136 472 154 472 c 2
 249 472 l 1
 270 590 274 639 332 677 c 0
 356 693 381 700 407 700 c 0
 434 700 521 694 521 631 c 0
 521 598 495 568 462 568 c 0
 436 568 422 583 422 607 c 0
 422 612 422 618 424 624 c 1
 369 625 l 1
 355 589 350 547 293 230 c 0
 255 17 240 -68 202 -125 c 0
 173 -168 136 -200 87 -200 c 0
 24 -200 -22 -173 -22 -130 c 0
EndSplineSet
EndChar

StartChar: uni03F5
Encoding: 1013 1013 3
Width: 495
Flags: HW
HStem: -5 75<303.022 429> 210 80<221 419> 402 76<370.155 531>
VStem: 101 94<150.709 209.509>
LayerCount: 2
Fore
SplineSet
101 194 m 0
 101 209 103 224 107 240 c 0
 143 383 314 478 550 478 c 1
 531 402 l 1
 318 402 248 329 221 290 c 1
 439 290 l 1
 419 210 l 1
 195 210 l 1
 198 107 321 70 448 70 c 1
 429 -5 l 1
 234 -5 101 73 101 194 c 0
EndSplineSet
EndChar

StartChar: circumflex.cap
Encoding: 65536 -1 4
Width: 636
Flags: HW
HStem: 755 244
AnchorPoint: "above" 494 706 mark 0
LayerCount: 2
Fore
SplineSet
340 800 m 0
 340 810 349 817 357 825 c 0
 551 999 554 999 563 999 c 0
 579 999 588 978 602 956 c 0
 696 809 696 807 696 800 c 0
 696 782 649 755 639 755 c 0
 622 755 610 785 585 832 c 0
 573 856 559 879 547 903 c 1
 457 823 403 755 384 755 c 0
 369 755 340 787 340 800 c 0
EndSplineSet
EndChar

StartChar: dieresis.cap
Encoding: 65537 -1 5
Width: 636
Flags: HW
HStem: 753 124<370.28 450.196 593.804 673.72>
VStem: 347 127<777.023 853.221> 570 127<776.779 853.694>
AnchorPoint: "above" 495 706 mark 0
LayerCount: 2
Fore
SplineSet
347 805 m 0
 347 841 381 877 421 877 c 0
 450 877 474 857 474 826 c 0
 474 789 439 753 399 753 c 0
 371 753 347 774 347 805 c 0
570 805 m 0
 570 841 605 878 645 878 c 0
 674 878 697 857 697 825 c 0
 697 789 663 753 623 753 c 0
 594 753 570 774 570 805 c 0
EndSplineSet
EndChar

StartChar: dotaccent.cap
Encoding: 65538 -1 6
Width: 636
Flags: HW
HStem: 756 124<482.486 562.72>
VStem: 459 127<779.779 856.152>
AnchorPoint: "above" 495 706 mark 0
LayerCount: 2
Fore
SplineSet
459 808 m 0
 459 842 492 880 534 880 c 0
 565 880 586 857 586 828 c 0
 586 792 552 756 512 756 c 0
 483 756 459 777 459 808 c 0
EndSplineSet
EndChar

StartChar: caron.cap
Encoding: 65539 -1 7
Width: 636
Flags: HW
HStem: 786 88<484.126 561.125>
VStem: 380 328<894 916>
AnchorPoint: "above" 494 706 mark 0
LayerCount: 2
Fore
SplineSet
380 904 m 0
 380 916 392 930 405 930 c 0
 420 930 518 874 530 874 c 0
 552 874 668 930 686 930 c 0
 699 930 708 918 708 906 c 0
 708 893 700 887 679 875 c 0
 528 788 528 786 520 786 c 2
 518 786 l 2
 510 786 506 787 398 879 c 0
 388 887 380 894 380 904 c 0
EndSplineSet
EndChar

StartChar: ring.cap
Encoding: 65540 -1 8
Width: 636
Flags: HW
HStem: 711 75<468.255 570.438> 927 75<490.631 597.625>
VStem: 398 65<792.054 898.123> 601 65<816.44 921.937>
AnchorPoint: "above" 494 706 mark 0
LayerCount: 2
Fore
SplineSet
398 809 m 0
 398 890 458 1002 568 1002 c 0
 629 1002 666 966 666 905 c 0
 666 824 606 711 496 711 c 0
 435 711 398 748 398 809 c 0
463 826 m 0
 463 796 488 786 513 786 c 0
 532 786 551 791 561 798 c 0
 593 818 601 873 601 888 c 0
 601 910 590 927 550 927 c 0
 500 927 478 905 466 850 c 0
 465 842 463 834 463 826 c 0
EndSplineSet
EndChar

StartChar: breve.cap
Encoding: 65541 -1 9
Width: 636
Flags: HW
HStem: 787 79<466.627 606.223>
VStem: 360 77<896.19 992.672> 678 80<929.451 992.54>
AnchorPoint: "above" 495 706 mark 0
LayerCount: 2
Fore
SplineSet
360 936 m 0
 360 991 376 994 395 994 c 2
 409 994 l 2
 425 994 439 991 439 972 c 0
 439 963 437 958 437 946 c 0
 437 898 478 866 530 866 c 0
 593 866 655 909 678 961 c 1
 686 982 684 994 714 994 c 2
 727 994 l 2
 742 994 758 992 758 974 c 0
 758 929 670 787 520 787 c 0
 429 787 360 846 360 936 c 0
EndSplineSet
EndChar

StartChar: grave
Encoding: 96 96 10
Width: 636
Flags: HW
TeX: 694 0
HStem: 547 167
VStem: 317 211
LayerCount: 2
Fore
SplineSet
317 665 m 0
 317 688 340 714 366 714 c 0
 382 714 396 703 409 694 c 0
 523 617 528 617 528 602 c 0
 528 591 497 547 480 547 c 0
 471 547 472 547 343 628 c 0
 336 632 317 643 317 665 c 0
EndSplineSet
EndChar

StartChar: acute
Encoding: 180 180 11
Width: 636
Flags: HW
TeX: 694 0
ItalicCorrection: 77
HStem: 547 167
VStem: 407 244<601 676>
LayerCount: 2
Fore
SplineSet
407 601 m 1
 407 617 425 624 433 628 c 0
 598 711 599 714 614 714 c 0
 637 714 651 695 651 676 c 0
 651 647 627 634 612 627 c 0
 452 552 447 547 438 547 c 0
 414 547 407 601 407 601 c 1
EndSplineSet
EndChar

StartChar: circumflex
Encoding: 710 710 12
Width: 575
Flags: HW
TeX: 772 0
HStem: 590 187
LayerCount: 2
Fore
SplineSet
273 641 m 0
 273 657 290 664 316 680 c 0
 464 772 467 777 477 777 c 2
 478 777 l 2
 488 777 488 774 606 666 c 0
 613 660 622 652 622 642 c 0
 622 628 584 590 570 590 c 0
 558 590 556 594 464 688 c 1
 462 688 l 1
 332 600 l 2
 325 596 317 590 309 590 c 0
 289 590 273 635 273 641 c 0
EndSplineSet
EndChar

StartChar: tilde
Encoding: 732 732 13
Width: 636
Flags: HW
TeX: 772 0
ItalicCorrection: 129
HStem: 538 94<494.989 568.002> 600 94<373.755 446.759>
LayerCount: 2
Fore
SplineSet
272 582 m 0
 272 591 278 597 285 603 c 0
 309 623 383 694 435 694 c 0x40
 488 694 493 632 523 632 c 0
 558 632 613 693 631 693 c 0
 646 693 670 662 670 650 c 0
 670 641 663 635 656 628 c 0
 633 609 559 538 507 538 c 0x80
 452 538 450 600 419 600 c 0
 383 600 329 539 311 539 c 0x40
 297 539 272 570 272 582 c 0
EndSplineSet
EndChar

StartChar: dieresis
Encoding: 168 168 14
Width: 636
Flags: HW
TeX: 694 0
ItalicCorrection: 92
HStem: 569 124<323.417 403.72> 569 125<548.589 626.25>
VStem: 300 127<592.779 668.835> 524 127<593.949 669.312>
LayerCount: 2
Fore
SplineSet
524 621 m 0
 524 656 558 694 598 694 c 0
 627 694 651 673 651 642 c 0
 651 601 610 569 576 569 c 0x70
 547 569 524 590 524 621 c 0
EndSplineSet
Refer: 20 729 S 1 0 0 1 0 -1 2
EndChar

StartChar: ring
Encoding: 730 730 16
Width: 1008
Flags: HW
TeX: 772 0
HStem: 530 51<602.488 706.268> 730 50<628.949 730.767>
VStem: 535 63<587.37 695.811> 736 63<612.406 723.753>
LayerCount: 2
Fore
SplineSet
535 619 m 0
 535 693 595 780 698 780 c 0
 759 780 799 749 799 691 c 0
 799 619 742 530 636 530 c 0
 572 530 535 564 535 619 c 0
598 622 m 0
 598 589 625 581 649 581 c 0
 716 581 727 635 733 663 c 0
 735 671 736 680 736 688 c 0
 736 721 710 730 686 730 c 0
 635 730 615 700 604 656 c 0
 602 646 598 633 598 622 c 0
EndSplineSet
EndChar

StartChar: caron
Encoding: 711 711 17
Width: 575
Flags: HW
TeX: 772 0
HStem: 557 217
VStem: 309 330<740 760>
LayerCount: 2
Fore
SplineSet
309 749 m 0
 309 760 323 774 336 774 c 0
 349 774 357 760 399 709 c 0
 415 690 431 672 446 652 c 1
 594 762 603 774 616 774 c 0
 628 774 639 761 639 749 c 0
 639 738 630 732 621 723 c 0
 440 558 444 557 431 557 c 0
 416 557 409 575 394 600 c 0
 311 740 309 740 309 749 c 0
EndSplineSet
EndChar

StartChar: breve
Encoding: 728 728 18
Width: 636
Flags: HW
TeX: 772 0
ItalicCorrection: 134
HStem: 544 79<408.621 538.706>
VStem: 302 77<655.071 770.487> 622 79<701.047 770.629>
LayerCount: 2
Fore
SplineSet
302 704 m 0
 302 772 321 772 338 772 c 0
 343 772 348 772 353 772 c 0
 377 772 382 764 382 751 c 0
 382 741 379 728 379 714 c 0
 379 664 412 623 468 623 c 0
 529 623 596 673 622 739 c 0
 631 761 629 772 658 772 c 0
 662 772 666 772 670 772 c 0
 682 772 701 771 701 751 c 0
 701 708 613 544 458 544 c 0
 364 544 302 612 302 704 c 0
EndSplineSet
EndChar

StartChar: macron
Encoding: 175 175 19
Width: 636
Flags: HW
TeX: 694 0
ItalicCorrection: 125
HStem: 628 78<284.237 687.571>
LayerCount: 2
Fore
SplineSet
272 650 m 0
 272 658 279 686 284 695 c 0
 289 703 297 706 311 706 c 2
 666 706 l 2
 678 706 695 703 695 684 c 1
 695 684 691 640 675 631 c 0
 670 628 664 628 659 628 c 2
 299 628 l 2
 282 628 272 636 272 650 c 0
EndSplineSet
EndChar

StartChar: dotaccent
Encoding: 729 729 20
Width: 381
Flags: HW
TeX: 694 0
ItalicCorrection: 108
HStem: 570 124<323.417 403.72>
VStem: 300 127<593.779 669.835>
LayerCount: 2
Fore
SplineSet
300 622 m 0
 300 657 334 694 375 694 c 0
 407 694 427 671 427 642 c 0
 427 606 393 570 353 570 c 0
 321 570 300 594 300 622 c 0
EndSplineSet
EndChar

StartChar: cedilla
Encoding: 184 184 21
Width: 572
Flags: HW
TeX: 0 170
HStem: -200 76<115.335 300.986> -200 67<106.487 282.994>
VStem: 314 89<-107.868 -65.8198>
LayerCount: 2
Fore
SplineSet
102 -178 m 0
 102 -170 109 -140 115 -133 c 0x60
 122 -125 139 -124 164 -124 c 2
 174 -124 l 2
 290 -124 314 -100 314 -84 c 0
 314 -56 250 -67 237 -52 c 0
 234 -48 233 -44 233 -38 c 0
 233 -26 238 -11 242 3 c 0
 247 24 248 39 276 39 c 0xa0
 285 39 294 39 303 39 c 0
 325 39 332 31 332 18 c 0
 332 14 331 11 330 6 c 1
 362 -3 403 -26 403 -75 c 0
 403 -119 372 -166 301 -185 c 0
 254 -198 199 -200 141 -200 c 2
 132 -200 l 2xa0
 119 -200 102 -198 102 -178 c 0
EndSplineSet
EndChar

StartChar: ogonek
Encoding: 731 731 22
Width: 381
Flags: HW
TeX: 0 194
HStem: -203 83<104.041 186.504>
VStem: 11 93<-145 -72.0962>
LayerCount: 2
Fore
SplineSet
11 -120 m 0
 11 -85 38 -54 52 -41 c 0
 100 4 169 14 223 49 c 0
 230 54 239 63 250 63 c 0
 270 63 276 26 276 20 c 0
 276 -22 137 -38 107 -93 c 0
 105 -97 104 -100 104 -103 c 0
 104 -114 115 -120 130 -120 c 0
 190 -120 224 -55 244 -55 c 0
 255 -55 287 -79 287 -94 c 0
 287 -114 204 -203 112 -203 c 0
 55 -203 11 -170 11 -120 c 0
EndSplineSet
EndChar

StartChar: guilsinglleft
Encoding: 8249 8249 24
Width: 572
Flags: HW
TeX: 500 0
ItalicCorrection: 61
HStem: -0 21G<352.5 396.5>
VStem: 337 77<0.112247 94.9348>
LayerCount: 2
Fore
SplineSet
222 250 m 0
 222 259 233 265 243 272 c 0
 326 331 397 403 455 487 c 0
 465 500 471 500 482 500 c 2
 511 500 l 2
 524 500 533 498 533 488 c 0
 533 472 435 336 312 249 c 1
 408 130 414 16 414 15 c 0
 414 2 407 0 386 -0 c 2
 363 -0 l 2
 342 0 340 6 337 23 c 0
 305 180 222 231 222 250 c 0
EndSplineSet
EndChar

StartChar: guilsinglright
Encoding: 8250 8250 25
Width: 572
Flags: HW
TeX: 500 0
ItalicCorrection: 61
HStem: -0 21G<177 215>
VStem: 281 76<406.893 499.938> 383 89<238.809 278.882>
LayerCount: 2
Fore
SplineSet
162 12 m 0
 162 27 256 160 383 252 c 1
 383 253 l 1
 303 346 281 463 281 486 c 0
 281 498 287 501 308 501 c 0
 313 501 319 500 324 500 c 0
 326 500 329 501 331 501 c 0
 352 501 353 494 357 477 c 0
 388 326 472 265 472 250 c 0
 472 241 461 235 451 228 c 0
 299 119 246 14 230 4 c 0
 225 1 218 0 212 -0 c 2
 183 -0 l 2
 171 0 162 2 162 12 c 0
EndSplineSet
EndChar

StartChar: quotedblleft
Encoding: 8220 8220 26
Width: 444
Flags: HW
TeX: 694 0
ItalicCorrection: 167
HStem: 375 317
VStem: 139 134<399.219 488.058> 382 134<400.486 488.058>
LayerCount: 2
Fore
SplineSet
139 449 m 0
 139 568 258 692 283 692 c 0
 295 692 321 655 321 646 c 0
 321 629 249 595 222 500 c 1
 265 497 273 469 273 451 c 0
 273 414 241 375 197 375 c 0
 174 375 139 389 139 449 c 0
382 449 m 0
 382 568 501 692 526 692 c 0
 538 692 564 655 564 646 c 0
 564 629 492 595 465 500 c 1
 508 497 516 469 516 451 c 0
 516 414 483 375 439 375 c 0
 416 375 382 389 382 449 c 0
EndSplineSet
EndChar

StartChar: quotedblright
Encoding: 8221 8221 27
Width: 444
Flags: HW
TeX: 694 0
ItalicCorrection: 36
HStem: 377 317
VStem: 194 134<580.682 668.792> 437 134<580.942 668.792>
LayerCount: 2
Fore
SplineSet
389 424 m 0
 389 441 457 469 488 569 c 1
 445 572 437 600 437 618 c 0
 437 656 471 694 513 694 c 0
 536 694 571 681 571 620 c 0
 571 501 451 377 427 377 c 0
 414 377 389 415 389 424 c 0
EndSplineSet
Refer: 48 8217 S 1 0 0 1 -90 0 2
EndChar

StartChar: quotedblbase
Encoding: 8222 8222 28
Width: 444
Flags: HW
TeX: 125 194
ItalicCorrection: 36
HStem: -192 317
VStem: 52 134<11.9425 99.9003> 295 134<11.9425 99.9003>
LayerCount: 2
Fore
SplineSet
4 -146 m 0
 4 -128 73 -100 103 0 c 1
 60 3 52 31 52 49 c 0
 52 87 86 125 128 125 c 0
 170 125 186 90 186 51 c 0
 186 -68 66 -192 42 -192 c 0
 30 -192 4 -155 4 -146 c 0
247 -146 m 0
 247 -129 315 -100 346 0 c 1
 303 3 295 31 295 49 c 0
 295 87 329 125 371 125 c 0
 413 125 429 90 429 51 c 0
 429 -68 308 -192 284 -192 c 0
 271 -192 247 -155 247 -146 c 0
EndSplineSet
EndChar

StartChar: endash
Encoding: 8211 8211 31
Width: 636
Flags: HW
TeX: 472 0
ItalicCorrection: 104
HStem: 254 76<111.236 673.733>
LayerCount: 2
Fore
SplineSet
99 276 m 0
 99 283 106 311 111 319 c 0
 116 327 123 330 138 330 c 2
 650 330 l 2
 665 330 681 326 681 308 c 1
 681 308 677 269 663 259 c 0
 657 255 651 254 644 254 c 2
 129 254 l 2
 119 254 99 255 99 276 c 0
EndSplineSet
EndChar

StartChar: emdash
Encoding: 8212 8212 32
Width: 1272
Flags: HW
TeX: 472 0
ItalicCorrection: 104
HStem: 254 76<142.284 1271.67>
LayerCount: 2
Fore
SplineSet
130 276 m 0
 130 283 137 311 142 319 c 0
 148 329 158 330 165 330 c 2
 1259 330 l 2
 1273 330 1287 325 1287 308 c 0
 1287 303 1281 271 1272 261 c 1
 1265 255 1256 254 1247 254 c 2
 157 254 l 2
 133 254 130 267 130 276 c 0
EndSplineSet
Substitution2: "Cyrillic substitutions subtable" emdash.cyr
AlternateSubs2: "Cyrillic alternatives subtable" emdash.cyr
EndChar

StartChar: dotlessi
Encoding: 305 305 34
Width: 381
Flags: HW
TeX: 472 0
ItalicCorrection: 111
HStem: -6 76<243.044 310.345> 402 76<185.075 252.929>
VStem: 70 87<304.511 371.261> 153 89<71.0724 158.801> 254 89<312.532 400.318> 345 82<107.647 168.917>
AnchorPoint: "below" 189 0 basechar 0
AnchorPoint: "above" 309 478 basechar 0
LayerCount: 2
Fore
SplineSet
70 318 m 0xec
 70 347 132 478 242 478 c 0
 298 478 343 442 343 388 c 2
 343 382 l 2xdc
 343 350 242 124 242 97 c 0
 242 80 255 70 269 70 c 0
 304 70 332 113 345 152 c 0
 350 165 355 169 370 169 c 2
 408 169 l 2
 417 169 427 166 427 155 c 0
 427 125 363 -6 254 -6 c 0
 198 -6 153 30 153 84 c 0xdc
 153 104 160 120 165 134 c 0
 237 321 254 361 254 375 c 0
 254 390 243 402 227 402 c 0
 199 402 172 372 157 336 c 0
 147 312 150 304 127 304 c 2
 88 304 l 2
 75 304 70 310 70 318 c 0xec
EndSplineSet
EndChar

StartChar: dotlessj
Encoding: 567 567 35
Width: 412
Flags: HW
TeX: 472 194
ItalicCorrection: 33
HStem: -200 75<66 157.138> 402 76<203.111 296.32>
VStem: 71 84<304.104 355.392> 300 89<280.281 398.082>
DStem2: 160.712 -200 247.239 -200 0.242599 0.970127<98.9264 583.443>
AnchorPoint: "below" 119 -194 basechar 0
AnchorPoint: "above" 373 478 basechar 0
LayerCount: 2
Fore
SplineSet
-34 -138 m 0
 -34 -102 -5 -77 25 -77 c 0
 49 -77 66 -91 66 -119 c 2
 66 -124 l 1
 72 -124 79 -125 85 -125 c 0
 192 -125 203 -30 203 -30 c 1
 296 341 l 2
 298 349 300 358 300 367 c 0
 300 390 281 402 260 402 c 0
 236 402 187 387 155 323 c 0
 146 305 142 304 128 304 c 0
 116 304 105 304 93 304 c 0
 77 304 71 309 71 316 c 0
 71 342 150 478 275 478 c 0
 338 478 389 438 389 379 c 0
 389 360 383 340 380 329 c 2
 288 -37 l 2
 284 -53 277 -109 214 -155 c 0
 170 -188 121 -200 76 -200 c 0
 29 -200 -34 -187 -34 -138 c 0
EndSplineSet
EndChar

StartChar: ff
Encoding: 64256 64256 36
Width: 761
Flags: HW
TeX: 694 194
ItalicCorrection: 221
HStem: -200 75<76.1448 128.121 369.172 476.658> 397 75<125.119 236 336 603 704 830.717> 625 75<367.655 515.594 729.413 803.622>
VStem: -22 100<-123.719 -82.3039> 270 100<-124.866 -83.5937> 516 100<582.608 623.708> 802 100<581.881 622.719>
DStem2: 236 397 252 12 0.179638 0.983733<-242.77 0 91.7438 241.106> 603 397 628 55 0.179301 0.983794<-250.314 0 91.8939 246.968>
LayerCount: 2
Fore
SplineSet
-22 -130 m 0
 -22 -96 5 -68 38 -68 c 0
 64 -68 78 -84 78 -107 c 0
 78 -112 78 -118 76 -124 c 1
 83 -124 89 -125 93 -125 c 0
 150 -125 158 -40 236 397 c 1
 144 397 l 2
 124 397 118 405 118 418 c 0
 118 423 119 429 121 436 c 0
 128 459 127 472 154 472 c 2
 249 472 l 1
 266 569 275 700 472 700 c 0
 522 700 616 696 616 631 c 0
 616 600 593 568 557 568 c 0
 531 568 516 583 516 607 c 0
 516 612 517 617 518 622 c 1
 495 624 473 625 450 625 c 2
 398 625 l 2
 358 625 357 579 336 472 c 1
 617 472 l 1
 638 590 641 639 702 677 c 0
 722 690 748 700 781 700 c 0
 825 700 902 689 902 630 c 0
 902 600 880 568 843 568 c 0
 817 568 802 583 802 607 c 0
 802 612 804 617 805 623 c 1
 738 625 l 1
 723 594 724 579 704 472 c 1
 813 472 l 2
 823 472 841 471 841 451 c 0
 841 443 833 415 831 411 c 0
 825 399 816 397 803 397 c 2
 690 397 l 1
 687 376 643 126 628 55 c 0
 603 -59 584 -104 528 -151 c 0
 498 -175 457 -200 400 -200 c 0
 343 -200 270 -186 270 -131 c 0
 270 -94 300 -68 330 -68 c 0
 356 -68 370 -83 370 -107 c 0
 370 -112 369 -117 368 -123 c 1
 383 -125 395 -125 406 -125 c 0
 442 -125 460 -116 479 -102 c 0
 526 -67 535 13 603 397 c 1
 323 397 l 1
 323 397 273 107 252 12 c 0
 236 -56 226 -94 198 -132 c 0
 152 -195 109 -200 87 -200 c 0
 42 -200 -22 -183 -22 -130 c 0
EndSplineSet
Ligature2: "Latin ligatures subtable" f f
EndChar

StartChar: fi
Encoding: 64257 64257 37
Width: 697
Flags: HW
TeX: 694 194
ItalicCorrection: 111
HStem: -200 75<76.1448 128.525> -6 76<581.831 643.098> 397 75<123.902 236 336 562> 625 75<371.109 604.62>
VStem: -22 100<-123.719 -82.3039> 490 89<72.7821 194.272> 605 100<578.734 622.217> 671 74<104.95 168.819>
DStem2: 236 397 252 11 0.179261 0.983802<-251.321 0 91.7112 232.17>
LayerCount: 2
Fore
SplineSet
-22 -130 m 0
 -22 -96 5 -68 38 -68 c 0
 64 -68 78 -84 78 -107 c 0
 78 -112 78 -118 76 -124 c 1
 83 -124 89 -125 93 -125 c 0
 147 -125 155 -61 236 397 c 1
 145 397 l 2
 134 397 117 399 117 418 c 0
 117 425 119 433 121 439 c 0
 126 459 128 472 154 472 c 2
 249 472 l 1
 260 531 265 623 356 671 c 0
 409 700 470 700 529 700 c 2
 542 700 l 2
 598 700 705 699 705 628 c 0
 705 586 672 563 645 563 c 0xfe
 618 563 605 579 605 603 c 0xfe
 605 608 606 613 607 619 c 1
 604 622 545 625 513 625 c 2
 414 625 l 2
 394 625 390 624 381 616 c 0
 353 591 351 550 336 472 c 1
 642 472 l 2
 659 472 664 468 664 459 c 0
 664 454 663 448 661 440 c 2
 582 125 l 2
 580 118 579 112 579 105 c 0
 579 84 596 70 614 70 c 0
 655 70 658 154 671 165 c 0
 676 169 683 169 690 169 c 2
 715 169 l 2
 735 169 745 167 745 154 c 0xfd
 745 142 705 -6 603 -6 c 0
 547 -6 490 29 490 93 c 0
 490 124 537 289 562 397 c 1
 323 397 l 1
 323 397 274 107 252 11 c 0
 238 -49 222 -128 155 -177 c 0
 136 -191 114 -200 87 -200 c 0
 42 -200 -22 -183 -22 -130 c 0
EndSplineSet
Ligature2: "Latin ligatures excepting Turkic subtable" f i
EndChar

StartChar: fl
Encoding: 64258 64258 38
Width: 729
Flags: HW
TeX: 694 194
ItalicCorrection: 111
HStem: -200 75<76.1448 128.146> -6 76<613.338 674.611> 397 75<124.169 236 336 595> 625 75<368.837 548.832>
VStem: -22 100<-123.719 -82.3039> 522 89<74.2756 190.25> 679 98<91.0804 162.404>
DStem2: 236 397 252 11 0.179261 0.983802<-247.287 0 91.7112 241.485> 445.708 -200 533.227 -200 0.242599 0.970127<365.985 615.384 692.753 827.602 852.341 926.736>
LayerCount: 2
Fore
SplineSet
-22 -130 m 0
 -22 -96 5 -68 38 -68 c 0
 64 -68 78 -84 78 -107 c 0
 78 -112 78 -118 76 -124 c 1
 82 -124 88 -125 94 -125 c 0
 148 -125 156 -51 236 397 c 1
 145 397 l 2
 135 397 117 398 117 418 c 0
 117 425 119 433 121 439 c 0
 126 459 128 472 154 472 c 2
 249 472 l 1
 267 571 274 700 488 700 c 2
 490 700 l 1
 635 699 649 670 652 627 c 1
 666 693 669 694 691 694 c 2
 729 694 l 2
 740 694 752 693 752 680 c 0
 752 673 749 666 748 661 c 2
 614 123 l 2
 612 114 609 106 611 97 c 0
 614 85 628 70 645 70 c 0
 656 70 669 78 679 99 c 0
 702 150 687 169 722 169 c 2
 753 169 l 2
 766 169 777 168 777 154 c 0
 777 142 736 -6 635 -6 c 0
 578 -6 522 31 522 94 c 0
 522 125 569 284 595 397 c 1
 323 397 l 1
 320 377 270 89 252 11 c 0
 237 -54 227 -91 201 -128 c 0
 152 -199 104 -200 87 -200 c 0
 42 -200 -22 -183 -22 -130 c 0
336 472 m 1
 614 472 l 1
 646 603 l 1
 630 573 606 568 592 568 c 0
 565 568 552 583 552 608 c 0
 552 612 552 616 553 621 c 1
 529 624 504 625 480 625 c 2
 404 625 l 2
 364 625 359 603 336 472 c 1
EndSplineSet
Ligature2: "Latin ligatures subtable" f l
EndChar

StartChar: ffi
Encoding: 64259 64259 39
Width: 1094
Flags: HW
TeX: 694 194
ItalicCorrection: 111
HStem: -200 75<76.2592 128.553 369.193 486.897> -6 76<977.921 1039.28> 397 75<123.902 236 337 616 717 959> 625 75<371.206 548.875 755.838 1001.59>
VStem: -22 100<-123.719 -82.3039> 270 100<-124.444 -83.5937> 549 100<583.144 623.257> 887 88<73.0977 194.111> 1001 101<577.683 622.047> 1067 75<104.95 168.907>
DStem2: 223 325 252 10 0.180946 0.983493<-243.826 73.1638 165.201 315.253>
LayerCount: 2
Fore
SplineSet
-22 -130 m 0
 -22 -96 5 -68 38 -68 c 0
 64 -68 78 -84 78 -107 c 0
 78 -112 78 -118 76 -124 c 1
 84 -125 90 -125 94 -125 c 0
 146 -125 156 -51 223 325 c 0
 227 349 232 373 236 397 c 1
 145 397 l 2
 131 397 117 400 117 418 c 0
 117 425 119 433 121 439 c 0
 126 459 128 472 154 472 c 2
 249 472 l 1
 250 473 l 1
 263 561 276 680 436 698 c 0
 455 700 475 700 494 700 c 0
 546 700 649 700 649 631 c 0
 649 590 616 568 589 568 c 0
 562 568 549 584 549 608 c 0
 549 612 549 616 550 621 c 1
 526 624 502 625 478 625 c 2
 404 625 l 2
 366 625 357 599 337 472 c 1
 630 472 l 1
 641 540 651 623 738 670 c 0
 790 698 851 700 909 700 c 2xff40
 936 700 l 2
 992 700 1102 697 1102 627 c 0
 1102 595 1079 563 1042 563 c 0
 1015 563 1001 579 1001 603 c 0xff80
 1001 608 1002 613 1003 619 c 1
 973 624 939 625 905 625 c 2
 794 625 l 2
 740 625 735 574 717 472 c 1
 1038 472 l 2
 1055 472 1061 468 1061 459 c 0
 1061 454 1059 448 1057 440 c 2
 978 125 l 2
 976 118 975 112 975 105 c 0
 975 82 996 70 1011 70 c 0
 1051 70 1054 154 1067 165 c 0
 1072 169 1080 169 1086 169 c 2
 1114 169 l 2
 1129 169 1142 168 1142 154 c 0
 1142 142 1101 -6 999 -6 c 0
 943 -6 887 29 887 93 c 0
 887 124 934 288 959 397 c 1
 703 397 l 1
 628 -49 612 -90 541 -149 c 0
 510 -175 467 -200 406 -200 c 0
 342 -200 270 -186 270 -131 c 0
 270 -94 300 -68 330 -68 c 0
 356 -68 370 -83 370 -107 c 0
 370 -112 369 -117 368 -123 c 1
 383 -124 397 -125 412 -125 c 0
 444 -125 463 -120 487 -104 c 0
 538 -70 543 -14 616 397 c 1
 323 397 l 1
 321 384 270 90 252 10 c 0
 237 -54 227 -90 202 -127 c 0
 153 -198 104 -200 87 -200 c 0
 42 -200 -22 -183 -22 -130 c 0
EndSplineSet
Ligature2: "Latin ligatures excepting Turkic subtable" ff i
Ligature2: "Latin ligatures excepting Turkic subtable" f f i
EndChar

StartChar: ffl
Encoding: 64260 64260 40
Width: 1110
Flags: HW
TeX: 694 194
ItalicCorrection: 111
HStem: -200 75<76.2592 128.641 369.193 488.097> -6 76<993.338 1054.62> 397 75<123.902 236 336 616 717 975> 625 75<365.591 516.919 749.031 931.651>
VStem: -22 100<-123.719 -82.3039> 270 100<-124.444 -83.5937> 516 100<582.608 623.708> 902 89<74.2756 190.25> 1058 99<90.6508 161.19>
DStem2: 224 328 251 8 0.180191 0.983632<-244.795 70.0329 161.824 317.362> 616 397 641 56 0.179718 0.983718<-250.909 0 91.9304 238.702> 825.708 -200 913.227 -200 0.242599 0.970127<365.79 615.384 692.753 827.602 852.341 926.726>
LayerCount: 2
Fore
SplineSet
-22 -130 m 0
 -22 -96 5 -68 38 -68 c 0
 64 -68 78 -84 78 -107 c 0
 78 -112 78 -118 76 -124 c 1
 84 -125 90 -125 94 -125 c 0
 146 -125 157 -49 224 328 c 0
 228 351 232 374 236 397 c 1
 145 397 l 2
 131 397 117 400 117 418 c 0
 117 425 119 433 121 439 c 0
 126 459 128 472 154 472 c 2
 249 472 l 1
 250 473 l 1
 266 586 286 700 470 700 c 0
 520 700 616 696 616 631 c 0
 616 600 593 568 557 568 c 0
 531 568 516 583 516 607 c 0
 516 612 517 617 518 622 c 1
 496 624 473 625 450 625 c 2
 398 625 l 2
 357 625 359 582 336 472 c 1
 630 472 l 1
 649 605 678 700 871 700 c 0
 1007 700 1031 673 1032 627 c 1
 1046 692 1048 694 1069 694 c 2
 1110 694 l 2
 1121 694 1132 693 1132 680 c 0
 1132 673 1129 665 1128 661 c 2
 994 123 l 2
 992 115 989 106 991 97 c 0
 994 85 1008 70 1025 70 c 0
 1036 70 1048 77 1058 97 c 0
 1082 148 1066 169 1102 169 c 2
 1132 169 l 2
 1145 169 1157 168 1157 154 c 0
 1157 141 1116 -6 1015 -6 c 0
 958 -6 902 31 902 94 c 0
 902 125 949 283 975 397 c 1
 703 397 l 1
 701 386 656 127 641 56 c 0
 615 -63 594 -104 540 -150 c 0
 509 -176 466 -200 406 -200 c 0
 342 -200 270 -186 270 -131 c 0
 270 -94 300 -68 330 -68 c 0
 355 -68 370 -82 370 -107 c 0
 370 -112 369 -117 368 -123 c 1
 383 -124 397 -125 412 -125 c 0
 440 -125 475 -120 506 -88 c 0
 551 -40 579 218 616 397 c 1
 323 397 l 1
 323 397 273 104 251 8 c 0
 236 -55 227 -90 202 -127 c 0
 153 -198 104 -200 87 -200 c 0
 42 -200 -22 -183 -22 -130 c 0
717 472 m 1
 994 472 l 1
 1026 603 l 1
 1010 573 986 568 972 568 c 0
 945 568 932 583 932 608 c 0
 932 612 932 616 933 621 c 1
 909 624 885 625 861 625 c 2
 784 625 l 2
 750 625 738 607 717 472 c 1
EndSplineSet
Ligature2: "Latin ligatures subtable" ff l
Ligature2: "Latin ligatures subtable" f f l
EndChar

StartChar: uni2423
Encoding: 9251 9251 41
Width: 636
Flags: HW
TeX: 472 97
ItalicCorrection: 46
HStem: -97 80<176.047 456.171>
LayerCount: 2
Fore
SplineSet
89 38 m 0
 89 58 104 60 119 60 c 0
 126 60 132 60 139 60 c 0
 172 60 166 48 180 -16 c 1
 203 -18 225 -17 248 -17 c 2
 381 -17 l 1
 442 -16 439 -18 457 6 c 1
 492 57 492 60 515 60 c 0
 523 60 531 60 539 60 c 0
 560 60 565 49 565 41 c 0
 565 30 557 20 491 -78 c 0
 480 -94 474 -97 457 -97 c 2
 139 -97 l 2
 106 -97 109 -82 104 -58 c 0
 94 0 89 29 89 38 c 0
EndSplineSet
EndChar

StartChar: exclam
Encoding: 33 33 42
Width: 422
Flags: HW
TeX: 694 0
ItalicCorrection: 87
HStem: 0 125<186.75 265.152> 685 20G<373 397.5>
VStem: 162 127<24.3021 100.051> 226 85<207.436 258.291>
LayerCount: 2
Fore
SplineSet
162 52 m 0
 162 93 203 125 237 125 c 0
 266 125 289 104 289 73 c 0xe0
 289 37 255 0 215 0 c 0
 183 0 162 23 162 52 c 0
226 222 m 0
 226 228 229 239 231 250 c 2
 307 636 l 2
 319 694 363 705 383 705 c 0
 412 705 435 685 435 656 c 0
 435 645 433 639 421 601 c 2
 311 235 l 2
 303 211 304 207 279 207 c 2xd0
 253 207 l 2
 236 207 226 208 226 222 c 0
EndSplineSet
EndChar

StartChar: quotedbl
Encoding: 34 34 43
Width: 636
Flags: HW
TeX: 694 0
ItalicCorrection: 62
HStem: 379 322
LayerCount: 2
Fore
SplineSet
284 401 m 0
 284 409 314 555 330 632 c 0
 332 642 338 701 391 701 c 0
 415 701 434 684 434 660 c 0
 434 649 436 658 363 411 c 0
 353 377 345 379 321 379 c 2
 314 379 l 2
 300 379 284 381 284 401 c 0
477 401 m 0
 477 406 478 412 479 418 c 0
 532 675 527 663 537 676 c 0
 553 699 576 701 583 701 c 0
 607 701 626 685 626 660 c 0
 626 649 628 658 555 411 c 0
 545 377 536 379 513 379 c 2
 506 379 l 2
 483 379 477 388 477 401 c 0
EndSplineSet
EndChar

StartChar: numbersign
Encoding: 35 35 44
Width: 1019
Flags: HW
TeX: 694 194
ItalicCorrection: 67
HStem: 94 75<131.573 317 445 566 694 952.422> 330 76<191.113 448 577 698 826 1011.06> 674 20G<660.5 684 911.5 933>
DStem2: 317 94 260 -163 0.486685 0.873577<-240.448 0 130.426 269.92 399.094 640.422> 566 94 509 -163 0.486685 0.873577<-240.216 0 127.87 270.407 399.094 640.338>
LayerCount: 2
Fore
SplineSet
128 131 m 0
 128 143 133 169 175 169 c 2
 347 169 l 2
 361 169 362 175 448 330 c 1
 235 330 l 2
 193 330 187 353 187 368 c 0
 187 387 202 401 216 404 c 0
 224 406 231 406 239 406 c 2
 491 406 l 1
 497 418 504 429 510 440 c 2
 632 661 l 2
 639 673 648 694 673 694 c 0
 695 694 710 675 710 657 c 0
 710 642 712 649 577 406 c 1
 740 406 l 1
 746 418 753 429 759 440 c 2
 883 663 l 2
 891 678 901 693 922 694 c 1
 944 694 960 677 960 657 c 0
 960 642 961 648 826 406 c 1
 964 406 l 2
 972 406 979 406 987 404 c 0
 1003 400 1015 385 1015 368 c 0
 1015 348 1000 335 985 332 c 0
 978 331 972 330 965 330 c 2
 784 330 l 1
 694 169 l 1
 908 169 l 2
 949 169 956 146 956 131 c 0
 956 117 947 99 927 95 c 0
 920 93 912 94 904 94 c 2
 652 94 l 1
 509 -163 l 2
 502 -174 492 -194 470 -194 c 0
 448 -194 433 -176 433 -157 c 0
 433 -143 428 -153 566 94 c 1
 403 94 l 1
 260 -163 l 2
 253 -174 243 -194 221 -194 c 0
 199 -194 183 -176 183 -157 c 0
 183 -143 179 -153 317 94 c 1
 176 94 l 2
 166 94 128 94 128 131 c 0
445 169 m 1
 597 169 l 2
 612 169 612 175 698 330 c 1
 534 330 l 1
 445 169 l 1
EndSplineSet
EndChar

StartChar: dollar
Encoding: 36 36 45
Width: 636
Flags: HW
TeX: 750 55
ItalicCorrection: 141
HStem: 730 20G<478 519>
VStem: 136 83<101.233 195.488> 217 86<447.244 556.51> 509 86<151.468 273.323> 569 106<482.342 545.778>
DStem2: 264.746 -56 340.746 -56 0.242599 0.970127<22.3467 54.632 151.651 389.574 488.776 697.836 795.826 826.945>
LayerCount: 2
Fore
SplineSet
136 143 m 0
 136 189 149 245 201 245 c 0
 223 245 242 230 242 206 c 0
 242 187 232 172 219 160 c 1xd0
 220 136 224 86 297 73 c 1
 359 322 l 1
 226 348 217 444 217 472 c 0
 217 544 274 677 453 698 c 1
 454 699 l 1
 463 741 466 750 490 750 c 0
 496 750 502 750 508 750 c 0
 530 750 536 741 536 729 c 0
 536 720 533 710 530 698 c 1
 573 692 675 670 675 559 c 0
 675 479 636 463 610 463 c 0
 589 463 569 478 569 502 c 0xa8
 569 520 578 534 592 547 c 1
 590 568 584 609 511 622 c 1
 456 400 l 1
 559 379 595 306 595 243 c 0x90
 595 145 512 13 354 -3 c 1
 345 -46 342 -55 317 -56 c 1
 301 -56 l 2
 278 -56 271 -47 271 -35 c 0
 271 -25 275 -13 278 -3 c 1
 195 8 136 55 136 143 c 0
303 497 m 0xa0
 303 465 325 429 383 417 c 1
 434 621 l 1
 348 606 303 547 303 497 c 0xa0
374 73 m 1
 475 94 509 173 509 217 c 0x90
 509 268 470 295 432 305 c 1
 374 73 l 1
EndSplineSet
EndChar

StartChar: percent
Encoding: 37 37 46
Width: 1019
Flags: HW
TeX: 750 55
ItalicCorrection: 123
HStem: -56 76<721.743 820.58> 272 75<780.941 878.596> 347 75<312.901 411.21> 575 71<615.89 790.344> 674 76<368.758 468.343>
VStem: 222 80<432.352 585.164> 632 80<29.0325 179.587> 891 79<106.949 260.346>
DStem2: 206 9 245 -37 0.71589 0.698213<-39.0274 817.475 924.42 1055.93>
LayerCount: 2
Fore
SplineSet
184 -25 m 0
 184 -11 195 -2 206 9 c 2
 791 580 l 1
 769 577 748 575 726 575 c 0
 676 575 622 584 560 610 c 1
 551 467 459 347 344 347 c 0
 293 347 222 374 222 481 c 0
 222 591 301 750 439 750 c 0
 499 750 512 722 560 694 c 0
 619 659 681 646 732 646 c 0
 811 646 890 678 935 720 c 0
 947 732 961 749 978 749 c 0
 996 749 1007 737 1007 718 c 0
 1007 715 1007 711 1006 708 c 1
 1007 705 1009 702 1009 699 c 0
 1009 679 948 648 913 614 c 2
 245 -37 l 2
 236 -46 226 -55 213 -55 c 0
 196 -55 184 -40 184 -25 c 0
302 483 m 0
 302 435 332 422 357 422 c 0
 434 422 481 534 481 605 c 0
 481 644 464 674 424 674 c 0
 326 674 302 519 302 483 c 0
632 77 m 0
 632 189 710 347 849 347 c 0
 898 347 970 321 970 216 c 0
 970 101 890 -56 754 -56 c 0
 705 -56 632 -29 632 77 c 0
712 81 m 0
 712 32 740 20 767 20 c 0
 845 20 891 132 891 202 c 0
 891 241 875 272 835 272 c 0
 733 272 712 105 712 81 c 0
EndSplineSet
EndChar

StartChar: ampersand
Encoding: 38 38 47
Width: 956
Flags: HW
TeX: 694 0
ItalicCorrection: 77
HStem: -11 75<335.889 655.121> 250 92<702.56 762.588> 288 76<335.675 427.443> 428 76<348.684 456.617> 630 76<392.719 537.603> 674 20G<906 931.5>
VStem: 150 93<135.681 296.109> 538 88<573.609 621.094> 597 83<330.711 387.185> 816 83<208.482 382.101> 866 93<588.806 681.906>
LayerCount: 2
Fore
SplineSet
150 199 m 0
 150 260 184 346 231 401 c 1
 228 414 227 426 227 439 c 0
 227 546 311 706 481 706 c 0
 547 706 626 677 626 605 c 0
 626 555 591 535 565 535 c 0
 543 535 524 550 524 573 c 0
 524 586 531 599 538 610 c 1
 538 611 l 1
 527 619 511 630 469 630 c 0
 347 630 323 508 316 472 c 1
 360 494 401 504 437 504 c 0
 491 504 517 472 517 428 c 0
 517 372 477 288 389 288 c 0xbb40
 321 288 283 319 276 324 c 1
 276 323 243 253 243 206 c 0
 243 154 270 120 304 100 c 0
 355 71 416 64 492 64 c 0
 555 64 652 67 723 118 c 0
 775 155 816 229 816 299 c 0
 816 348 795 385 770 422 c 1
 750 414 680 391 680 354 c 0
 680 344 686 337 702 330 c 1
 714 338 722 342 736 342 c 0
 767 342 775 317 775 306 c 0
 775 280 755 250 714 250 c 0xd2c0
 678 250 597 268 597 341 c 0
 597 438 726 474 785 516 c 0
 829 548 861 596 866 617 c 0
 868 626 864 633 866 646 c 0
 869 669 891 694 921 694 c 0
 942 694 959 679 959 657 c 0xd6a0
 959 633 928 536 844 467 c 1
 870 430 899 378 899 311 c 0
 899 214 839 102 742 47 c 0
 671 6 586 -11 481 -11 c 0
 203 -11 150 115 150 199 c 0
328 393 m 1
 337 382 357 364 401 364 c 0xb2
 413 364 423 368 429 388 c 0
 433 401 436 414 437 427 c 1
 432 428 427 428 422 428 c 0
 413 428 374 428 328 393 c 1
EndSplineSet
EndChar

StartChar: quoteright
Encoding: 8217 8217 48
Width: 381
Flags: HW
TeX: 694 0
ItalicCorrection: 108
HStem: 377 317
VStem: 284 134<580.682 668.792>
LayerCount: 2
Fore
SplineSet
236 423 m 0
 236 442 304 468 335 569 c 1
 292 572 284 600 284 618 c 0
 284 656 318 694 360 694 c 0
 383 694 418 681 418 620 c 0
 418 500 298 377 274 377 c 0
 262 377 236 414 236 423 c 0
EndSplineSet
EndChar

StartChar: parenleft
Encoding: 40 40 49
Width: 508
Flags: HW
TeX: 750 250
ItalicCorrection: 155
HStem: 730 20G<538 576>
VStem: 159 84<-82.3673 235.539>
LayerCount: 2
Fore
SplineSet
159 69 m 0
 159 276 263 572 510 737 c 0
 528 749 531 750 545 750 c 2
 571 750 l 2
 581 750 595 750 595 739 c 0
 595 731 586 726 578 720 c 0
 354 564 243 278 243 61 c 0
 243 -157 350 -219 350 -239 c 0
 350 -246 343 -250 332 -250 c 2
 301 -250 l 2
 287 -250 282 -249 267 -233 c 0
 225 -189 159 -98 159 69 c 0
EndSplineSet
EndChar

StartChar: parenright
Encoding: 41 41 50
Width: 508
Flags: HW
TeX: 750 250
ItalicCorrection: 30
HStem: 730 20G<294.5 338.5>
VStem: 389 84<270.992 582.236>
LayerCount: 2
Fore
SplineSet
36 -239 m 0
 36 -231 46 -226 54 -220 c 0
 285 -58 389 233 389 438 c 0
 389 657 281 718 281 739 c 0
 281 746 290 750 299 750 c 2
 332 750 l 2
 345 750 355 749 390 704 c 0
 450 626 473 528 473 430 c 0
 473 236 378 -50 147 -220 c 0
 113 -245 108 -251 84 -251 c 0
 80 -251 75 -250 71 -250 c 0
 67 -250 63 -251 59 -251 c 0
 49 -251 36 -249 36 -239 c 0
EndSplineSet
EndChar

StartChar: asterisk
Encoding: 42 42 51
Width: 636
Flags: HW
TeX: 750 0
ItalicCorrection: 139
HStem: 377 78<219.123 286.447> 573 78<608.026 672.225> 729 20G<483 512>
LayerCount: 2
Fore
SplineSet
208 406 m 0
 208 440 250 453 254 455 c 0
 363 502 376 508 390 513 c 1
 390 514 l 1
 280 575 l 2
 271 580 257 586 257 604 c 0
 257 623 277 651 304 651 c 0
 320 651 321 647 430 560 c 1
 432 574 435 588 455 698 c 0
 456 704 462 749 504 749 c 0
 520 749 533 738 533 722 c 0
 533 715 535 720 484 560 c 1
 636 647 639 651 654 651 c 0
 671 651 683 636 683 621 c 0
 683 587 641 575 636 573 c 0
 528 526 514 519 500 514 c 1
 500 513 l 1
 610 453 l 2
 619 448 633 441 633 423 c 0
 633 404 613 377 586 377 c 0
 570 377 569 380 460 467 c 1
 458 453 456 440 436 330 c 1
 436 330 431 278 387 278 c 0
 371 278 357 289 357 305 c 0
 357 312 356 307 407 467 c 1
 255 380 251 377 236 377 c 0
 219 377 208 391 208 406 c 0
EndSplineSet
EndChar

StartChar: plus
Encoding: 43 43 52
Width: 956
Flags: HW
TeX: 633 133
ItalicCorrection: 30
HStem: 212 75<160.012 491 587 917.785>
VStem: 416 77<-128.008 -10.4561>
DStem2: 404.726 -133 481.726 -133 0.242599 0.970127<115.55 355.624 451.673 768.544>
LayerCount: 2
Fore
SplineSet
156 250 m 0
 156 265 163 287 205 287 c 2
 510 287 l 1
 517 317 524 346 583 582 c 0
 586 594 591 633 625 633 c 0
 644 633 663 617 663 595 c 0
 663 587 660 577 659 572 c 2
 587 287 l 1
 875 287 l 2
 914 287 921 265 921 250 c 0
 921 235 914 212 873 212 c 2
 568 212 l 1
 554 152 561 182 493 -89 c 0
 491 -95 488 -131 454 -133 c 1
 433 -133 416 -118 416 -96 c 0
 416 -78 469 117 491 212 c 1
 202 212 l 2
 166 212 156 235 156 250 c 0
EndSplineSet
EndChar

StartChar: comma
Encoding: 44 44 53
Width: 381
Flags: HW
TeX: 125 194
HStem: -192 317
VStem: 141 131<13.0207 99.6043>
LayerCount: 2
Fore
SplineSet
93 -146 m 0
 93 -130 159 -99 189 0 c 1
 159 4 141 20 141 49 c 0
 141 88 176 125 217 125 c 0
 239 125 272 113 272 54 c 0
 272 -72 151 -192 131 -192 c 0
 119 -192 93 -154 93 -146 c 0
EndSplineSet
EndChar

StartChar: hyphen
Encoding: 45 45 54
Width: 444
Flags: HW
TeX: 472 0
ItalicCorrection: 27
HStem: 193 86<110.331 403.183>
VStem: 97 316<196.466 266.557>
LayerCount: 2
Fore
SplineSet
97 215 m 0
 97 220 105 258 110 267 c 0
 117 279 128 279 136 279 c 2
 385 279 l 2
 405 279 413 270 413 257 c 0
 413 251 411 248 406 226 c 0
 402 207 400 193 373 193 c 2
 126 193 l 2
 111 193 97 198 97 215 c 0
EndSplineSet
EndChar

StartChar: period
Encoding: 46 46 55
Width: 381
Flags: HW
TeX: 125 0
HStem: 0 125<167.286 243.317>
VStem: 142 127<25.6884 100.059>
LayerCount: 2
Fore
SplineSet
142 51 m 0
 142 87 177 125 218 125 c 0
 249 125 269 103 269 75 c 0
 269 39 233 0 193 0 c 0
 162 0 142 23 142 51 c 0
EndSplineSet
EndChar

StartChar: slash
Encoding: 47 47 56
Width: 636
Flags: HW
TeX: 750 250
ItalicCorrection: 155
HStem: 729 20G<670 690.5>
DStem2: 60 -172 120 -218 0.545811 0.837908<-43.5473 1100.1>
LayerCount: 2
Fore
SplineSet
42 -213 m 0
 42 -197 53 -183 60 -172 c 2
 641 720 l 2
 648 731 659 749 681 749 c 0
 700 749 718 733 718 713 c 0
 718 698 709 687 703 677 c 2
 120 -218 l 2
 112 -230 102 -249 79 -249 c 0
 61 -249 42 -235 42 -213 c 0
EndSplineSet
EndChar

StartChar: zero
Encoding: 48 48 57
Width: 636
Flags: HW
TeX: 694 0
ItalicCorrection: 141
HStem: -11 75<265.546 413.624> 630 76<394.294 547.015>
VStem: 138 92<100.01 318.273> 581 88<387.843 595.293>
LayerCount: 2
Fore
SplineSet
138 171 m 0
 138 242 163 331 167 349 c 0
 205 499 279 706 493 706 c 0
 580 706 669 669 669 521 c 0
 669 455 650 380 640 342 c 0
 599 179 539 42 394 -0 c 0
 369 -7 342 -11 315 -11 c 0
 228 -11 138 25 138 171 c 0
230 179 m 0
 230 87 283 64 334 64 c 0
 486 64 524 249 555 369 c 0
 577 457 581 489 581 519 c 0
 581 570 566 630 475 630 c 0
 319 630 285 453 255 334 c 0
 232 243 230 210 230 179 c 0
EndSplineSet
Substitution2: "LGC old numerals subtable" zerooldstyle
EndChar

StartChar: one
Encoding: 49 49 58
Width: 636
Flags: HW
TeX: 694 0
ItalicCorrection: 141
HStem: 0 75<156.048 305 394 519.669> 489 87<277.48 376.838> 682 20G<515 531>
DStem2: 286.245 0 375.245 0 0.242599 0.970127<98.9008 549.284>
LayerCount: 2
Fore
SplineSet
149 22 m 1
 149 22 153 64 169 72 c 0
 175 75 181 75 187 75 c 2
 305 75 l 1
 419 533 l 1
 393 517 343 489 290 489 c 0
 271 489 265 497 265 509 c 0
 265 517 268 528 271 538 c 0
 281 577 295 554 355 576 c 0
 412 597 459 639 495 686 c 0
 503 696 508 702 522 702 c 0
 540 702 544 691 544 683 c 0
 544 680 544 675 543 672 c 2
 408 135 l 2
 403 115 399 95 394 75 c 1
 501 75 l 2
 510 75 531 76 531 54 c 0
 531 47 524 20 520 12 c 0
 513 0 502 0 494 0 c 2
 183 0 l 2
 167 0 149 1 149 22 c 1
EndSplineSet
Substitution2: "LGC old numerals subtable" oneoldstyle
EndChar

StartChar: two
Encoding: 50 50 59
Width: 636
Flags: HW
TeX: 694 0
ItalicCorrection: 141
HStem: -11 90<345.732 519.89> 368 76<228.503 309.737> 630 76<366.93 531.615>
VStem: 169 83<444.729 519.69> 346 78<482.033 581.041> 571 92<432.398 591.526> 571 85<128.782 189.829>
LayerCount: 2
Fore
SplineSet
86 2 m 0
 86 26 138 172 291 258 c 0
 404 321 571 354 571 523 c 0
 571 609 506 630 449 630 c 0
 325 630 252 504 252 462 c 0
 252 450 259 444 269 444 c 0
 303 444 346 499 346 531 c 0
 346 548 334 555 334 564 c 0
 334 576 380 611 390 611 c 0
 403 611 424 577 424 544 c 0
 424 483 352 368 253 368 c 0
 205 368 169 401 169 450 c 0
 169 533 283 706 461 706 c 0
 544 706 663 670 663 525 c 0xfc
 663 309 428 253 327 194 c 0
 288 171 262 147 238 123 c 1
 322 116 384 79 458 79 c 0
 504 79 553 113 574 171 c 0
 581 190 586 190 601 190 c 2
 627 190 l 2
 645 190 656 189 656 177 c 0
 656 141 579 -11 443 -11 c 0
 363 -11 270 49 215 49 c 0
 210 49 206 49 201 48 c 0
 174 41 170 1 160 -7 c 0
 154 -11 146 -11 140 -11 c 2xfa
 112 -11 l 2
 98 -11 86 -11 86 2 c 0
EndSplineSet
Substitution2: "LGC old numerals subtable" twooldstyle
EndChar

StartChar: three
Encoding: 51 51 60
Width: 636
Flags: HW
TeX: 694 0
ItalicCorrection: 141
HStem: -11 75<224.258 415.208> 323 76<343.19 474.477> 445 76<285.5 346.346> 630 76<374.074 563.078>
VStem: 113 86<88.3774 177.647> 227 83<498.003 577.186> 347 79<522.08 581.119> 500 92<145.311 298.288> 588 87<474.4 606.758>
LayerCount: 2
Fore
SplineSet
113 125 m 0
 113 189 150 206 175 206 c 0
 196 206 216 191 216 167 c 0
 216 141 199 133 199 119 c 0
 199 108 220 64 304 64 c 0
 455 64 500 147 500 236 c 0
 500 323 426 323 386 323 c 2xff
 348 323 l 2
 339 323 326 324 328 341 c 0
 328 342 336 385 343 393 c 0
 347 397 355 399 368 399 c 2
 392 399 l 2
 444 399 499 400 541 441 c 0
 573 472 588 520 588 554 c 0
 588 600 559 630 478 630 c 0
 362 630 310 568 310 536 c 0
 310 528 316 521 325 521 c 0
 336 521 347 528 347 538 c 0
 347 549 334 556 334 564 c 0
 334 574 380 611 391 611 c 0
 403 611 426 583 426 549 c 0
 426 492 366 445 308 445 c 0
 263 445 227 475 227 522 c 0
 227 612 340 706 491 706 c 0
 593 706 675 660 675 560 c 0xfe80
 675 485 629 402 544 357 c 1
 571 330 592 297 592 237 c 0
 592 67 441 -11 290 -11 c 0
 183 -11 113 45 113 125 c 0
EndSplineSet
Substitution2: "LGC old numerals subtable" threeoldstyle
EndChar

StartChar: four
Encoding: 52 52 61
Width: 636
Flags: HW
TeX: 694 194
ItalicCorrection: 141
HStem: -37 78<466 570.972> 18 75<223 317.507> 685 20G<511.5 531.5>
VStem: 331 76<-190.112 -116.223> 428 80<151.892 244.009>
LayerCount: 2
Fore
SplineSet
60 48 m 0
 60 72 91 61 198 167 c 0
 416 383 463 653 476 677 c 0
 484 692 501 705 522 705 c 0
 541 705 558 693 558 671 c 0
 558 654 490 335 223 93 c 1x78
 286 93 333 74 383 57 c 1
 388 80 420 212 428 225 c 0
 437 239 455 250 472 250 c 0
 492 250 508 236 508 215 c 0
 508 207 510 214 466 39 c 1
 475 38 483 38 492 38 c 0
 522 38 535 41 544 41 c 0xb8
 561 41 584 1 584 -5 c 0
 584 -16 570 -19 563 -21 c 0
 543 -27 505 -37 470 -37 c 2
 447 -37 l 1xb8
 422 -153 412 -169 407 -175 c 0
 398 -186 382 -194 367 -194 c 0
 347 -194 331 -180 331 -159 c 0
 331 -152 333 -148 365 -18 c 1
 300 0 274 18 200 18 c 0
 102 18 112 2 99 2 c 0
 83 2 60 41 60 48 c 0
EndSplineSet
Substitution2: "LGC old numerals subtable" fouroldstyle
EndChar

StartChar: five
Encoding: 53 53 62
Width: 636
Flags: HW
TeX: 694 0
ItalicCorrection: 141
HStem: -11 69<234.884 402.729> 365 75<332.854 490.146> 588 83<352.225 587.893> 684 20G<302.5 315.5 658 667>
VStem: 122 106<121.04 186.805> 515 94<181.038 340.425>
DStem2: 118.475 -11 203.471 -11 0.242599 0.970127<451.491 646.03>
LayerCount: 2
Fore
SplineSet
122 123 m 0
 122 187 160 205 186 205 c 0
 211 205 228 189 228 166 c 0
 228 145 216 131 205 120 c 1
 218 78 260 58 309 58 c 0
 483 58 515 222 515 281 c 0
 515 348 469 365 424 365 c 0
 377 365 329 350 290 314 c 0
 274 300 272 293 251 293 c 2
 230 293 l 2
 216 293 201 294 201 314 c 0
 201 324 205 336 207 343 c 2
 290 674 l 2
 295 693 297 704 308 704 c 0
 323 704 370 671 476 671 c 0
 580 671 653 704 663 704 c 0
 671 704 674 699 674 691 c 1
 674 691 665 644 659 636 c 0
 649 623 533 588 428 588 c 0
 404 588 379 589 355 594 c 1
 308 407 l 1
 345 426 384 440 438 440 c 0
 545 440 609 379 609 280 c 0
 609 141 498 -11 299 -11 c 0
 196 -11 122 42 122 123 c 0
EndSplineSet
Substitution2: "LGC old numerals subtable" fiveoldstyle
EndChar

StartChar: six
Encoding: 54 54 63
Width: 636
Flags: HW
TeX: 694 0
ItalicCorrection: 141
HStem: -11 69<262.687 420.411> 396 76<377.563 502.448> 642 64<449.114 590.689>
VStem: 141 88<92.8315 278.24> 532 94<199.517 368.497> 576 102<555.25 618.391>
LayerCount: 2
Fore
SplineSet
141 185 m 0
 141 252 163 360 192 432 c 0
 277 642 442 706 553 706 c 0
 620 706 678 680 678 615 c 0
 678 557 641 539 616 539 c 0
 594 539 576 553 576 577 c 0xf4
 576 593 582 606 593 619 c 1
 582 635 569 642 540 642 c 0
 486 642 338 618 269 383 c 1
 321 431 398 472 484 472 c 0
 605 472 626 366 626 317 c 0
 626 284 612 191 571 127 c 0
 541 80 481 25 415 3 c 0
 384 -7 352 -11 319 -11 c 0
 236 -11 141 28 141 185 c 0
229 176 m 0
 229 111 250 58 332 58 c 0
 484 58 511 199 520 236 c 0
 530 278 532 293 532 307 c 0
 532 353 510 396 429 396 c 0xf8
 340 396 229 326 229 176 c 0
EndSplineSet
Substitution2: "LGC old numerals subtable" sixoldstyle
EndChar

StartChar: seven
Encoding: 55 55 64
Width: 636
Flags: HW
TeX: 694 0
ItalicCorrection: 141
HStem: -11 21G<371 407.5> 546 75<532.697 580.236> 615 91<359.959 480.237>
VStem: 342 103<7.66992 106.552>
LayerCount: 2
Fore
SplineSet
142 474 m 0
 142 481 142 479 248 684 c 0
 257 701 260 706 277 706 c 0xb0
 286 706 295 706 304 706 c 0
 326 706 334 703 334 693 c 0
 334 685 328 676 324 669 c 1
 353 684 404 706 455 706 c 0xb0
 525 706 516 621 569 621 c 0xd0
 592 621 635 635 683 690 c 0
 692 700 695 706 713 706 c 2
 747 706 l 2xb0
 758 706 769 705 769 694 c 0
 769 686 760 675 754 668 c 0
 599 465 498 254 445 61 c 0
 440 44 433 -11 382 -11 c 0
 360 -11 342 4 342 26 c 0
 342 47 391 244 536 478 c 1
 581 548 l 1
 573 547 564 546 555 546 c 0xd0
 490 546 492 615 436 615 c 2
 433 615 l 1
 348 611 270 551 230 486 c 0
 216 463 215 461 196 461 c 2
 170 461 l 2
 152 461 142 463 142 474 c 0
EndSplineSet
Substitution2: "LGC old numerals subtable" sevenoldstyle
EndChar

StartChar: eight
Encoding: 56 56 65
Width: 636
Flags: HW
TeX: 694 0
ItalicCorrection: 141
HStem: -11 69<240.879 429.366> 642 64<387.25 559.58>
VStem: 116 88<92.1495 219.855> 238 88<485.039 580.948> 515 92<137.627 249.253> 582 83<503.76 618.69>
DStem2: 436 420 316 379 0.810687 -0.585479<-150.827 -73.2778 81.297 186.015>
LayerCount: 2
Fore
SplineSet
116 133 m 0
 116 230 184 321 316 378 c 1
 316 379 l 1
 294 394 238 428 238 501 c 0
 238 581 313 705 488 706 c 1
 490 706 l 2
 581 706 665 671 665 580 c 0xf4
 665 456 544 394 501 374 c 1
 541 346 607 310 607 222 c 0
 607 133 524 -11 318 -11 c 0
 213 -11 116 28 116 133 c 0
204 146 m 0
 204 82 263 58 329 58 c 0
 469 58 515 148 515 196 c 0xf8
 515 241 478 263 468 270 c 0
 404 315 391 328 379 328 c 0
 367 328 204 271 204 146 c 0
326 531 m 0
 326 491 353 479 436 420 c 1
 481 437 582 480 582 570 c 0
 582 626 529 642 480 642 c 0xf4
 361 642 326 568 326 531 c 0
EndSplineSet
Substitution2: "LGC old numerals subtable" eightoldstyle
EndChar

StartChar: nine
Encoding: 57 57 66
Width: 636
Flags: HW
TeX: 694 0
ItalicCorrection: 141
HStem: -11 69<218.925 372.467> 223 75<305.491 433.114> 642 64<392.654 548.986>
VStem: 130 103<77.6079 139> 183 93<326.471 495.822> 580 88<420.035 610.498>
LayerCount: 2
Fore
SplineSet
130 81 m 0
 130 137 167 155 192 155 c 0
 214 155 233 140 233 117 c 0xf4
 233 101 227 90 217 77 c 1
 236 61 254 58 281 58 c 0
 333 58 469 76 540 312 c 1
 487 263 411 223 324 223 c 0
 202 223 183 330 183 378 c 0xec
 183 424 201 503 227 551 c 0
 262 614 331 669 393 690 c 0
 422 700 455 706 495 706 c 0
 576 706 668 667 668 514 c 0
 668 429 640 326 623 280 c 0
 552 86 410 -11 268 -11 c 0
 198 -11 130 12 130 81 c 0
276 388 m 0
 276 342 298 298 379 298 c 0
 460 298 580 360 580 528 c 0xec
 580 574 572 642 484 642 c 0
 430 642 394 628 358 596 c 0
 316 558 302 518 288 460 c 0
 277 417 276 403 276 388 c 0
EndSplineSet
Substitution2: "LGC old numerals subtable" nineoldstyle
EndChar

StartChar: less
Encoding: 60 60 69
Width: 956
Flags: HW
TeX: 604 104
ItalicCorrection: 87
DStem2: 306 245 221 208 0.85981 -0.510615<0 581.657> 233 295 306 245 0.909489 0.415728<45.6063 768.953>
LayerCount: 2
Fore
SplineSet
188 250 m 0
 188 278 218 288 233 295 c 2
 909 604 l 2
 917 608 925 612 934 612 c 0
 951 612 971 597 971 575 c 0
 971 548 947 539 927 530 c 2
 306 245 l 1
 317 239 328 233 338 227 c 2
 777 -34 l 2
 785 -39 809 -51 809 -75 c 0
 809 -94 793 -112 771 -112 c 0
 760 -112 751 -106 743 -102 c 2
 221 208 l 2
 209 215 188 226 188 250 c 0
EndSplineSet
EndChar

StartChar: equal
Encoding: 61 61 70
Width: 956
Flags: HW
TeX: 398 -101
ItalicCorrection: 67
HStem: 94 75<130.965 888.422> 330 76<190.174 947.52>
LayerCount: 2
Fore
SplineSet
127 131 m 0
 127 149 141 166 160 168 c 0
 168 169 178 169 186 169 c 2
 846 169 l 2
 888 169 892 141 892 131 c 0
 892 116 885 94 844 94 c 2
 175 94 l 2
 134 94 127 116 127 131 c 0
187 368 m 0
 187 380 191 406 234 406 c 2
 905 406 l 2
 947 406 951 378 951 368 c 0
 951 357 946 330 904 330 c 2
 234 330 l 2
 193 330 187 353 187 368 c 0
EndSplineSet
EndChar

StartChar: greater
Encoding: 62 62 71
Width: 956
Flags: HW
TeX: 604 104
DStem2: 335 602 301 534 0.859086 -0.511831<-28.7288 553.538> 772 254 170 -105 0.90898 0.41684<-723.018 0>
LayerCount: 2
Fore
SplineSet
108 -75 m 0
 108 -48 132 -39 151 -30 c 2
 772 254 l 1
 747 268 723 283 698 298 c 2
 301 534 l 2
 293 539 270 550 270 574 c 0
 270 593 285 612 307 612 c 0
 318 612 327 606 335 602 c 2
 857 291 l 2
 869 284 890 274 890 250 c 0
 890 222 861 212 846 205 c 2
 170 -105 l 2
 162 -109 153 -112 144 -112 c 0
 122 -112 108 -92 108 -75 c 0
EndSplineSet
EndChar

StartChar: question
Encoding: 63 63 72
Width: 636
Flags: HW
TeX: 694 0
ItalicCorrection: 109
HStem: 0 125<294.306 373.514> 207 76<348.5 442.819> 630 76<387.453 549.852>
VStem: 224 99<485.881 573.331> 270 127<24.3021 100.977> 296 82<261.5 328.697> 568 81<517.208 612.201>
LayerCount: 2
Fore
SplineSet
224 511 m 0xf2
 224 577 327 706 493 706 c 0
 584 706 649 663 649 580 c 0
 649 513 610 460 563 427 c 0
 531 404 407 339 393 327 c 0
 381 317 378 305 378 297 c 0xe6
 378 286 385 283 395 283 c 0
 411 283 434 293 445 306 c 0
 457 320 452 327 475 327 c 2
 500 327 l 1
 501 326 l 1
 503 326 506 327 509 327 c 0
 520 327 531 325 531 313 c 0
 531 277 467 207 375 207 c 0
 322 207 296 240 296 283 c 0xe6
 296 297 299 354 354 395 c 0
 432 453 568 488 568 568 c 0
 568 593 553 630 478 630 c 0
 390 630 325 572 322 551 c 0
 321 545 323 539 323 531 c 0
 323 499 295 472 265 472 c 0
 243 472 224 487 224 511 c 0xf2
270 52 m 0
 270 93 310 125 344 125 c 0
 373 125 397 104 397 73 c 0xea
 397 37 363 0 323 0 c 0xf2
 291 0 270 23 270 52 c 0
EndSplineSet
EndChar

StartChar: at
Encoding: 64 64 73
Width: 956
Flags: HW
TeX: 694 0
ItalicCorrection: 89
HStem: -6 76<367.891 668.498> 120 76<446.906 612.398 717.5 813.816> 499 75<519.511 681.713> 625 75<501.791 760.064>
VStem: 169 79<175.331 380.364> 326 84<231.224 384.458> 721 100<367.025 461.594> 880 79<313.342 516.292>
LayerCount: 2
Fore
SplineSet
169 254 m 0
 169 455 336 700 651 700 c 0
 829 700 959 614 959 440 c 0
 959 291 863 120 743 120 c 0
 692 120 681 163 679 173 c 1
 629 141 580 120 510 120 c 0
 400 120 326 180 326 285 c 0
 326 411 426 574 618 574 c 0
 704 574 767 538 790 472 c 1
 796 472 l 2
 814 472 821 470 821 459 c 0
 821 455 821 450 819 444 c 0
 763 219 762 217 762 214 c 0
 762 203 770 196 780 196 c 0
 843 196 880 358 880 424 c 0
 880 560 779 625 634 625 c 2
 632 625 l 1
 374 622 248 421 248 270 c 0
 248 190 285 70 499 70 c 0
 670 70 787 106 824 106 c 2
 861 106 l 2
 876 106 882 101 882 95 c 0
 882 91 879 86 873 83 c 0
 850 70 675 -6 484 -6 c 0
 221 -6 169 150 169 254 c 0
410 298 m 0
 410 216 474 196 523 196 c 0
 631 196 686 274 702 314 c 0
 706 325 721 376 721 397 c 0
 721 460 677 499 605 499 c 0
 474 499 410 381 410 298 c 0
EndSplineSet
EndChar

StartChar: A
Encoding: 65 65 74
Width: 908
Flags: HW
TeX: 694 0
HStem: -0 75<83.2734 173.202 264 304.23 611.855 672 771 841.709> 207 75<398 640> 687 20G<604.5 661>
DStem2: 174 77 264 76 0.546013 0.837776<48.3034 218.984 294.051 656.3> 680 676 595 586 0.149708 -0.98873<76.2606 383.571 459.523 593.029>
AnchorPoint: "ogonek" 749 0 basechar 0
AnchorPoint: "below" 453 0 basechar 0
AnchorPoint: "above" 631 706 basechar 0
LayerCount: 2
Fore
SplineSet
76 21 m 1
 76 21 80 61 94 71 c 0
 102 76 113 75 122 75 c 0
 139 75 157 76 174 77 c 1
 567 680 l 2
 583 704 595 707 614 707 c 2
 649 707 l 2
 673 707 677 693 680 676 c 2
 771 75 l 1
 820 75 l 2
 831 75 849 74 849 54 c 1
 849 54 845 10 828 3 c 0
 823 1 817 0 811 -0 c 2
 635 -0 l 2
 625 0 605 0 605 21 c 1
 605 21 609 64 624 72 c 0
 630 75 637 75 644 75 c 2
 672 75 l 1
 652 207 l 1
 362 207 l 1
 345 206 353 212 264 76 c 1
 288 75 311 78 311 54 c 0
 311 46 308 37 306 28 c 0
 301 5 293 1 276 -0 c 1
 105 -0 l 2
 91 0 76 3 76 21 c 1
398 282 m 1
 640 282 l 1
 595 586 l 1
 398 282 l 1
EndSplineSet
EndChar

StartChar: B
Encoding: 66 66 75
Width: 868
Flags: HW
TeX: 694 0
ItalicCorrection: 98
HStem: -0 75<119.867 203 294 627.085> 323 76<375 678.008> 619 75<278.283 339 429 745.066>
VStem: 732 93<154.742 279.125> 783 91<478.673 584.976>
DStem2: 184.245 -0 275.245 -0 0.242599 0.970127<99.386 354.776 433.358 638.052>
AnchorPoint: "below" 412 0 basechar 0
AnchorPoint: "above" 588 706 basechar 0
LayerCount: 2
Fore
SplineSet
113 22 m 1
 113 22 117 64 132 72 c 0
 139 76 149 75 157 75 c 2
 203 75 l 1
 339 619 l 1
 299 619 l 2
 287 619 268 619 268 640 c 0
 268 646 274 672 278 680 c 0
 284 692 293 694 306 694 c 2
 640 694 l 2
 734 694 823 681 860 612 c 0
 870 594 874 573 874 552 c 0xe8
 874 483 824 415 730 379 c 0
 713 373 696 368 679 363 c 1
 747 352 825 316 825 228 c 0
 825 170 768 0 512 -0 c 2
 141 -0 l 2
 127 0 113 4 113 22 c 1
294 75 m 1
 493 75 l 1
 547 77 595 77 652 106 c 0
 703 132 732 174 732 219 c 0xf0
 732 280 685 313 618 321 c 0
 601 323 584 323 567 323 c 2
 355 323 l 1
 294 75 l 1
375 399 m 1
 542 399 l 2
 595 399 685 403 743 457 c 0
 764 477 783 505 783 535 c 0xe8
 783 569 762 619 633 619 c 2
 429 619 l 1
 375 399 l 1
EndSplineSet
EndChar

StartChar: C
Encoding: 67 67 76
Width: 892
Flags: HW
TeX: 694 0
ItalicCorrection: 141
HStem: -11 75<385.318 614.464> 435 271<650 856 884 950> 630 76<523.07 753.177>
VStem: 168 96<168.354 374.878> 825 85<435.134 539.382>
AnchorPoint: "below" 480 0 basechar 0
AnchorPoint: "above" 650 706 basechar 0
LayerCount: 2
Fore
SplineSet
168 252 m 0
 168 452 335 706 650 706 c 0
 743 706 815 671 860 618 c 1
 861 618 l 1
 934 704 931 706 950 706 c 0
 963 706 968 700 968 691 c 0
 968 686 911 457 910 454 c 0
 905 436 897 435 884 435 c 2xd8
 856 435 l 2xd8
 828 435 825 437 825 453 c 2
 825 473 l 2
 825 556 774 630 665 630 c 0xb8
 527 630 343 573 280 362 c 0
 270 330 264 296 264 262 c 0
 264 104 400 64 519 64 c 0
 633 64 735 132 769 222 c 0
 778 246 773 247 810 247 c 2
 824 247 l 2
 845 247 853 245 853 234 c 0
 853 229 852 222 849 213 c 0
 804 80 642 -11 477 -11 c 0
 305 -11 168 71 168 252 c 0
EndSplineSet
EndChar

StartChar: D
Encoding: 68 68 77
Width: 932
Flags: HW
TeX: 694 0
ItalicCorrection: 89
HStem: -0 75<121.286 201 295 614.699> 619 75<272.68 337 430 740.848>
VStem: 841 94<319.723 528.817>
DStem2: 182.245 -0 276.245 -0 0.242599 0.970127<100.114 638.052>
AnchorPoint: "below" 443 0 basechar 0
AnchorPoint: "above" 620 706 basechar 0
LayerCount: 2
Fore
SplineSet
111 21 m 0
 111 29 119 57 121 61 c 0
 127 74 139 75 151 75 c 2
 201 75 l 1
 337 619 l 1
 295 619 l 2
 273 619 266 628 266 640 c 0
 266 648 269 658 271 667 c 0
 277 692 284 695 311 695 c 0
 317 695 324 694 330 694 c 2
 635 694 l 2
 639 694 646 695 654 695 c 0
 859 695 935 577 935 445 c 0
 935 275 818 45 557 5 c 0
 528 0 496 0 464 -0 c 2
 139 -0 l 2
 126 0 111 2 111 21 c 0
295 75 m 1
 467 75 l 2
 535 75 764 77 830 345 c 0
 836 371 841 402 841 433 c 0
 841 459 841 535 770 582 c 0
 722 614 664 619 605 619 c 2
 430 619 l 1
 295 75 l 1
EndSplineSet
EndChar

StartChar: E
Encoding: 69 69 78
Width: 794
Flags: HW
TeX: 694 0
ItalicCorrection: 116
HStem: -0 75<117.169 200 296 641.525> 321 76<376 517.19> 617 75<274.285 336 432 745.762>
VStem: 537 102<400.986 471.561> 747 94<486.994 612.861>
DStem2: 181.245 -0 277.245 -0 0.242599 0.970127<100.599 354.291 432.388 636.112>
AnchorPoint: "ogonek" 417 0 basechar 0
AnchorPoint: "below" 417 0 basechar 0
AnchorPoint: "above" 593 706 basechar 0
LayerCount: 2
Fore
SplineSet
110 21 m 1
 110 21 114 63 129 72 c 0
 136 76 146 75 154 75 c 2
 200 75 l 1
 336 617 l 1
 295 617 l 2
 283 617 264 617 264 638 c 0
 264 644 270 670 274 678 c 0
 280 691 291 692 302 692 c 2
 811 692 l 2
 826 692 841 690 841 668 c 0
 841 661 827 548 820 488 c 0
 817 462 805 461 787 461 c 2
 768 461 l 2
 745 461 739 469 739 486 c 0
 739 507 747 541 747 591 c 2
 747 610 l 1
 721 615 668 617 616 617 c 2
 432 617 l 1
 431 616 l 1
 376 397 l 1
 446 397 l 2
 476 397 507 397 537 400 c 1
 563 469 551 490 589 490 c 2
 609 490 l 2
 621 490 639 488 639 469 c 0
 639 460 640 467 590 268 c 0
 582 240 583 228 552 228 c 2
 536 228 l 2
 512 228 505 235 505 249 c 0
 505 264 512 287 518 319 c 1
 490 321 461 321 433 321 c 2
 358 321 l 1
 296 75 l 1
 452 75 l 2
 635 75 632 81 643 99 c 0
 662 128 688 191 706 234 c 0
 713 249 718 256 739 256 c 2
 758 256 l 2
 773 256 789 255 789 237 c 0
 789 229 790 233 701 22 c 0
 693 4 687 0 669 -0 c 2
 138 -0 l 2
 128 0 110 1 110 21 c 1
EndSplineSet
EndChar

StartChar: F
Encoding: 70 70 79
Width: 762
Flags: HW
TeX: 694 0
ItalicCorrection: 132
HStem: -0 75<118.146 201 297 377.714> 308 75<374 508.312> 457 20G<560 608.5> 617 75<272.873 337 433 728.746>
VStem: 732 94<484.205 678.5>
DStem2: 182.245 -0 278.245 -0 0.242599 0.970127<100.599 340.709 418.078 636.112>
AnchorPoint: "below" 394 0 basechar 0
AnchorPoint: "above" 570 706 basechar 0
LayerCount: 2
Fore
SplineSet
111 21 m 1
 111 21 115 63 130 72 c 0
 137 76 147 75 155 75 c 2
 201 75 l 1
 337 617 l 1
 294 617 l 2
 283 617 265 617 265 638 c 1
 265 638 270 680 285 688 c 0
 290 691 297 692 303 692 c 2
 798 692 l 2
 811 692 826 689 826 668 c 0
 826 662 812 548 805 488 c 0
 802 465 793 461 773 461 c 2
 752 461 l 2
 736 461 723 466 723 485 c 0
 723 494 732 554 732 587 c 0
 732 598 732 607 729 609 c 0
 724 614 693 617 551 617 c 2
 433 617 l 1
 432 616 l 1
 374 383 l 1
 444 383 l 2
 472 383 500 384 528 387 c 1
 555 451 540 477 580 477 c 2
 600 477 l 2
 617 477 630 472 630 456 c 0
 630 447 631 454 581 254 c 0
 573 223 573 215 543 215 c 2
 527 215 l 2
 504 215 496 221 496 235 c 0
 496 250 505 274 509 306 c 1
 483 308 456 308 430 308 c 2
 355 308 l 1
 297 75 l 1
 359 75 l 2
 368 75 388 75 388 54 c 0
 388 48 382 21 378 13 c 0
 372 0 360 0 351 -0 c 2
 139 -0 l 2
 127 0 111 2 111 21 c 1
EndSplineSet
EndChar

StartChar: G
Encoding: 71 71 80
Width: 960
Flags: HW
TeX: 694 0
ItalicCorrection: 73
HStem: -11 75<388.115 695.004> 216 75<624.624 754 850 935.235> 435 271<649 845 884 949> 630 76<525.428 752.244>
VStem: 168 96<169.115 379.619> 824 85<435.039 538.596>
DStem2: 695.991 -11 793.234 -11 0.242599 0.970127<95.809 234.292>
AnchorPoint: "below" 484 0 basechar 0
AnchorPoint: "above" 649 706 basechar 0
LayerCount: 2
Fore
SplineSet
168 252 m 0
 168 465 346 706 649 706 c 0
 775 706 836 645 859 618 c 1
 860 618 l 1
 933 704 930 706 949 706 c 0
 962 706 968 700 968 691 c 0
 968 686 910 457 909 454 c 0
 904 436 898 435 884 435 c 0xec
 871 435 858 435 845 435 c 0xec
 827 435 824 441 824 452 c 2
 824 473 l 2
 824 562 768 630 667 630 c 0xdc
 377 630 264 415 264 262 c 0
 264 104 392 64 534 64 c 0
 625 64 705 69 728 117 c 0
 734 128 745 183 754 216 c 1
 646 216 l 2
 637 216 617 216 617 237 c 0
 617 244 619 252 621 258 c 0
 630 291 635 291 659 291 c 2
 916 291 l 1
 938 290 942 279 942 270 c 1
 942 270 938 227 923 219 c 0
 915 215 905 216 897 216 c 2
 850 216 l 1
 800 18 l 2
 797 7 792 2 787 2 c 0
 777 2 764 17 752 35 c 1
 686 -5 600 -11 485 -11 c 2
 478 -11 l 2
 243 -11 168 125 168 252 c 0
EndSplineSet
EndChar

StartChar: H
Encoding: 72 72 81
Width: 950
Flags: HW
TeX: 694 0
ItalicCorrection: 130
HStem: -0 75<118.237 201 297 361.854 606.237 690 786 849.764> 323 76<378 752> 619 75<272.765 337 433 515.763 760.765 826 921 1003.76>
DStem2: 182.245 -0 278.245 -0 0.242599 0.970127<100.599 356.232 434.571 638.052> 671.245 -0 767.245 -0 0.242599 0.970127<100.599 332.942 411.038 638.052>
AnchorPoint: "below" 474 0 basechar 0
AnchorPoint: "above" 651 706 basechar 0
LayerCount: 2
Fore
SplineSet
111 21 m 1
 111 21 115 61 129 71 c 0
 136 76 146 75 154 75 c 2
 201 75 l 1
 337 619 l 1
 295 619 l 2
 284 619 266 620 266 641 c 1
 266 641 270 683 285 691 c 0
 290 694 297 694 303 694 c 2
 495 694 l 2
 504 694 523 694 523 673 c 1
 523 673 519 633 505 623 c 0
 498 618 488 619 480 619 c 2
 433 619 l 1
 378 399 l 1
 770 399 l 1
 826 619 l 1
 784 619 l 2
 773 619 754 620 754 641 c 1
 754 641 758 683 773 691 c 0
 778 694 786 694 792 694 c 2
 983 694 l 2
 992 694 1011 694 1011 673 c 1
 1011 673 1007 633 993 623 c 0
 986 618 976 619 968 619 c 2
 921 619 l 1
 786 75 l 1
 800 75 814 75 828 75 c 0
 839 75 857 75 857 54 c 1
 857 54 853 12 838 4 c 0
 832 1 826 0 819 -0 c 2
 628 -0 l 2
 613 0 599 3 599 21 c 1
 599 21 603 61 617 71 c 0
 624 76 635 75 643 75 c 2
 690 75 l 1
 752 323 l 1
 359 323 l 1
 297 75 l 1
 339 75 l 2
 350 75 369 75 369 54 c 1
 369 54 365 12 350 4 c 0
 344 1 338 0 331 -0 c 2
 140 -0 l 2
 125 0 111 3 111 21 c 1
EndSplineSet
EndChar

StartChar: I
Encoding: 73 73 82
Width: 461
Flags: HW
TeX: 694 0
ItalicCorrection: 157
HStem: -0 75<114.237 201 297 365.235> 619 75<268.765 337 433 519.763>
DStem2: 182.245 -0 278.245 -0 0.242599 0.970127<100.599 638.052>
AnchorPoint: "ogonek" 230 0 basechar 0
AnchorPoint: "below" 230 0 basechar 0
AnchorPoint: "above" 407 706 basechar 0
LayerCount: 2
Fore
SplineSet
107 21 m 1
 107 21 111 61 125 71 c 0
 133 76 142 75 151 75 c 2
 201 75 l 1
 337 619 l 1
 291 619 l 2
 280 619 262 620 262 640 c 1
 262 640 266 683 281 691 c 0
 287 694 294 694 300 694 c 2
 499 694 l 2
 508 694 527 693 527 673 c 1
 527 673 523 633 509 623 c 0
 501 618 492 619 483 619 c 2
 433 619 l 1
 297 75 l 1
 343 75 l 2
 354 75 372 74 372 54 c 1
 372 54 368 11 353 3 c 0
 347 0 341 0 335 -0 c 2
 136 -0 l 2
 125 0 107 1 107 21 c 1
EndSplineSet
EndChar

StartChar: J
Encoding: 74 74 83
Width: 644
Flags: HW
TeX: 694 0
ItalicCorrection: 111
HStem: -11 75<220.689 373.877> 619 75<454.285 539 632 695.854>
VStem: 126 110<83.7031 150.129>
DStem2: 381.236 -11 474.237 -11 0.242599 0.970127<101.759 649.453>
AnchorPoint: "below" 318 0 basechar 0
AnchorPoint: "above" 606 706 basechar 0
LayerCount: 2
Fore
SplineSet
126 94 m 0
 126 148 164 168 190 168 c 0
 216 168 236 151 236 126 c 0
 236 113 230 98 219 83 c 1
 232 75 250 64 296 64 c 0
 416 64 425 166 431 188 c 2
 528 574 l 2
 532 589 535 604 539 619 c 1
 473 619 l 2
 464 619 444 619 444 640 c 0
 444 646 450 672 454 680 c 0
 460 693 471 694 482 694 c 2
 674 694 l 2
 684 694 703 694 703 673 c 1
 703 673 699 631 684 623 c 0
 678 619 670 619 663 619 c 2
 632 619 l 1
 620 570 l 1
 521 176 l 2
 511 134 502 85 446 40 c 0
 402 4 345 -11 289 -11 c 0
 190 -11 126 31 126 94 c 0
EndSplineSet
EndChar

StartChar: K
Encoding: 75 75 84
Width: 940
Flags: HW
TeX: 694 0
ItalicCorrection: 141
HStem: -0 75<120.237 203 295 358.854 655.019 686 792 866.934> 619 75<274.765 339 430 513.208 868.406 1001.67>
DStem2: 184.245 -0 276.245 -0 0.242599 0.970127<99.6286 268.913 353.078 638.052> 356 321 353 235 0.816362 0.577541<0 160.967 253.381 518.006> 602 412 527 358 0.492228 -0.870466<10.0881 334.694>
AnchorPoint: "below" 484 0 basechar 0
AnchorPoint: "above" 661 706 basechar 0
LayerCount: 2
Fore
SplineSet
113 21 m 1
 113 21 117 61 131 71 c 0
 138 76 148 75 156 75 c 2
 203 75 l 1
 339 619 l 1
 297 619 l 2
 286 619 268 620 268 641 c 1
 268 641 272 683 287 691 c 0
 292 694 299 694 305 694 c 2
 492 694 l 2
 513 694 520 687 520 673 c 1
 520 673 517 633 502 623 c 0
 495 618 485 619 477 619 c 2
 430 619 l 1
 356 321 l 1
 779 620 l 1
 770 627 767 634 767 641 c 0
 767 648 769 657 772 667 c 0
 779 693 790 694 804 694 c 2
 985 694 l 2
 997 694 1013 692 1013 673 c 0
 1013 666 1006 639 1002 631 c 0
 995 619 985 619 978 619 c 2
 964 619 l 2
 901 619 895 618 876 605 c 2
 633 433 l 1
 602 412 l 1
 792 76 l 1
 830 76 l 2
 856 76 874 75 874 54 c 0
 874 46 871 35 869 28 c 0
 864 10 861 0 837 -0 c 2
 676 -0 l 2
 654 0 648 9 648 21 c 0
 648 29 651 38 653 47 c 0
 659 70 664 75 686 75 c 1
 527 358 l 1
 509 346 492 333 353 235 c 0
 330 219 332 236 295 75 c 1
 336 75 l 2
 347 75 366 75 366 54 c 1
 366 54 362 12 347 4 c 0
 341 1 335 0 328 -0 c 2
 142 -0 l 2
 132 0 113 0 113 21 c 1
EndSplineSet
EndChar

StartChar: L
Encoding: 76 76 85
Width: 731
Flags: HW
TeX: 694 0
HStem: -0 75<117.59 200 296 569.583> 619 75<271.765 336 432 534.41>
DStem2: 181.245 -0 277.245 -0 0.242599 0.970127<100.599 638.052>
AnchorPoint: "below" 377 0 basechar 0
AnchorPoint: "above" 554 706 basechar 0
LayerCount: 2
Fore
SplineSet
110 21 m 1
 110 21 115 62 129 71 c 0
 136 76 146 75 154 75 c 2
 200 75 l 1
 336 619 l 1
 294 619 l 2
 283 619 265 620 265 640 c 1
 265 640 269 683 284 691 c 0
 289 694 296 694 302 694 c 2
 513 694 l 2
 523 694 542 693 542 673 c 1
 542 673 537 632 523 623 c 0
 518 620 513 619 507 619 c 2
 432 619 l 1
 296 75 l 1
 416 75 l 2
 568 75 563 77 585 128 c 0
 636 244 621 257 660 257 c 2
 682 257 l 2
 692 257 709 255 709 236 c 0
 709 227 710 233 634 24 c 0
 627 5 621 0 601 -0 c 2
 138 -0 l 2
 122 0 110 4 110 21 c 1
EndSplineSet
EndChar

StartChar: M
Encoding: 77 77 86
Width: 1142
Flags: HW
TeX: 694 0
ItalicCorrection: 130
HStem: 0 75<124.237 208 288 352.158 804.597 887 970 1034.58> 619 75<278.933 343 1106 1189.02>
DStem2: 188.745 -0 268.995 -0 0.242599 0.970127<97.8089 637.931> 487 661 420 600 0.181162 -0.983453<47.8528 579.59> 592 91 624 27 0.564789 0.825235<0 666.986> 868.245 -0 951.245 -0 0.242599 0.970127<97.4452 625.683>
AnchorPoint: "below" 570 0 basechar 0
AnchorPoint: "above" 746 706 basechar 0
LayerCount: 2
Fore
SplineSet
117 21 m 1
 117 21 121 61 135 71 c 0
 143 76 152 75 161 75 c 0
 177 75 193 76 208 77 c 1
 343 619 l 1
 301 619 l 2
 290 619 272 620 272 640 c 1
 272 640 276 680 289 690 c 0
 295 694 302 694 309 694 c 2
 450 694 l 2
 472 694 482 691 487 661 c 2
 582 145 l 2
 585 127 589 109 592 91 c 1
 978 655 l 2
 996 681 1002 695 1035 695 c 0
 1040 695 1045 694 1049 694 c 2
 1168 694 l 2
 1183 694 1196 690 1196 673 c 1
 1196 673 1192 630 1177 622 c 0
 1170 618 1160 619 1152 619 c 2
 1106 619 l 1
 970 75 l 1
 1010 75 l 2
 1023 75 1041 75 1041 54 c 1
 1041 54 1038 12 1023 4 c 0
 1017 1 1010 0 1003 -0 c 2
 827 -0 l 2
 816 0 797 0 797 21 c 1
 797 21 802 62 816 71 c 0
 823 76 833 75 841 75 c 2
 887 75 l 1
 1020 607 l 1
 1019 607 l 1
 1006 586 992 565 978 545 c 2
 624 27 l 2
 607 2 594 0 575 -0 c 2
 559 -0 l 2
 527 0 528 15 523 40 c 2
 431 541 l 2
 427 561 423 580 420 600 c 1
 419 600 l 1
 288 76 l 1
 302 75 315 75 329 75 c 0
 340 75 359 74 359 54 c 0
 359 49 358 46 354 28 c 0
 348 1 336 0 323 0 c 2
 145 0 l 2
 133 0 117 3 117 21 c 1
EndSplineSet
EndChar

StartChar: N
Encoding: 78 78 87
Width: 950
Flags: HW
TeX: 694 0
ItalicCorrection: 130
HStem: 0 75<120.237 204 284 348.158> 619 75<274.864 339 774.088 838 914.288 1002.51>
DStem2: 184.745 0 264.995 0 0.242599 0.970127<97.8089 603.981> 461 666 407 567 0.453071 -0.891474<63.7901 575.578> 683.739 0 764.248 0 0.242599 0.970127<157.711 636.962>
AnchorPoint: "below" 474 0 basechar 0
AnchorPoint: "above" 651 706 basechar 0
LayerCount: 2
Fore
SplineSet
113 21 m 1
 113 21 117 61 131 71 c 0
 139 76 148 75 157 75 c 0
 173 75 189 76 204 77 c 1
 339 619 l 1
 297 619 l 2
 286 619 268 621 268 641 c 1
 268 641 272 681 286 690 c 0
 291 693 298 694 304 694 c 2
 425 694 l 2
 447 694 450 688 461 666 c 2
 722 153 l 1
 838 618 l 1
 824 619 811 619 797 619 c 0
 786 619 767 620 767 640 c 0
 767 645 768 649 772 666 c 0
 779 692 787 694 803 694 c 2
 981 694 l 2
 995 694 1009 690 1009 673 c 1
 1009 673 1006 633 992 623 c 0
 984 618 974 619 965 619 c 0
 949 619 934 619 919 618 c 1
 915 598 909 578 904 558 c 2
 771 27 l 2
 765 1 754 0 737 0 c 2
 718 0 l 2
 700 0 694 3 685 20 c 2
 407 567 l 1
 284 76 l 1
 298 75 311 75 325 75 c 0
 336 75 355 74 355 54 c 0
 355 49 354 46 350 28 c 0
 344 1 332 0 319 0 c 2
 141 0 l 2
 129 0 113 3 113 21 c 1
EndSplineSet
EndChar

StartChar: O
Encoding: 79 79 88
Width: 914
Flags: HW
TeX: 694 0
ItalicCorrection: 89
HStem: -11 83<368.488 594.173> 625 81<488.527 724.524>
VStem: 166 100<166.605 368.568> 825 93<325.665 533.441>
AnchorPoint: "ogonek" 456 0 basechar 0
AnchorPoint: "below" 456 0 basechar 0
AnchorPoint: "above" 633 706 basechar 0
LayerCount: 2
Fore
SplineSet
166 240 m 0
 166 440 326 706 633 706 c 0
 754 706 918 654 918 449 c 0
 918 242 757 -11 453 -11 c 0
 281 -11 166 76 166 240 c 0
266 263 m 0
 266 111 381 72 474 72 c 0
 728 72 825 311 825 443 c 0
 825 588 709 625 613 625 c 0
 366 625 266 419 266 263 c 0
EndSplineSet
EndChar

StartChar: P
Encoding: 80 80 89
Width: 836
Flags: HW
TeX: 694 0
ItalicCorrection: 98
HStem: -0 75<119.237 202 298 362.854> 272 75<364 663.779> 619 75<273.765 338 431 724.53>
VStem: 771 96<441.133 578.02>
DStem2: 183.245 -0 279.245 -0 0.242599 0.970127<100.599 303.601 380.485 638.052>
AnchorPoint: "below" 396 0 basechar 0
AnchorPoint: "above" 572 706 basechar 0
LayerCount: 2
Fore
SplineSet
112 21 m 1
 112 21 116 61 130 71 c 0
 137 76 147 75 155 75 c 2
 202 75 l 1
 338 619 l 1
 296 619 l 2
 285 619 267 621 267 641 c 1
 267 641 271 682 286 691 c 0
 291 694 298 694 304 694 c 2
 644 694 l 2
 741 694 867 662 867 532 c 0
 867 429 779 296 590 275 c 0
 567 272 543 272 520 272 c 2
 347 272 l 1
 298 75 l 1
 340 75 l 2
 351 75 370 75 370 54 c 1
 370 54 366 12 351 4 c 0
 345 1 339 0 332 -0 c 2
 141 -0 l 2
 131 0 112 0 112 21 c 1
364 347 m 1
 521 347 l 2
 592 347 669 353 721 404 c 0
 748 430 771 472 771 518 c 0
 771 615 667 619 592 619 c 2
 431 619 l 1
 364 347 l 1
EndSplineSet
EndChar

StartChar: Q
Encoding: 81 81 90
Width: 914
Flags: HW
TeX: 694 194
ItalicCorrection: 89
HStem: -194 95<620.368 714.41> -11 81<437.612 533.492> 101 75<437.466 530.201> 625 81<493.654 724.391>
VStem: 166 94<161.5 366.555> 786 37<-39.033 16.6581> 824 94<317.753 530.466>
AnchorPoint: "below" 407 -194 basechar 0
AnchorPoint: "above" 632 706 basechar 0
LayerCount: 2
Fore
SplineSet
166 240 m 0
 166 438 325 706 632 706 c 0
 806 706 918 614 918 449 c 0
 918 300 829 85 599 11 c 1
 604 -52 612 -99 665 -99 c 0
 713 -99 766 -60 786 -6 c 0
 792 11 800 17 807 17 c 0
 816 17 823 7 823 -0 c 0
 823 -31 763 -194 645 -194 c 0
 551 -194 547 -107 547 -2 c 1
 516 -8 485 -11 454 -11 c 0
 284 -11 166 73 166 240 c 0
260 255 m 0
 260 166 302 115 361 90 c 1
 384 160 459 176 495 176 c 0
 551 176 579 143 590 88 c 1
 779 153 824 345 824 435 c 0
 824 587 708 625 613 625 c 0
 365 625 260 401 260 255 c 0
437 79 m 0
 437 71 446 70 473 70 c 0
 494 70 514 71 534 74 c 1
 525 88 514 101 485 101 c 0
 457 101 437 90 437 79 c 0
EndSplineSet
EndChar

StartChar: R
Encoding: 82 82 91
Width: 900
Flags: HW
TeX: 694 0
ItalicCorrection: 18
HStem: -11 75<717.499 800.093> -0 75<119.237 202 296 359.764> 310 75<373 608.724> 619 75<277.332 338 431 708.7>
VStem: 615 97<72.1186 198.543> 644 96<142.825 278.961> 758 97<462.509 578.517>
DStem2: 180.494 -11 274.494 -11 0.242599 0.970127<111.453 353.503 430.872 649.391>
AnchorPoint: "below" 396 0 basechar 0
AnchorPoint: "above" 572 706 basechar 0
LayerCount: 2
Fore
SplineSet
112 21 m 1
 112 21 116 61 130 71 c 0
 137 76 147 75 155 75 c 2
 202 75 l 1
 338 619 l 1
 298 619 l 2
 285 619 267 620 267 641 c 0
 267 647 273 674 277 682 c 0
 284 695 296 694 305 694 c 2
 582 694 l 2
 630 694 672 693 715 682 c 0
 847 648 855 565 855 538 c 0
 855 459 794 385 688 341 c 1
 700 332 740 302 740 245 c 0x76
 740 206 712 134 712 106 c 0
 712 74 743 64 763 64 c 0
 800 64 806 102 816 112 c 0
 821 116 823 118 854 118 c 0
 872 118 889 117 889 99 c 0
 889 74 844 -11 754 -11 c 0
 699 -11 615 10 615 96 c 0xba
 615 134 644 211 644 238 c 0
 644 267 622 310 483 310 c 2
 354 310 l 1
 296 75 l 1x76
 338 75 l 2
 349 75 367 75 367 54 c 1
 367 54 363 12 348 4 c 0
 341 0 333 0 326 -0 c 2
 142 -0 l 2
 131 0 112 0 112 21 c 1
373 385 m 1
 505 385 l 2
 551 385 652 385 709 433 c 0
 736 455 758 489 758 525 c 0x32
 758 616 635 619 562 619 c 2
 431 619 l 1
 373 385 l 1
EndSplineSet
EndChar

StartChar: S
Encoding: 83 83 92
Width: 700
Flags: HW
TeX: 694 0
ItalicCorrection: 109
HStem: -11 242<200 379> -11 75<284.193 484.66> 636 70<382.802 563.1>
VStem: 95 129<-2.5 196.288> 219 88<453.138 563.021> 570 88<143.686 266.772>
AnchorPoint: "below" 382 0 basechar 0
AnchorPoint: "above" 491 706 basechar 0
LayerCount: 2
Fore
SplineSet
95 3 m 0
 95 10 129 140 146 209 c 0
 152 230 157 231 171 231 c 2
 200 231 l 2
 217 231 228 231 228 216 c 0
 228 207 224 195 224 177 c 0xb4
 224 87 318 64 390 64 c 0
 531 64 570 169 570 211 c 0
 570 244 551 276 511 293 c 0
 484 304 358 328 322 341 c 0
 274 359 219 404 219 479 c 0
 219 570 304 706 491 706 c 0
 592 706 635 666 660 637 c 1
 707 703 713 705 722 705 c 2
 724 705 l 2
 736 705 745 703 745 691 c 0
 745 687 694 484 693 482 c 0
 688 465 681 463 669 463 c 2x6c
 641 463 l 2
 616 463 611 467 611 479 c 0
 611 486 613 496 613 510 c 0
 613 570 586 636 478 636 c 0
 361 636 307 557 307 504 c 0
 307 407 460 416 553 382 c 0
 605 362 658 314 658 235 c 0
 658 136 571 -11 379 -11 c 0xac
 252 -11 204 33 179 56 c 1
 133 -11 129 -11 114 -11 c 0x6c
 104 -11 95 -8 95 3 c 0
EndSplineSet
EndChar

StartChar: T
Encoding: 84 84 93
Width: 850
Flags: HW
TeX: 694 0
ItalicCorrection: 132
HStem: 0 75<279.581 395 491 582.667> 613 76<322.992 529 625 831>
VStem: 191 73<458.385 515.625> 816 81<458.524 606.018> 831 95<530.085 611.617>
DStem2: 376.24 -0.0204082 472.24 -0.0204082 0.242599 0.970127<100.62 631.767>
AnchorPoint: "below" 423 0 basechar 0
AnchorPoint: "above" 600 706 basechar 0
LayerCount: 2
Fore
SplineSet
191 478 m 0
 191 486 191 482 253 666 c 0
 259 684 266 689 285 689 c 2
 897 689 l 2xf0
 908 689 926 688 926 666 c 0xe8
 926 660 907 545 897 484 c 0
 893 459 881 458 864 458 c 2xf0
 845 458 l 2
 823 458 816 465 816 482 c 0xf0
 816 505 828 545 831 609 c 1xe8
 800 614 768 613 736 613 c 2
 625 613 l 1
 491 75 l 1
 569 75 l 2
 584 75 594 67 594 54 c 0
 594 47 588 19 583 11 c 0
 576 -1 562 0 557 0 c 2
 306 0 l 2
 291 0 273 0 273 21 c 1
 273 21 277 62 290 71 c 0
 295 75 302 75 308 75 c 2
 395 75 l 1
 529 613 l 1
 452 613 l 2
 445 613 436 614 429 614 c 0
 375 614 343 611 322 607 c 1
 290 543 276 475 264 464 c 0
 258 459 251 458 244 458 c 2
 223 458 l 2
 212 458 191 458 191 478 c 0
EndSplineSet
EndChar

StartChar: U
Encoding: 85 85 94
Width: 929
Flags: HW
TeX: 694 0
ItalicCorrection: 130
HStem: -11 75<378.387 591.341> 619 75<271.765 336 426.839 514.763 750.088 814 894 982.763>
VStem: 233 95<108.662 287.016>
DStem2: 178.231 -11 274.732 -11 0.242599 0.970127<218.929 649.454> 657.231 -11 741.982 -11 0.242599 0.970127<158.318 648.242>
AnchorPoint: "ogonek" 471 0 basechar 0
AnchorPoint: "below" 471 0 basechar 0
AnchorPoint: "above" 639 706 basechar 0
LayerCount: 2
Fore
SplineSet
233 176 m 0
 233 208 239 233 245 256 c 2
 309 511 l 2
 318 547 326 583 336 619 c 1
 294 619 l 2
 283 619 265 620 265 641 c 1
 265 641 269 683 284 691 c 0
 289 694 297 694 303 694 c 2
 494 694 l 2
 503 694 522 694 522 673 c 1
 522 673 518 633 504 623 c 0
 497 618 487 619 479 619 c 2
 432 619 l 1
 423 580 413 542 403 503 c 2
 339 246 l 2
 334 225 328 202 328 176 c 0
 328 92 395 64 477 64 c 0
 685 64 716 223 724 256 c 2
 814 618 l 1
 800 619 787 619 773 619 c 0
 762 619 743 620 743 640 c 0
 743 645 744 649 748 666 c 0
 755 692 764 694 780 694 c 2
 962 694 l 2
 982 694 990 686 990 673 c 1
 990 673 986 633 972 623 c 0
 964 618 955 619 946 619 c 0
 930 619 914 619 899 618 c 1
 896 604 892 591 889 577 c 2
 808 253 l 2
 798 212 781 135 703 69 c 0
 638 14 553 -11 468 -11 c 0
 289 -11 233 87 233 176 c 0
EndSplineSet
EndChar

StartChar: V
Encoding: 86 86 95
Width: 908
Flags: HW
TeX: 694 0
ItalicCorrection: 189
HStem: -8 21G<419.5 476.5> 619 75<226.283 295.575 392 448.971 794.841 833 923.796 1011.76>
DStem2: 392 619 292 619 0.178304 -0.983975<0 519.394> 485 108 515 18 0.563576 0.826064<0 618.243>
AnchorPoint: "below" 452 0 basechar 0
AnchorPoint: "above" 630 706 basechar 0
LayerCount: 2
Fore
SplineSet
216 640 m 0
 216 646 222 672 226 680 c 0
 232 692 241 694 254 694 c 2
 427 694 l 2
 437 694 456 694 456 673 c 1
 456 673 452 631 438 623 c 0
 432 619 425 619 418 619 c 2
 392 619 l 1
 485 108 l 1
 833 619 l 1
 809 620 788 618 788 640 c 0
 788 648 791 657 793 666 c 0
 799 693 811 694 823 694 c 2
 991 694 l 2
 1006 694 1019 690 1019 673 c 1
 1019 673 1015 633 1001 623 c 0
 993 618 982 619 973 619 c 0
 956 619 940 618 923 617 c 1
 909 595 895 574 880 553 c 2
 515 18 l 2
 498 -6 486 -8 467 -8 c 2
 432 -8 l 2
 407 -8 403 5 400 23 c 2
 303 558 l 2
 299 578 295 599 292 619 c 1
 245 619 l 2
 234 619 216 620 216 640 c 0
EndSplineSet
EndChar

StartChar: W
Encoding: 87 87 96
Width: 1228
Flags: HW
TeX: 694 0
ItalicCorrection: 189
HStem: -8 21G<356.5 412 811 866> 619 75<220.855 283.235 374 436.031 674.808 719 827 890.067 1120.86 1172 1246 1324.67>
VStem: 1114 226<625.441 692.824>
DStem2: 437 143 487 95 0.50675 0.862093<-36.2243 498.449> 827 619 743 544 0.096633 -0.99532<66.5318 511.962> 872 109 903 32 0.513615 0.858021<0 590.817>
AnchorPoint: "below" 613 0 basechar 0
AnchorPoint: "above" 789 706 basechar 0
LayerCount: 2
Fore
SplineSet
214 641 m 1
 214 641 218 683 233 691 c 0
 239 694 246 694 253 694 c 2
 415 694 l 2
 424 694 443 694 443 673 c 1
 443 673 439 633 426 623 c 0
 420 619 412 619 405 619 c 2
 374 619 l 1
 384 497 419 179 419 109 c 1
 437 143 l 1
 519 284 l 1
 719 619 l 1
 695 619 l 2
 685 619 668 621 668 641 c 1
 668 641 672 680 685 690 c 0
 691 694 699 694 706 694 c 2
 867 694 l 2
 877 694 897 694 897 673 c 1
 897 673 893 633 880 623 c 0
 874 619 866 619 859 619 c 2
 827 619 l 1
 858 303 l 1
 868 183 l 1
 871 143 l 1
 872 109 l 1
 926 204 l 1
 1172 618 l 1
 1163 618 1153 619 1144 619 c 0
 1134 619 1114 620 1114 641 c 1
 1114 641 1118 682 1132 691 c 0
 1138 695 1145 694 1152 694 c 2
 1312 694 l 2
 1324 694 1340 692 1340 673 c 0
 1340 669 1335 634 1325 625 c 0
 1318 619 1308 619 1300 619 c 0
 1257 619 1255 619 1246 605 c 2
 903 32 l 2
 888 6 882 -8 850 -8 c 2
 827 -8 l 2
 795 -8 795 7 793 29 c 2
 743 544 l 1
 742 544 l 1
 726 509 700 457 651 374 c 2
 487 95 l 1
 428 -3 429 -8 395 -8 c 0
 386 -8 377 -8 368 -8 c 0
 345 -7 342 5 340 21 c 2
 298 455 l 2
 293 510 287 564 281 619 c 1
 244 619 l 2
 234 619 214 619 214 641 c 1
EndSplineSet
EndChar

StartChar: X
Encoding: 88 88 97
Width: 908
Flags: HW
TeX: 694 0
ItalicCorrection: 157
HStem: -0 75<82.2842 204.391 613.051 645 760 847.172> 619 75<249.828 337 452 483.967 830.234 951.716>
DStem2: 200 92 290 75 0.716922 0.697154<52.6713 372.312 495.025 756.688> 452 619 337 619 0.49269 -0.870205<0 209.124 312.346 568.481>
AnchorPoint: "below" 453 0 basechar 0
AnchorPoint: "above" 630 706 basechar 0
LayerCount: 2
Fore
SplineSet
71 21 m 0
 71 28 78 55 82 63 c 0
 88 74 98 75 108 75 c 2
 131 75 l 2
 186 75 187 80 200 92 c 2
 481 364 l 1
 337 619 l 1
 278 619 l 2
 260 619 243 621 243 641 c 0
 243 649 246 657 248 666 c 0
 254 692 262 695 292 695 c 0
 301 695 313 694 327 694 c 2
 463 694 l 2
 485 694 490 686 490 674 c 0
 490 666 488 656 486 647 c 0
 479 619 469 619 452 619 c 1
 555 437 l 1
 743 619 l 1
 725 620 720 629 720 640 c 0
 720 647 722 655 724 664 c 0
 730 687 734 694 758 694 c 2
 934 694 l 2
 943 694 962 693 962 673 c 0
 962 666 956 640 952 632 c 0
 946 620 936 619 925 619 c 2
 917 619 l 2
 854 619 850 619 834 604 c 2
 593 370 l 1
 760 75 l 1
 819 75 l 2
 837 75 854 74 854 54 c 0
 854 46 851 37 849 28 c 0
 844 10 841 0 817 -0 c 2
 634 -0 l 2
 612 0 607 9 607 21 c 0
 607 29 609 38 611 47 c 0
 618 74 628 75 645 75 c 1
 519 298 l 1
 290 75 l 1
 308 74 313 65 313 54 c 0
 313 46 311 38 309 30 c 0
 303 4 297 0 275 0 c 2
 99 0 l 2
 87 0 71 2 71 21 c 0
EndSplineSet
EndChar

StartChar: Y
Encoding: 89 89 98
Width: 908
Flags: HW
TeX: 694 0
ItalicCorrection: 202
HStem: -0 75<342.237 426 518 583.235> 619 75<221.286 303 418 453.622 892.006 1015.02>
DStem2: 418 619 303 619 0.454513 -0.89074<0 287.116> 548 363 583 292 0.710548 0.703649<0 364.166>
AnchorPoint: "below" 453 0 basechar 0
AnchorPoint: "above" 629 706 basechar 0
LayerCount: 2
Fore
SplineSet
212 640 m 0
 212 646 217 672 221 680 c 0
 227 694 239 694 250 694 c 2
 431 694 l 2
 441 694 461 694 461 673 c 1
 461 673 456 633 444 624 c 0
 437 618 427 619 418 619 c 1
 548 363 l 1
 807 619 l 1
 791 620 783 628 783 641 c 1
 783 641 787 681 801 690 c 0
 807 694 814 694 821 694 c 2
 994 694 l 2
 1009 694 1022 690 1022 673 c 1
 1022 673 1018 632 1004 623 c 0
 996 618 985 619 976 619 c 0
 909 619 913 619 892 598 c 2
 583 292 l 2
 565 274 573 294 518 75 c 1
 558 75 l 2
 571 75 590 75 590 54 c 1
 590 54 586 11 571 3 c 0
 566 0 558 0 552 -0 c 2
 364 -0 l 2
 349 0 335 3 335 21 c 1
 335 21 339 61 353 71 c 0
 360 76 370 75 378 75 c 2
 426 75 l 1
 477 278 l 1
 303 619 l 1
 242 619 l 2
 228 619 212 620 212 640 c 0
EndSplineSet
EndChar

StartChar: Z
Encoding: 90 90 99
Width: 764
Flags: HW
TeX: 694 0
ItalicCorrection: 141
HStem: -0 81<249 599.318> 619 75<359.22 690>
VStem: 233 82<463.793 552.913>
DStem2: 125 76 249 81 0.721005 0.69293<92.8692 783.629>
AnchorPoint: "below" 384 0 basechar 0
AnchorPoint: "above" 561 706 basechar 0
LayerCount: 2
Fore
SplineSet
99 17 m 0
 99 22 100 52 125 76 c 2
 690 619 l 1
 571 619 l 2
 461 619 388 618 370 607 c 0
 352 596 336 559 315 491 c 0
 307 464 298 463 281 463 c 2
 261 463 l 2
 240 463 233 471 233 483 c 0
 233 492 285 676 295 687 c 0
 301 694 310 694 319 694 c 2
 813 694 l 2
 824 694 837 694 837 678 c 0
 837 666 834 643 812 622 c 2
 249 81 l 1
 380 81 l 2
 591 81 590 88 602 107 c 0
 616 131 631 172 652 238 c 0
 660 264 665 267 688 267 c 2
 707 267 l 2
 717 267 736 267 736 247 c 0
 736 237 737 244 667 23 c 0
 661 5 656 0 636 -0 c 2
 123 -0 l 2
 109 0 99 4 99 17 c 0
EndSplineSet
EndChar

StartChar: bracketleft
Encoding: 91 91 100
Width: 381
Flags: HW
TeX: 750 250
ItalicCorrection: 187
HStem: -250 75<188 257.717> 675 75<400 498.109>
VStem: 90 184<-243.56 -180.005>
DStem2: 83.4951 -250 169.245 -250 0.242599 0.970127<98.1123 974.151>
LayerCount: 2
Fore
SplineSet
90 -229 m 0
 90 -221 97 -196 101 -180 c 2
 327 725 l 2
 331 741 336 750 357 750 c 2
 478 750 l 2
 492 750 505 746 505 729 c 1
 505 729 501 685 484 677 c 0
 479 675 472 675 465 675 c 2
 400 675 l 1
 188 -175 l 1
 246 -175 l 2
 260 -175 274 -179 274 -196 c 0
 274 -201 268 -235 258 -244 c 0
 252 -249 244 -250 237 -250 c 2
 119 -250 l 2
 104 -250 90 -246 90 -229 c 0
EndSplineSet
EndChar

StartChar: backslash
Encoding: 92 92 101
Width: 636
Flags: HW
TeX: 750 250
HStem: 729 20G<300.5 329>
DStem2: 356 655 275 689 0.149771 -0.988721<-67.6237 875.528>
LayerCount: 2
Fore
SplineSet
272 711 m 0
 272 736 292 749 309 749 c 0
 349 749 349 699 356 655 c 2
 484 -190 l 2
 485 -197 487 -204 487 -211 c 0
 487 -229 472 -249 450 -249 c 0
 409 -249 410 -200 403 -154 c 2
 275 689 l 2
 274 696 272 704 272 711 c 0
EndSplineSet
EndChar

StartChar: bracketright
Encoding: 93 93 102
Width: 381
Flags: HW
TeX: 750 250
ItalicCorrection: 89
HStem: -250 75<5.78296 105> 675 75<237.429 317>
DStem2: 86.2448 -250 170.748 -250 0.242599 0.970127<77.3095 953.348>
LayerCount: 2
Fore
SplineSet
-1 -229 m 0
 -1 -224 -1 -221 4 -203 c 0
 9 -182 15 -175 39 -175 c 0
 61 -175 83 -175 105 -175 c 1
 317 675 l 1
 258 675 l 2
 237 675 231 684 231 695 c 0
 231 701 232 708 234 715 c 0
 240 738 240 750 267 750 c 2
 382 750 l 2
 396 750 414 749 414 729 c 0
 414 725 413 721 412 717 c 2
 177 -225 l 2
 172 -243 165 -250 147 -250 c 2
 26 -250 l 2
 13 -250 -1 -247 -1 -229 c 0
EndSplineSet
EndChar

StartChar: asciicircum
Encoding: 94 94 103
Width: 764
Flags: HW
TeX: 694 0
ItalicCorrection: 74
HStem: 466 83<282.457 356.774 677.327 727.278> 551 87<474.739 570.55>
LayerCount: 2
Fore
SplineSet
277 520 m 0
 277 539 293 542 309 549 c 0
 530 638 525 638 535 638 c 0
 545 638 551 633 721 547 c 0
 727 544 745 538 745 523 c 0
 745 512 718 466 700 466 c 0
 682 466 539 551 523 551 c 0
 516 551 499 541 320 470 c 0
 315 468 310 466 304 466 c 0
 280 466 277 512 277 520 c 0
EndSplineSet
EndChar

StartChar: underscore
Encoding: 95 95 104
Width: 956
Flags: HW
TeX: 0 340
HStem: -341 61<50.3714 748.734>
LayerCount: 2
Fore
SplineSet
49 -311 m 0
 49 -302 53 -280 89 -280 c 2
 711 -280 l 2
 721 -280 750 -281 750 -311 c 0
 750 -323 744 -341 710 -341 c 2
 88 -341 l 2
 53 -341 49 -321 49 -311 c 0
EndSplineSet
EndChar

StartChar: quoteleft
Encoding: 8216 8216 105
Width: 381
Flags: HW
TeX: 694 0
ItalicCorrection: 108
HStem: 375 317
VStem: 229 134<399.219 488.318>
LayerCount: 2
Fore
SplineSet
229 449 m 0
 229 569 349 692 373 692 c 0
 386 692 411 654 411 646 c 0
 411 628 341 599 312 500 c 1
 355 497 363 469 363 451 c 0
 363 414 331 375 287 375 c 0
 264 375 229 389 229 449 c 0
EndSplineSet
EndChar

StartChar: a
Encoding: 97 97 106
Width: 636
Flags: HW
TeX: 472 0
ItalicCorrection: 111
HStem: -6 76<241.214 370.185 519.853 580.385> 402 76<317.002 446.28>
VStem: 128 91<91.9185 266.775> 608 75<102.679 168.993>
AnchorPoint: "ogonek" 542 0 basechar 0
AnchorPoint: "affricate-below" 587 -194 basechar 0
AnchorPoint: "affricate-above" 810 694 basechar 0
AnchorPoint: "below" 282 0 basechar 0
AnchorPoint: "above" 402 478 basechar 0
LayerCount: 2
Fore
SplineSet
128 157 m 0
 128 293 226 478 402 478 c 0
 447 478 479 466 513 437 c 1
 529 460 547 462 557 462 c 0
 580 462 594 446 594 427 c 0
 594 417 589 402 586 390 c 2
 520 126 l 2
 518 119 517 112 517 105 c 0
 517 84 535 70 552 70 c 0
 592 70 596 153 608 164 c 0
 613 168 621 169 628 169 c 2
 660 169 l 2
 673 169 683 167 683 155 c 0
 683 143 642 -6 540 -6 c 0
 521 -6 466 -1 438 51 c 1
 400 22 352 -6 286 -6 c 0
 194 -6 128 53 128 157 c 0
219 156 m 0
 219 87 263 70 300 70 c 0
 362 70 432 124 455 215 c 0
 468 268 473 279 473 300 c 0
 473 387 422 402 388 402 c 0
 248 402 219 200 219 156 c 0
EndSplineSet
EndChar

StartChar: b
Encoding: 98 98 107
Width: 572
Flags: HW
TeX: 694 0
ItalicCorrection: 64
HStem: -6 76<238.824 371.838> 402 76<319.194 447.956> 674 20G<312.5 322.5>
VStem: 131 86<93.5115 274.077> 163 174<609.764 675.705> 470 91<203.173 378.79>
AnchorPoint: "affricate-below" 523 -194 basechar 0
AnchorPoint: "affricate-above" 746 694 basechar 0
AnchorPoint: "below" 287 0 basechar 0
AnchorPoint: "above" 460 694 basechar 0
LayerCount: 2
Fore
SplineSet
131 156 m 0xf4
 131 195 140 230 148 263 c 2
 234 606 l 1
 188 611 163 601 163 629 c 0
 163 645 171 670 177 676 c 0
 185 684 181 682 304 693 c 0
 307 693 311 694 314 694 c 0
 331 694 337 686 337 674 c 0xec
 337 656 305 547 281 442 c 1
 315 461 352 478 402 478 c 0
 468 478 561 444 561 315 c 0
 561 187 469 -6 287 -6 c 0
 195 -6 131 52 131 156 c 0xf4
217 157 m 0
 217 87 260 70 300 70 c 0xf4
 436 70 470 258 470 316 c 0
 470 385 427 402 389 402 c 0
 330 402 271 355 242 284 c 0
 236 269 217 195 217 157 c 0
EndSplineSet
EndChar

StartChar: c
Encoding: 99 99 108
Width: 572
Flags: HW
TeX: 472 0
ItalicCorrection: 54
HStem: -6 76<254.192 471.578> 402 76<335.904 479.573>
VStem: 130 92<102.349 271.84> 468 102<327.875 386.484>
AnchorPoint: "affricate-below" 523 -194 basechar 0
AnchorPoint: "affricate-above" 746 694 basechar 0
AnchorPoint: "below" 329 0 basechar 0
AnchorPoint: "above" 433 478 basechar 0
LayerCount: 2
Fore
SplineSet
130 167 m 0
 130 316 248 478 433 478 c 0
 513 478 570 440 570 382 c 0
 570 331 533 312 509 312 c 0
 487 312 468 328 468 351 c 0
 468 364 474 376 481 387 c 1
 471 393 457 402 421 402 c 0
 255 402 222 225 222 168 c 0
 222 89 276 70 339 70 c 0
 493 70 505 123 524 123 c 0
 535 123 566 87 568 80 c 0
 571 71 563 64 557 59 c 0
 507 15 436 -6 327 -6 c 0
 178 -6 130 78 130 167 c 0
EndSplineSet
EndChar

StartChar: d
Encoding: 100 100 109
Width: 636
Flags: HW
TeX: 694 0
ItalicCorrection: 111
HStem: -6 76<242.628 368.494 519.885 580.402> 402 76<317.549 447.049> 606 72<487.328 552.894> 674 20G<499 642.5>
VStem: 128 91<92.0588 267.62> 482 174<610.5 677.51> 609 74<105.394 168.881>
DStem2: 398.737 -6 487.49 -6 0.242599 0.970127<136.784 316.248 457.971 631.142>
AnchorPoint: "affricate-below" 587 -194 basechar 0
AnchorPoint: "affricate-above" 810 694 basechar 0
AnchorPoint: "below" 362 0 basechar 0
AnchorPoint: "above" 457 694 basechar 0
LayerCount: 2
Fore
SplineSet
128 157 m 0
 128 295 228 478 402 478 c 0
 446 478 478 466 511 438 c 1
 553 606 l 1
 512 610 482 602 482 629 c 1
 482 629 486 668 499 678 c 0xec
 511 687 634 694 634 694 c 1
 651 694 656 685 656 674 c 0xdc
 656 669 655 665 654 660 c 2
 522 132 l 2
 520 123 517 114 517 105 c 0
 517 81 538 70 552 70 c 0
 592 70 596 154 609 165 c 0xda
 614 169 621 169 628 169 c 2
 655 169 l 2
 669 169 683 168 683 154 c 0xda
 683 143 642 -6 540 -6 c 0
 522 -6 466 -1 438 51 c 1
 400 22 352 -6 286 -6 c 0
 202 -6 128 44 128 157 c 0
219 156 m 0
 219 87 263 70 300 70 c 0
 362 70 420 122 447 187 c 0
 449 191 473 270 473 303 c 0
 473 340 461 402 388 402 c 0xc8
 249 402 219 202 219 156 c 0
EndSplineSet
EndChar

StartChar: e
Encoding: 101 101 110
Width: 572
Flags: HW
TeX: 472 0
ItalicCorrection: 95
HStem: -6 76<259.163 470.057> 213 75<247 447.966> 402 76<328.957 481.522>
VStem: 132 92<102.7 210.976> 491 84<320.925 390.838>
AnchorPoint: "ogonek" 328 0 basechar 0
AnchorPoint: "affricate-below" 523 -194 basechar 0
AnchorPoint: "affricate-above" 746 694 basechar 0
AnchorPoint: "below" 328 0 basechar 0
AnchorPoint: "above" 432 478 basechar 0
LayerCount: 2
Fore
SplineSet
132 173 m 0
 132 335 254 478 432 478 c 0
 517 478 575 435 575 370 c 0
 575 352 570 314 539 281 c 0
 475 213 337 213 268 213 c 2
 260 213 l 2
 249 213 238 212 227 212 c 1
 225 199 224 185 224 172 c 0
 224 90 278 70 340 70 c 0
 490 70 503 123 523 123 c 0
 535 123 568 85 568 76 c 0
 568 60 501 -6 326 -6 c 0
 171 -6 132 93 132 173 c 0
247 288 m 1
 288 288 l 2
 335 288 491 288 491 358 c 0
 491 384 465 402 420 402 c 0
 313 402 268 338 247 288 c 1
EndSplineSet
EndChar

StartChar: f
Encoding: 102 102 111
Width: 381
Flags: HW
TeX: 694 194
ItalicCorrection: 221
HStem: -200 75<76.1448 128.369> 397 75<124.19 235 336 466.414> 625 75<362.482 422.245>
VStem: -22 100<-123.719 -82.3039> 422 99<581.881 624>
DStem2: 223 326 251 8 0.180191 0.983632<-244.868 72.0001 163.972 318.755>
AnchorPoint: "affricate-below" 332 -194 basechar 0
AnchorPoint: "affricate-above" 555 694 basechar 0
AnchorPoint: "above" 385 694 basechar 0
AnchorPoint: "below" 117 -194 basechar 0
LayerCount: 2
Fore
SplineSet
-22 -130 m 0
 -22 -96 5 -68 38 -68 c 0
 64 -68 78 -84 78 -107 c 0
 78 -112 78 -118 76 -124 c 1
 82 -124 87 -125 93 -125 c 2
 95 -125 l 2
 145 -125 156 -52 223 326 c 1
 235 397 l 1
 145 397 l 2
 132 397 117 400 117 418 c 0
 117 425 119 433 121 439 c 0
 126 459 128 472 154 472 c 2
 249 472 l 1
 249 473 l 1
 271 623 290 650 332 677 c 0
 345 685 369 700 407 700 c 0
 451 700 521 686 521 630 c 0
 521 600 499 568 462 568 c 0
 435 568 422 583 422 607 c 0
 422 612 423 618 424 624 c 1
 369 625 l 1
 356 592 343 520 336 472 c 1
 446 472 l 2
 457 472 473 470 473 451 c 1
 473 451 470 408 453 400 c 0
 448 397 441 397 435 397 c 2
 322 397 l 1
 322 397 273 104 251 8 c 0
 238 -49 221 -129 153 -178 c 0
 123 -199 98 -200 89 -200 c 2
 87 -200 l 2
 42 -200 -22 -183 -22 -130 c 0
EndSplineSet
EndChar

StartChar: g
Encoding: 103 103 112
Width: 572
Flags: HW
TeX: 472 194
ItalicCorrection: 97
HStem: -200 75<176 350.673> 0 75<241.624 370.616> 402 76<317.472 445.083>
VStem: 129 90<97.0311 268.812> 473 120<292 438.5>
DStem2: 350.239 -200 438.489 -200 0.242599 0.970127<95.1503 243.448 337.251 520.237>
AnchorPoint: "affricate-below" 523 -194 basechar 0
AnchorPoint: "affricate-above" 746 694 basechar 0
AnchorPoint: "below" 221 -194 basechar 0
AnchorPoint: "above" 402 478 basechar 0
LayerCount: 2
Fore
SplineSet
76 -139 m 0
 76 -104 104 -77 135 -77 c 0
 154 -77 177 -87 176 -123 c 1
 197 -124 217 -125 238 -125 c 0
 378 -125 382 -74 391 -37 c 0
 397 -13 403 12 410 36 c 1
 376 17 338 0 288 0 c 0
 204 0 129 49 129 162 c 0
 129 295 226 478 401 478 c 0
 468 478 499 448 512 437 c 1
 520 447 535 462 557 462 c 0
 577 462 593 449 593 428 c 0
 593 422 592 415 590 409 c 2
 478 -42 l 2
 472 -66 463 -141 356 -180 c 0
 317 -194 279 -200 231 -200 c 2
 208 -200 l 2
 161 -200 76 -197 76 -139 c 0
219 160 m 0
 219 92 262 75 301 75 c 0
 359 75 417 120 447 190 c 0
 452 202 473 277 473 307 c 0
 473 356 447 402 387 402 c 0
 253 402 219 213 219 160 c 0
EndSplineSet
EndChar

StartChar: h
Encoding: 104 104 113
Width: 636
Flags: HW
TeX: 694 0
ItalicCorrection: 111
HStem: -5 75<499.879 566.933> 402 76<344.715 474.01> 674 20G<313.5 323.5>
VStem: 163 174<612.246 676.561> 409 90<70.9926 160.304> 484 89<252.846 391.719> 600 83<105.551 168.84>
AnchorPoint: "affricate-below" 587 -194 basechar 0
AnchorPoint: "affricate-above" 810 694 basechar 0
AnchorPoint: "below" 284 0 basechar 0
AnchorPoint: "above" 457 694 basechar 0
LayerCount: 2
Fore
SplineSet
92 31 m 0
 92 43 96 54 98 65 c 2
 234 606 l 1
 195 610 163 602 163 629 c 0
 163 635 169 668 178 677 c 0
 186 685 182 682 304 693 c 0
 307 693 312 694 315 694 c 0
 332 694 337 687 337 674 c 0
 337 655 296 509 272 407 c 1
 312 444 363 478 436 478 c 0
 521 478 573 441 573 364 c 0xf6
 573 274 499 125 499 98 c 0
 499 81 509 70 525 70 c 0
 555 70 585 104 600 148 c 0
 607 167 612 169 627 169 c 2xfa
 652 169 l 2
 672 169 683 168 683 155 c 0
 683 126 619 -5 511 -5 c 0
 453 -5 409 30 409 84 c 0xfa
 409 129 484 274 484 347 c 0
 484 382 464 402 421 402 c 0
 336 402 264 335 210 157 c 0
 182 64 185 -5 129 -5 c 0
 109 -5 92 10 92 31 c 0
EndSplineSet
EndChar

StartChar: i
Encoding: 105 105 114
Width: 381
Flags: HW
TeX: 694 0
ItalicCorrection: 111
HStem: -6 76<243.044 310.345> 402 76<185.075 252.929> 597 97<293.491 362.812>
VStem: 70 87<304.511 371.261> 153 89<71.0724 158.801> 254 89<312.532 400.318> 279 99<612.409 679.86> 345 82<107.647 168.917>
AnchorPoint: "above" 358 674 basechar 0
AnchorPoint: "ogonek" 256 0 basechar 0
AnchorPoint: "affricate-below" 332 -194 basechar 0
AnchorPoint: "affricate-above" 555 694 basechar 0
AnchorPoint: "below" 189 0 basechar 0
LayerCount: 2
Fore
SplineSet
279 637 m 0
 279 665 306 694 337 694 c 0
 359 694 378 678 378 654 c 0
 378 627 350 597 319 597 c 0xe2
 295 597 279 615 279 637 c 0
EndSplineSet
Refer: 34 305 S 1 0 0 1 0 -0 3
EndChar

StartChar: j
Encoding: 106 106 115
Width: 381
Flags: HW
TeX: 694 194
ItalicCorrection: 152
HStem: -200 75<66 155.276> 402 76<203.557 296.804> 597 97<341.584 411.079>
VStem: 71 84<304.104 355.392> 300 89<281.133 398.082> 327 99<612.072 679.406>
DStem2: 160.488 -200 247.239 -200 0.242599 0.970127<100.031 583.498>
AnchorPoint: "affricate-below" 332 -194 basechar 0
AnchorPoint: "affricate-above" 555 694 basechar 0
AnchorPoint: "below" 111 -194 basechar 0
LayerCount: 2
Fore
SplineSet
-34 -138 m 0
 -34 -102 -4 -77 26 -77 c 0
 49 -77 66 -90 66 -119 c 2
 66 -125 l 1
 67 -125 l 2
 79 -125 91 -125 103 -123 c 0
 194 -109 202 -35 203 -30 c 2
 296 342 l 2
 298 350 300 358 300 367 c 0xf8
 300 390 281 402 260 402 c 0
 236 402 187 387 155 323 c 0
 146 305 142 304 128 304 c 0
 116 304 105 304 93 304 c 0
 77 304 71 309 71 316 c 0
 71 342 151 478 276 478 c 0
 339 478 389 438 389 379 c 0
 389 360 383 341 380 330 c 2
 288 -37 l 2
 284 -53 277 -107 216 -152 c 0
 169 -187 112 -200 68 -200 c 0
 5 -200 -34 -175 -34 -138 c 0
327 637 m 0
 327 664 354 694 386 694 c 0
 410 694 426 676 426 654 c 0
 426 626 398 597 367 597 c 0xf4
 343 597 327 615 327 637 c 0
EndSplineSet
EndChar

StartChar: k
Encoding: 107 107 116
Width: 572
Flags: HW
TeX: 694 0
ItalicCorrection: 118
HStem: -6 76<442.279 513.116> 401 77<452.202 520.993> 608 70<168.214 232.825> 674 20G<179 321.5>
VStem: 92 80<0.326172 94.3316> 163 174<611.948 677.51> 350 88<75.252 187.889> 521 79<350.86 401.272> 544 75<108.353 168.741>
DStem2: 80.746 -6 167.735 -6 0.242599 0.970127<38.9427 244.786 334.524 581.558>
AnchorPoint: "affricate-below" 523 -194 basechar 0
AnchorPoint: "affricate-above" 746 694 basechar 0
AnchorPoint: "below" 293 0 basechar 0
AnchorPoint: "above" 466 694 basechar 0
LayerCount: 2
Fore
SplineSet
92 31 m 0xda80
 92 38 93 44 95 51 c 2
 234 606 l 1
 223 607 211 608 200 608 c 2
 194 608 l 2
 180 608 163 609 163 629 c 1
 163 629 167 668 179 678 c 0xe6
 190 687 315 694 315 694 c 1
 328 694 337 687 337 677 c 0xd6
 337 659 319 597 244 298 c 1
 342 342 420 478 528 478 c 0
 579 478 600 437 600 388 c 0
 600 306 562 291 536 291 c 0
 514 291 495 305 495 329 c 0
 495 364 521 369 521 389 c 0xd7
 521 403 511 403 499 401 c 0
 440 392 383 334 317 275 c 1
 368 264 443 232 443 155 c 0
 443 134 438 124 438 109 c 0
 438 86 457 70 477 70 c 0
 526 70 533 151 544 163 c 0
 548 167 548 169 582 169 c 2
 594 169 l 2
 607 169 619 168 619 155 c 0
 619 134 568 -6 464 -6 c 0
 406 -6 350 32 350 99 c 0
 350 113 355 128 355 144 c 0
 355 198 281 208 223 211 c 1
 222 211 l 1
 222 211 181 33 172 19 c 0
 163 5 146 -5 129 -5 c 0
 110 -5 92 8 92 31 c 0xda80
EndSplineSet
EndChar

StartChar: l
Encoding: 108 108 117
Width: 317
Flags: HW
TeX: 694 0
ItalicCorrection: 111
HStem: -5 75<201.557 260.515> 674 20G<312.5 322.5>
VStem: 109 89<72.907 196.266> 163 174<611.438 675.705> 282 81<92.0804 168.905>
DStem2: 80.2395 -5 167.991 -5 0.242599 0.970127<112.444 629.807>
AnchorPoint: "affricate-below" 268 -194 basechar 0
AnchorPoint: "affricate-above" 491 694 basechar 0
AnchorPoint: "below" 125 0 basechar 0
AnchorPoint: "above" 299 694 basechar 0
LayerCount: 2
Fore
SplineSet
109 93 m 0xe8
 109 113 115 134 118 146 c 2
 233 606 l 1
 184 611 175 603 165 618 c 0
 163 621 163 624 163 629 c 0
 163 645 171 670 177 676 c 0
 185 684 182 682 304 693 c 0
 307 693 311 694 314 694 c 0
 331 694 337 685 337 674 c 0xd0
 337 665 333 654 331 644 c 2
 200 123 l 2
 198 116 197 109 198 101 c 0
 200 83 217 70 233 70 c 0
 257 70 268 100 282 153 c 1
 287 168 295 169 309 169 c 0xe8
 320 169 331 169 342 169 c 0
 352 169 363 168 363 155 c 0
 363 143 323 -5 220 -5 c 0
 167 -5 109 28 109 93 c 0xe8
EndSplineSet
EndChar

StartChar: m
Encoding: 109 109 118
Width: 1019
Flags: HW
TeX: 472 0
ItalicCorrection: 111
HStem: -6 76<882.044 950.065> 402 76<172.19 232.484 411.236 538.152 730.027 857.011>
VStem: 69 77<304.05 373.898> 474 83<1.60483 105.203> 792 89<71.0724 160.786> 867 89<259.698 391.763> 985 81<107.739 168.924>
AnchorPoint: "affricate-below" 970 -194 basechar 0
AnchorPoint: "affricate-above" 1193 694 basechar 0
AnchorPoint: "below" 507 0 basechar 0
AnchorPoint: "above" 626 478 basechar 0
LayerCount: 2
Fore
SplineSet
69 318 m 0
 69 330 110 478 213 478 c 0
 256 478 311 455 323 395 c 1
 361 433 414 478 500 478 c 0
 527 478 622 474 635 387 c 1
 669 422 723 478 818 478 c 0
 903 478 956 442 956 364 c 0xf6
 956 280 881 124 881 97 c 0
 881 80 894 70 908 70 c 0
 939 70 970 106 985 152 c 0
 990 165 994 169 1009 169 c 2xfa
 1039 169 l 2
 1053 169 1066 168 1066 154 c 0
 1066 126 1004 -6 893 -6 c 0
 837 -6 792 30 792 84 c 0xfa
 792 128 867 277 867 348 c 0
 867 392 835 402 803 402 c 0
 617 402 575 63 557 25 c 0
 553 16 538 -5 510 -5 c 0
 490 -5 474 8 474 29 c 0
 474 37 476 45 478 53 c 2
 542 310 l 2
 544 317 548 332 548 347 c 0
 548 375 534 402 485 402 c 0
 367 402 313 267 290 206 c 0
 240 72 255 -5 191 -5 c 0
 171 -5 155 8 155 29 c 0
 155 40 159 51 161 61 c 2
 232 345 l 2
 234 352 236 359 236 367 c 0
 236 390 215 402 200 402 c 0
 161 402 156 323 146 310 c 0
 142 304 135 304 128 304 c 0
 117 304 106 304 95 304 c 0
 82 304 69 305 69 318 c 0
EndSplineSet
EndChar

StartChar: n
Encoding: 110 110 119
Width: 700
Flags: HW
TeX: 472 0
ItalicCorrection: 111
HStem: -5 75<563.006 629.052> 402 76<171.545 232.276 411.155 538.571>
VStem: 69 74<304.033 366.933> 155 83<2.04614 105.688> 472 90<71.0431 160.153> 548 88<252.513 391.587> 665 81<109.18 168.634>
AnchorPoint: "affricate-below" 651 -194 basechar 0
AnchorPoint: "affricate-above" 874 694 basechar 0
AnchorPoint: "below" 348 0 basechar 0
AnchorPoint: "above" 467 478 basechar 0
LayerCount: 2
Fore
SplineSet
69 318 m 0
 69 330 109 478 212 478 c 0
 253 478 310 458 323 395 c 1
 373 448 428 478 499 478 c 0
 564 478 636 455 636 364 c 0xf6
 636 271 562 127 562 97 c 0
 562 81 573 70 589 70 c 0
 619 70 649 104 665 151 c 0
 671 168 674 169 704 169 c 2
 717 169 l 2
 733 169 746 169 746 155 c 0
 746 128 686 -5 574 -5 c 0
 518 -5 472 30 472 84 c 0xfa
 472 128 548 275 548 347 c 0
 548 382 527 402 484 402 c 0
 298 402 256 64 238 26 c 0
 234 17 219 -5 191 -5 c 0
 171 -5 155 8 155 29 c 0
 155 36 156 43 158 50 c 2
 232 347 l 2
 234 354 235 360 235 367 c 0
 235 390 215 402 200 402 c 0
 160 402 157 318 143 307 c 0
 138 303 130 304 124 304 c 2xf6
 94 304 l 2
 81 304 69 305 69 318 c 0
EndSplineSet
EndChar

StartChar: o
Encoding: 111 111 120
Width: 636
Flags: HW
TeX: 472 0
ItalicCorrection: 64
HStem: -6 76<254.606 420.462> 403 75<330.805 498.397>
VStem: 130 92<102.421 272.271> 532 91<198.702 370.357>
AnchorPoint: "ogonek" 321 0 basechar 0
AnchorPoint: "affricate-below" 587 -194 basechar 0
AnchorPoint: "affricate-above" 810 694 basechar 0
AnchorPoint: "below" 321 0 basechar 0
AnchorPoint: "above" 435 478 basechar 0
LayerCount: 2
Fore
SplineSet
130 167 m 0
 130 297 231 478 435 478 c 0
 547 478 623 416 623 305 c 0
 623 166 515 -6 319 -6 c 0
 204 -6 130 58 130 167 c 0
222 168 m 0
 222 90 278 70 333 70 c 0
 492 70 532 235 532 304 c 0
 532 383 474 403 421 403 c 0
 256 403 222 229 222 168 c 0
EndSplineSet
EndChar

StartChar: p
Encoding: 112 112 121
Width: 636
Flags: HW
TeX: 472 194
ItalicCorrection: 64
HStem: -194 75<52.1463 116 204 264.715> -6 76<305.993 435.883> 402 76<172.11 233.324 383.936 512.145>
VStem: 70 74<304 369.939> 534 90<205.436 379.903>
DStem2: 97.2448 -194 185.245 -194 0.242599 0.970127<98.6582 255.094 392.447 578.509>
AnchorPoint: "affricate-below" 587 -194 basechar 0
AnchorPoint: "affricate-above" 810 694 basechar 0
AnchorPoint: "below" 301 -194 basechar 0
AnchorPoint: "above" 469 478 basechar 0
LayerCount: 2
Fore
SplineSet
45 -173 m 1
 45 -173 49 -131 64 -123 c 0
 70 -119 77 -119 84 -119 c 2
 116 -119 l 1
 128 -69 l 1
 232 344 l 2
 234 352 236 360 236 368 c 0
 236 388 217 402 200 402 c 0
 159 402 158 321 144 308 c 0
 139 304 132 304 126 304 c 2
 91 304 l 2
 75 304 70 308 70 317 c 0
 70 332 111 478 213 478 c 0
 233 478 285 473 315 421 c 1
 351 449 401 478 467 478 c 0
 550 478 624 429 624 314 c 0
 624 181 528 -6 351 -6 c 0
 307 -6 275 5 241 33 c 1
 204 -119 l 1
 218 -119 232 -119 246 -119 c 0
 257 -119 275 -119 275 -140 c 0
 275 -148 267 -176 265 -180 c 0
 259 -194 248 -194 236 -194 c 2
 75 -194 l 2
 66 -194 45 -194 45 -173 c 1
280 163 m 0
 280 88 330 70 364 70 c 0
 505 70 534 272 534 316 c 0
 534 385 491 402 453 402 c 0
 387 402 319 343 298 259 c 0
 294 241 280 202 280 163 c 0
EndSplineSet
EndChar

StartChar: q
Encoding: 113 113 122
Width: 572
Flags: HW
TeX: 472 194
ItalicCorrection: 97
HStem: -194 75<287.864 371 459 523.131> -6 76<242.283 370.173> 402 76<316.992 446.185>
VStem: 128 91<92.4975 268.811> 473 129<271 463.5>
DStem2: 352.245 -194 440.245 -194 0.242599 0.970127<98.6582 230.835>
AnchorPoint: "affricate-below" 523 -194 basechar 0
AnchorPoint: "affricate-above" 746 694 basechar 0
AnchorPoint: "below" 235 -194 basechar 0
AnchorPoint: "above" 403 478 basechar 0
LayerCount: 2
Fore
SplineSet
128 158 m 0
 128 289 223 478 402 478 c 0
 469 478 502 446 514 434 c 1
 515 434 l 1
 539 462 575 476 584 476 c 0
 594 476 602 469 602 458 c 0
 602 451 598 436 594 422 c 2
 459 -119 l 1
 499 -119 l 2
 512 -119 530 -120 530 -141 c 1
 530 -141 526 -183 511 -191 c 0
 505 -194 498 -194 492 -194 c 2
 310 -194 l 2
 299 -194 281 -194 281 -173 c 1
 281 -173 285 -132 299 -123 c 0
 306 -118 316 -119 324 -119 c 2
 371 -119 l 1
 408 30 l 1
 375 10 336 -6 286 -6 c 0
 201 -6 128 45 128 158 c 0
219 156 m 0
 219 87 262 70 300 70 c 0
 423 70 473 238 473 304 c 0
 473 341 460 402 387 402 c 0
 252 402 219 209 219 156 c 0
EndSplineSet
EndChar

StartChar: r
Encoding: 114 114 123
Width: 524
Flags: HW
TeX: 472 0
ItalicCorrection: 118
HStem: -5 21G<181 226> 402 76<171.78 232.32 389.914 489.997>
VStem: 69 78<304.05 373.02> 492 88<318.807 397.58>
AnchorPoint: "affricate-below" 475 -194 basechar 0
AnchorPoint: "affricate-above" 698 694 basechar 0
AnchorPoint: "below" 192 0 basechar 0
AnchorPoint: "above" 341 478 basechar 0
LayerCount: 2
Fore
SplineSet
69 318 m 0
 69 328 108 478 213 478 c 0
 239 478 296 468 318 412 c 1
 351 443 395 478 464 478 c 0
 534 478 580 431 580 369 c 0
 580 309 543 291 518 291 c 0
 496 291 477 306 477 329 c 0
 477 353 492 363 492 375 c 0
 492 386 477 402 450 402 c 0
 361 402 313 277 301 247 c 0
 239 92 261 -5 191 -5 c 0
 171 -5 155 8 155 29 c 0
 155 37 157 46 159 54 c 2
 227 327 l 2
 231 342 235 356 235 368 c 0
 235 389 216 402 201 402 c 0
 162 402 156 324 147 311 c 0
 142 304 134 304 117 304 c 0
 109 304 101 304 93 304 c 0
 81 304 69 305 69 318 c 0
EndSplineSet
EndChar

StartChar: s
Encoding: 115 115 124
Width: 508
Flags: HW
TeX: 472 0
ItalicCorrection: 86
HStem: -6 76<177.048 362.22> 403 75<284.478 417.854>
VStem: 88 88<80.1132 127.346> 176 85<305.847 379.64> 399 84<102.77 182.949> 410 97<336.625 389.531>
AnchorPoint: "affricate-below" 459 -194 basechar 0
AnchorPoint: "affricate-above" 682 694 basechar 0
AnchorPoint: "below" 258 0 basechar 0
AnchorPoint: "above" 366 478 basechar 0
LayerCount: 2
Fore
SplineSet
88 96 m 0
 88 146 123 167 149 167 c 0
 171 167 190 151 190 128 c 0
 190 114 185 103 176 91 c 1
 176 90 l 1
 190 80 208 70 266 70 c 0
 371 70 399 117 399 149 c 0xf8
 399 204 298 201 251 218 c 0
 216 231 176 264 176 318 c 0
 176 358 206 478 366 478 c 0
 452 478 507 442 507 388 c 0
 507 339 470 322 449 322 c 0
 428 322 410 337 410 359 c 0xf4
 410 370 414 380 419 390 c 1
 397 402 379 403 353 403 c 0
 291 403 261 366 261 338 c 0
 261 289 342 296 396 277 c 0
 436 263 483 229 483 169 c 0xf8
 483 121 448 -6 256 -6 c 0
 132 -6 88 48 88 96 c 0
EndSplineSet
EndChar

StartChar: t
Encoding: 116 116 125
Width: 412
Flags: HW
TeX: 674 0
ItalicCorrection: 111
HStem: -6 76<232.805 325.542> 397 75<94.5127 213 319 437.959>
VStem: 141 88<74.2677 195.991> 278 83<572.88 672.83> 375 84<117.585 168.782>
DStem2: 112.222 -6 199.991 -6 0.242599 0.970127<167.223 415.41 513.885 692.085>
AnchorPoint: "affricate-below" 363 -194 basechar 0
AnchorPoint: "affricate-above" 586 694 basechar 0
AnchorPoint: "below" 229 0 basechar 0
AnchorPoint: "above" 327 680 basechar 0
LayerCount: 2
Fore
SplineSet
87 418 m 0
 87 425 89 433 91 439 c 0
 98 465 101 472 125 472 c 2
 232 472 l 1
 233 476 272 638 278 650 c 0
 287 667 305 680 324 680 c 0
 344 680 361 667 361 646 c 0
 361 631 319 472 319 472 c 1
 417 472 l 2
 429 472 445 470 445 451 c 0
 445 444 443 436 441 430 c 0
 435 405 433 397 408 397 c 2
 300 397 l 1
 234 130 l 2
 232 122 229 113 229 105 c 0
 229 89 240 70 269 70 c 0
 311 70 353 107 375 150 c 0
 384 168 389 169 404 169 c 0
 413 169 422 169 431 169 c 0
 445 169 459 169 459 156 c 0
 459 132 381 -6 254 -6 c 0
 191 -6 141 35 141 94 c 0
 141 125 188 289 213 397 c 1
 115 397 l 2
 103 397 87 399 87 418 c 0
EndSplineSet
EndChar

StartChar: u
Encoding: 117 117 126
Width: 668
Flags: HW
TeX: 472 0
ItalicCorrection: 111
HStem: -6 76<289.17 406.078 550.774 611.898> 402 76<185.679 253.489>
VStem: 69 83<304.111 366.186> 185 89<85.1237 237.59> 254 90<312.946 401.016> 545 83<364.461 465.538> 640 75<105.41 168.974>
AnchorPoint: "ogonek" 574 0 basechar 0
AnchorPoint: "affricate-below" 619 -194 basechar 0
AnchorPoint: "affricate-above" 842 694 basechar 0
AnchorPoint: "below" 333 0 basechar 0
AnchorPoint: "above" 453 478 basechar 0
LayerCount: 2
Fore
SplineSet
69 317 m 0
 69 345 132 478 243 478 c 0
 299 478 344 442 344 388 c 0xee
 344 341 274 221 274 140 c 0
 274 84 312 70 346 70 c 0
 405 70 465 130 492 239 c 0
 543 441 541 432 545 441 c 0
 549 450 563 472 591 472 c 0
 612 472 628 458 628 437 c 0
 628 429 625 420 623 412 c 2
 552 127 l 2
 550 120 548 112 548 105 c 0
 548 84 567 70 584 70 c 0
 623 70 627 155 640 165 c 0
 645 169 653 169 660 169 c 2
 691 169 l 2
 703 169 715 167 715 154 c 0
 715 141 673 -6 572 -6 c 0
 551 -6 495 0 468 53 c 1
 430 21 393 -6 331 -6 c 0
 264 -6 185 20 185 125 c 0xf6
 185 220 254 345 254 375 c 0
 254 391 243 402 228 402 c 0
 198 402 167 368 152 323 c 0
 146 305 140 304 126 304 c 0xee
 117 304 108 304 99 304 c 0
 79 304 69 305 69 317 c 0
EndSplineSet
EndChar

StartChar: v
Encoding: 118 118 127
Width: 572
Flags: HW
TeX: 472 0
ItalicCorrection: 118
HStem: -6 76<296.264 414.11> 402 76<184.979 253.012>
VStem: 69 82<304.117 364.261> 186 88<91.2207 239.476> 254 89<311.337 400.965> 509 88<264.121 443.876>
AnchorPoint: "affricate-below" 523 -194 basechar 0
AnchorPoint: "affricate-above" 746 694 basechar 0
AnchorPoint: "below" 347 0 basechar 0
AnchorPoint: "above" 389 478 basechar 0
LayerCount: 2
Fore
SplineSet
69 318 m 0
 69 346 132 478 242 478 c 0
 299 478 343 442 343 388 c 0xec
 343 339 274 224 274 145 c 0
 274 95 305 74 348 70 c 1
 358 70 l 2
 424 70 459 135 493 265 c 0
 498 284 509 322 509 354 c 0
 509 396 491 401 491 424 c 0
 491 453 521 478 546 478 c 0
 576 478 597 445 597 393 c 0
 597 309 526 -6 345 -6 c 0
 272 -6 186 21 186 129 c 0xf4
 186 221 254 346 254 374 c 0
 254 391 243 402 227 402 c 0
 212 402 176 393 151 322 c 0
 145 306 140 304 124 304 c 0xec
 114 304 105 304 95 304 c 0
 81 304 69 305 69 318 c 0
EndSplineSet
EndChar

StartChar: w
Encoding: 119 119 128
Width: 828
Flags: HW
TeX: 472 0
ItalicCorrection: 118
HStem: -6 76<298.337 417.334 566.582 674.787> 402 76<187.047 252.187>
VStem: 69 82<304.026 363.725> 187 88<93.8449 241.269> 254 90<312.349 400.821> 530 82<366.456 465.177> 765 88<267.586 444.422>
AnchorPoint: "affricate-below" 779 -194 basechar 0
AnchorPoint: "affricate-above" 1002 694 basechar 0
AnchorPoint: "below" 491 0 basechar 0
AnchorPoint: "above" 575 478 basechar 0
LayerCount: 2
Fore
SplineSet
69 318 m 0
 69 347 132 478 241 478 c 0
 312 478 344 430 344 388 c 0xee
 344 340 275 226 275 148 c 0
 275 86 324 70 368 70 c 0
 408 70 443 101 468 201 c 0
 526 435 525 433 530 443 c 0
 543 468 567 472 576 472 c 0
 597 472 612 458 612 437 c 0
 612 407 546 197 546 145 c 0
 546 85 592 70 631 70 c 0
 657 70 680 80 703 125 c 0
 727 172 765 308 765 354 c 0
 765 396 747 403 747 424 c 0
 747 455 780 478 803 478 c 0
 833 478 853 445 853 392 c 0
 853 343 798 -6 621 -6 c 2
 617 -6 l 2
 551 -6 503 13 476 55 c 1
 449 25 416 -6 357 -6 c 0
 275 -6 187 22 187 132 c 0xf6
 187 223 254 346 254 375 c 0
 254 391 244 402 228 402 c 0
 197 402 167 368 151 320 c 0
 146 306 142 304 127 304 c 2xee
 94 304 l 2
 81 304 69 305 69 318 c 0
EndSplineSet
EndChar

StartChar: x
Encoding: 120 120 129
Width: 574
Flags: HW
TeX: 472 0
ItalicCorrection: 134
HStem: -6 76<164.01 253.135 370.352 490.548> 402 76<198.156 317.105 435.227 525.434>
VStem: 69 85<304.092 359.703> 75 103<100.703 164.691> 512 102<307.625 371.066> 535 85<114.234 168.582>
AnchorPoint: "affricate-below" 525 -194 basechar 0
AnchorPoint: "affricate-above" 748 694 basechar 0
AnchorPoint: "below" 285 0 basechar 0
AnchorPoint: "above" 405 478 basechar 0
LayerCount: 2
Fore
SplineSet
69 317 m 0
 69 353 144 478 275 478 c 0
 342 478 372 451 387 435 c 1
 423 461 456 478 501 478 c 0
 567 478 614 434 614 370 c 0
 614 309 577 291 552 291 c 0
 528 291 512 307 512 329 c 0xe8
 512 337 512 352 530 372 c 1
 523 388 513 402 488 402 c 0
 459 402 434 384 424 367 c 0
 415 352 363 142 363 120 c 0
 363 82 390 70 426 70 c 0
 481 70 520 111 535 145 c 0
 545 168 543 169 572 169 c 2
 594 169 l 2
 606 169 620 168 620 155 c 0
 620 118 543 -6 414 -6 c 0
 347 -6 317 21 302 37 c 1
 301 37 l 1
 278 18 238 -6 188 -6 c 0
 125 -6 75 38 75 103 c 0
 75 164 112 181 137 181 c 0
 161 181 178 165 178 143 c 0xd4
 178 130 172 115 159 100 c 1
 164 86 176 70 201 70 c 0
 226 70 252 85 264 104 c 0
 270 114 273 125 276 136 c 0
 319 306 326 331 326 352 c 0
 326 389 299 402 263 402 c 0
 215 402 172 368 154 328 c 0
 144 304 145 304 124 304 c 0xe0
 113 304 103 304 92 304 c 0
 81 304 69 305 69 317 c 0
EndSplineSet
EndChar

StartChar: y
Encoding: 121 121 130
Width: 604
Flags: HW
TeX: 472 194
ItalicCorrection: 97
HStem: -200 75<223.328 346.132> -6 76<289.364 406.061> 402 76<185.724 252.107>
VStem: 69 82<304.026 361.926> 130 101<-117.531 -63.399> 185 89<85.2795 237.659> 254 90<312.531 400.936> 546 82<369.34 465.538>
DStem2: 382.484 -200 470.234 -200 0.242599 0.970127<131.802 237.082 334.676 677.077>
AnchorPoint: "affricate-below" 555 -194 basechar 0
AnchorPoint: "affricate-above" 778 694 basechar 0
AnchorPoint: "below" 236 -194 basechar 0
AnchorPoint: "above" 453 478 basechar 0
LayerCount: 2
Fore
SplineSet
69 318 m 0
 69 348 134 478 241 478 c 0
 311 478 344 431 344 388 c 0xf3
 344 338 274 222 274 140 c 0xe5
 274 84 312 70 346 70 c 0
 430 70 475 181 486 215 c 0
 491 230 538 430 546 444 c 0
 555 460 572 472 591 472 c 0
 611 472 628 458 628 437 c 0
 628 427 625 417 623 411 c 2
 526 23 l 2
 520 0 504 -108 375 -171 c 0
 338 -189 296 -200 254 -200 c 0
 180 -200 130 -165 130 -114 c 0
 130 -75 157 -49 190 -49 c 0
 212 -49 231 -64 231 -87 c 0xeb
 231 -98 227 -108 222 -118 c 1
 230 -121 243 -125 265 -125 c 0
 338 -125 406 -73 429 -10 c 0
 434 3 437 17 440 30 c 1
 406 8 377 -6 331 -6 c 0
 265 -6 185 21 185 125 c 0xe5
 185 221 254 345 254 375 c 0
 254 391 243 402 228 402 c 0
 197 402 166 366 151 320 c 0
 146 306 142 304 127 304 c 2xf3
 94 304 l 2
 81 304 69 305 69 318 c 0
EndSplineSet
EndChar

StartChar: z
Encoding: 122 122 131
Width: 508
Flags: HW
TeX: 472 0
ItalicCorrection: 158
HStem: -6 87<289.224 431.617> 391 87<234.554 369.279>
VStem: 144 416<360 466> 473 82<119.42 168.932>
DStem2: 345 311 130 -2 0.714213 0.699929<-136.373 70.0071>
AnchorPoint: "affricate-below" 459 -194 basechar 0
AnchorPoint: "affricate-above" 682 694 basechar 0
AnchorPoint: "below" 285 0 basechar 0
AnchorPoint: "above" 405 478 basechar 0
LayerCount: 2
Fore
SplineSet
57 6 m 0
 57 11 59 16 70 33 c 0
 132 127 227 205 345 311 c 1
 395 360 l 1
 361 371 328 391 291 391 c 0
 231 391 227 351 213 347 c 0
 206 345 199 346 192 346 c 2
 174 346 l 2
 157 346 144 347 144 360 c 0
 144 394 209 478 304 478 c 0
 363 478 407 428 443 428 c 0
 471 428 466 478 505 478 c 0
 514 478 523 478 532 478 c 0
 547 478 560 477 560 466 c 0xe0
 560 437 465 339 463 337 c 0
 396 268 343 232 228 120 c 1
 280 115 321 81 366 81 c 0
 420 81 460 119 473 152 c 0
 480 168 486 169 499 169 c 2xd0
 530 169 l 2
 543 169 555 168 555 155 c 0xd0
 555 113 473 -6 352 -6 c 0
 289 -6 257 45 206 45 c 0
 162 45 141 5 130 -2 c 0
 124 -6 118 -6 112 -6 c 2
 78 -6 l 2
 67 -6 57 -4 57 6 c 0
EndSplineSet
EndChar

StartChar: braceleft
Encoding: 123 123 132
Width: 636
Flags: HW
TeX: 750 250
ItalicCorrection: 161
HStem: -250 72<345.076 489.369> 212 72<153.995 261.427> 674 76<543.632 713.768>
VStem: 240 89<-159.777 -47.2441> 303 88<34.1381 177.062>
LayerCount: 2
Fore
SplineSet
146 227 m 0
 146 228 154 277 164 284 c 0
 178 294 223 280 297 314 c 0
 358 343 369 381 376 409 c 0
 432 631 431 633 439 649 c 0
 472 718 565 750 673 750 c 2xe8
 709 750 l 2
 721 750 729 747 729 735 c 0
 729 731 720 688 714 681 c 0
 709 675 707 675 657 674 c 0
 523 670 520 637 511 601 c 0
 456 382 457 381 450 365 c 0
 422 303 364 269 295 249 c 1
 365 225 391 181 391 136 c 0xe8
 391 102 329 -114 329 -133 c 0
 329 -188 478 -167 493 -178 c 0
 496 -180 498 -185 498 -190 c 0
 498 -199 494 -213 488 -233 c 0
 483 -249 477 -250 462 -250 c 2
 436 -250 l 2
 269 -250 240 -188 240 -147 c 0xf0
 240 -110 303 98 303 131 c 0
 303 163 277 206 174 212 c 0
 162 213 146 211 146 227 c 0
EndSplineSet
EndChar

StartChar: bar
Encoding: 124 124 133
Width: 381
Flags: HW
TeX: 750 250
ItalicCorrection: 89
HStem: 729 20G<356 376.5>
DStem2: 95.2456 -249 157.748 -249 0.242599 0.970127<31.8828 1012.12>
LayerCount: 2
Fore
SplineSet
105 -219 m 0
 105 -210 108 -197 111 -186 c 2
 334 704 l 2
 339 724 343 749 369 749 c 0
 384 749 398 737 398 719 c 0
 398 710 396 701 394 693 c 2
 166 -216 l 2
 159 -247 140 -249 134 -249 c 0
 119 -249 105 -237 105 -219 c 0
EndSplineSet
EndChar

StartChar: braceright
Encoding: 125 125 134
Width: 636
Flags: HW
TeX: 750 250
ItalicCorrection: 36
HStem: 208 80<498.97 603.207> 675 75<270.863 419.944>
VStem: 369 87<322.89 467.649> 431 88<545.299 660.329>
LayerCount: 2
Fore
SplineSet
30 -236 m 0
 30 -229 40 -188 45 -181 c 0
 59 -164 202 -193 238 -133 c 0
 250 -114 295 100 310 135 c 0
 338 197 394 230 464 251 c 1
 394 276 369 319 369 364 c 0xe0
 369 383 370 385 427 612 c 0
 429 619 431 626 431 633 c 0
 431 666 379 674 280 675 c 0
 267 675 262 679 262 689 c 0
 262 698 266 712 272 733 c 0
 277 749 283 750 298 750 c 2xd0
 324 750 l 2
 491 750 519 687 519 646 c 0xd0
 519 609 456 402 456 369 c 0
 456 320 510 292 586 288 c 0
 596 287 614 289 614 273 c 0
 614 269 609 248 604 231 c 0
 597 205 586 217 534 208 c 0
 398 184 387 104 384 91 c 0
 329 -131 328 -133 321 -149 c 0
 288 -218 196 -250 88 -250 c 2
 50 -250 l 2
 38 -250 30 -248 30 -236 c 0
EndSplineSet
EndChar

StartChar: asciitilde
Encoding: 126 126 135
Width: 764
Flags: HW
TeX: 694 0
ItalicCorrection: 109
HStem: 538 94<564.265 690.612> 600 94<376.988 504.568>
LayerCount: 2
Fore
SplineSet
272 582 m 0
 272 594 286 604 323 635 c 0
 355 661 402 694 455 694 c 0x40
 529 694 569 632 629 632 c 0
 692 632 739 693 759 693 c 0x80
 774 693 797 662 797 650 c 0
 797 640 792 635 748 598 c 0
 716 572 667 538 614 538 c 0x80
 540 538 499 600 441 600 c 0
 377 600 331 539 311 539 c 0
 296 539 272 570 272 582 c 0
EndSplineSet
EndChar

StartChar: Abreve
Encoding: 258 258 137
Width: 908
Flags: HW
TeX: 994 0
HStem: 0 75<83.2734 173.202 264 304.23 611.855 672 771 841.709> 207 75<398 640> 687 20<604.5 661> 787 79<599.329 741.454>
VStem: 495 76<896.19 992.789> 813 80<929.451 992.325>
DStem2: 174 77 264 76 0.546013 0.837776<48.3034 218.984 294.051 656.3> 680 676 595 586 0.149708 -0.98873<76.2606 383.571 459.523 593.029>
AnchorPoint: "below" 453 0 basechar 0
AnchorPoint: "above" 698 973 basechar 0
LayerCount: 2
Fore
SplineSet
495 936 m 0
 495 991 510 994 530 994 c 2
 544 994 l 2
 559 994 574 992 574 972 c 0
 574 963 571 958 571 946 c 0
 571 898 612 866 665 866 c 0
 724 866 787 904 813 961 c 0
 822 981 820 994 849 994 c 2
 863 994 l 2
 873 994 893 994 893 974 c 0
 893 929 806 787 655 787 c 0
 564 787 495 846 495 936 c 0
EndSplineSet
Refer: 74 65 S 1 0 0 1 0 0 3
AlternateSubs2: "Stilistic set 01 subtable" Abreve.vn
AlternateSubs2: "Latin alternatives subtable" Abreve.vn
Substitution2: "Latin Vietnamese substitutions subtable" Abreve.vn
EndChar

StartChar: Aogonek
Encoding: 260 260 138
Width: 908
Flags: HW
TeX: 694 194
HStem: -205 82<666 764.895> -0 75<83.2368 173.202 264 304.23 612.119 672 771 841.575> 207 75<398 640> 687 20G<604.5 661>
VStem: 597 98<-122.208 -55.3365>
DStem2: 174 77 264 76 0.546013 0.837776<48.3034 217.039 294.051 656.3> 680 676 595 586 0.149708 -0.98873<76.2606 383.571 459.523 593.029>
AnchorPoint: "above" 631 706 basechar 0
LayerCount: 2
Fore
SplineSet
76 21 m 1
 76 21 80 61 94 71 c 0
 102 76 113 75 122 75 c 0
 139 75 157 76 174 77 c 1
 567 680 l 2
 583 704 595 707 614 707 c 2
 649 707 l 2
 673 707 677 693 680 676 c 2
 771 75 l 1
 820 75 l 2
 832 75 849 73 849 54 c 1
 849 54 844 15 832 5 c 0
 826 1 820 0 813 -0 c 2
 796 -0 l 2
 756 0 695 -61 695 -99 c 0
 695 -113 703 -123 715 -123 c 0
 736 -123 751 -101 765 -101 c 0
 778 -101 808 -127 808 -140 c 0
 808 -160 750 -205 692 -205 c 0
 640 -205 597 -171 597 -119 c 0
 597 -65 644 -23 673 -0 c 1
 635 -0 l 2
 626 0 605 0 605 21 c 1
 605 21 609 64 624 72 c 0
 630 75 637 75 644 75 c 2
 672 75 l 1
 652 207 l 1
 363 207 l 2
 345 207 353 212 264 76 c 1
 288 75 311 78 311 54 c 0
 311 46 308 37 306 28 c 0
 301 5 293 1 276 -0 c 1
 105 -0 l 2
 95 0 76 0 76 21 c 1
398 282 m 1
 640 282 l 1
 595 586 l 1
 398 282 l 1
EndSplineSet
Ligature2: "Latin ligatures subtable" A uni0328
EndChar

StartChar: Cacute
Encoding: 262 262 139
Width: 892
Flags: HW
TeX: 889 0
ItalicCorrection: 141
HStem: -11 75<385.318 614.464> 435 271<650 856 884 950> 630 76<523.07 753.177>
VStem: 168 96<168.354 374.878> 825 85<435.134 539.382>
AnchorPoint: "below" 480 0 basechar 0
AnchorPoint: "above" 696 888 basechar 0
LayerCount: 2
Fore
SplineSet
577 821 m 0
 577 843 595 846 611 851 c 0
 776 907 775 908 787 908 c 0
 810 908 824 890 824 871 c 0
 824 824 777 821 622 773 c 0
 615 771 609 768 602 768 c 0x98
 590 768 577 773 577 821 c 0
EndSplineSet
Refer: 76 67 S 1 0 0 1 0 0 3
EndChar

StartChar: Ccaron
Encoding: 268 268 140
Width: 892
Flags: HW
TeX: 994 0
ItalicCorrection: 141
HStem: -11 75<385.318 614.464> 435 271<650 856 884 950> 630 76<523.07 753.177> 816 88<683.629 761.466>
VStem: 168 96<168.354 374.878> 825 85<435.134 539.382>
AnchorPoint: "below" 480 0 basechar 0
AnchorPoint: "above" 709 940 basechar 0
LayerCount: 2
Fore
SplineSet
579 934 m 0
 579 947 592 960 604 960 c 0x9c
 620 960 717 904 730 904 c 0
 749 904 869 960 886 960 c 0
 899 960 908 948 908 936 c 0
 908 921 892 913 878 905 c 0
 728 817 728 816 720 816 c 2
 719 816 l 2
 707 816 693 830 683 838 c 0
 603 905 579 918 579 934 c 0
EndSplineSet
Refer: 76 67 S 1 0 0 1 -0 -0 3
EndChar

StartChar: Dcaron
Encoding: 270 270 141
Width: 932
Flags: HW
TeX: 994 0
ItalicCorrection: 89
HStem: -0 75<121.286 201 295 614.699> 619 75<272.68 337 430 740.848> 816 88<585.99 664.127>
VStem: 841 94<319.723 528.817>
DStem2: 182.245 -0 276.245 -0 0.242599 0.970127<100.114 638.052>
AnchorPoint: "below" 443 0 basechar 0
AnchorPoint: "above" 681 951 basechar 0
LayerCount: 2
Fore
SplineSet
482 934 m 0
 482 947 495 960 507 960 c 0
 523 960 619 904 632 904 c 0
 651 904 772 960 789 960 c 0
 802 960 810 948 810 936 c 0
 810 924 802 917 781 905 c 0
 631 817 630 816 622 816 c 2
 621 816 l 2
 609 816 595 830 585 838 c 0
 505 905 482 918 482 934 c 0
EndSplineSet
Refer: 77 68 S 1 0 0 1 -0 -0 3
EndChar

StartChar: Ecaron
Encoding: 282 282 142
Width: 794
Flags: HW
TeX: 994 0
ItalicCorrection: 116
HStem: -0 75<117.169 200 296 641.525> 321 76<376 517.19> 617 75<274.285 336 432 745.762> 816 88<540.99 619.127>
VStem: 537 102<400.986 471.561> 747 94<486.994 612.861>
DStem2: 181.245 -0 277.245 -0 0.242599 0.970127<100.599 354.291 432.388 636.112>
AnchorPoint: "below" 417 0 basechar 0
AnchorPoint: "above" 655 954 basechar 0
LayerCount: 2
Fore
SplineSet
437 934 m 0
 437 947 450 960 462 960 c 0
 478 960 574 904 587 904 c 0
 606 904 726 960 743 960 c 0
 756 960 765 948 765 936 c 0
 765 924 757 917 736 905 c 0
 586 817 585 816 577 816 c 2
 576 816 l 2
 564 816 550 830 540 838 c 0
 460 905 437 918 437 934 c 0
EndSplineSet
Refer: 78 69 S 1 0 0 1 0 -0 3
EndChar

StartChar: Eogonek
Encoding: 280 280 143
Width: 794
Flags: HW
TeX: 694 194
ItalicCorrection: 116
HStem: -205 82<480.5 579.279> -0 75<117.086 200 296 487 560.074 641.214> 321 76<376 517.19> 617 75<274.285 336 432 745.762>
VStem: 410 99<-122.209 -55.9634> 537 102<400.986 471.561> 747 94<486.948 612.861>
DStem2: 129.98 -205 225.98 -205 0.242599 0.970127<311.912 565.604 643.7 847.424>
AnchorPoint: "above" 561 706 basechar 0
LayerCount: 2
Fore
SplineSet
110 21 m 1
 110 21 114 60 127 70 c 0
 134 75 143 75 152 75 c 2
 200 75 l 1
 336 617 l 1
 295 617 l 2
 283 617 264 617 264 638 c 0
 264 644 270 670 274 678 c 0
 280 691 291 692 302 692 c 2
 811 692 l 2
 826 692 841 690 841 668 c 0
 841 661 827 548 820 488 c 0
 817 462 805 461 787 461 c 2
 768 461 l 2
 745 461 738 469 738 486 c 0
 738 506 747 540 747 591 c 2
 747 610 l 1
 721 615 668 617 616 617 c 2
 432 617 l 1
 431 616 l 1
 376 397 l 1
 446 397 l 2
 476 397 507 397 537 400 c 1
 563 469 551 490 589 490 c 2
 609 490 l 2
 621 490 639 488 639 469 c 0
 639 460 640 467 590 268 c 0
 582 240 583 228 552 228 c 2
 536 228 l 2
 512 228 505 235 505 249 c 0
 505 264 512 287 518 319 c 1
 490 321 461 321 433 321 c 2
 358 321 l 1
 296 75 l 1
 452 75 l 1
 627 76 630 79 643 99 c 0
 662 128 688 191 706 233 c 0
 714 252 719 256 739 256 c 2
 759 256 l 2
 760 256 761 257 763 257 c 0
 771 257 789 254 789 236 c 0
 789 227 789 232 704 30 c 0
 694 5 689 0 667 -0 c 2
 612 -0 l 2
 568 0 509 -61 509 -100 c 0
 509 -114 517 -123 529 -123 c 0
 549 -123 564 -101 579 -101 c 0
 592 -101 622 -127 622 -140 c 0
 622 -158 566 -205 506 -205 c 0
 455 -205 410 -171 410 -119 c 0
 410 -72 447 -29 487 -0 c 1
 138 -0 l 2
 122 0 110 5 110 21 c 1
EndSplineSet
EndChar

StartChar: Gbreve
Encoding: 286 286 144
Width: 960
Flags: HW
TeX: 994 0
ItalicCorrection: 73
HStem: -11 75<384.699 693.531> 216 75<624.624 754 850 935.235> 597 109<895.435 950.172> 631 75<526.023 858.027> 787 79<624.961 766.169>
VStem: 168 96<167.617 378.097> 520 77<896.19 992.789> 838 80<929.451 992.325>
DStem2: 695.991 -11 793.234 -11 0.242599 0.970127<97.4694 234.292>
LayerCount: 2
Fore
SplineSet
168 252 m 0
 168 442 321 706 657 706 c 2
 673 706 l 2xdf
 800 706 847 695 885 679 c 1
 933 704 935 706 948 706 c 0
 964 706 968 700 968 691 c 0
 968 684 965 677 951 620 c 0
 945 598 940 597 925 597 c 2xef
 890 597 l 2xef
 849 597 885 619 790 627 c 0
 758 630 705 631 684 631 c 0
 322 631 264 357 264 262 c 0
 264 114 380 64 524 64 c 0
 593 64 701 62 728 117 c 0
 734 129 745 183 754 216 c 1
 646 216 l 2
 637 216 617 216 617 237 c 0
 617 244 619 252 621 258 c 0
 630 291 635 291 659 291 c 2
 916 291 l 1
 938 290 942 279 942 270 c 1
 942 270 938 227 923 219 c 0
 915 215 905 216 897 216 c 2
 850 216 l 1
 800 18 l 2
 797 7 792 2 787 2 c 0
 777 2 764 17 752 35 c 1
 709 9 652 -11 486 -11 c 0
 219 -11 168 147 168 252 c 0
520 936 m 0
 520 991 535 994 555 994 c 2
 569 994 l 2
 584 994 599 992 599 972 c 0
 599 963 597 958 597 946 c 0
 597 898 638 866 690 866 c 0
 753 866 815 909 838 961 c 0
 847 981 845 994 874 994 c 2xcf
 887 994 l 2
 897 994 918 994 918 974 c 0
 918 929 830 787 680 787 c 0
 590 787 520 846 520 936 c 0
EndSplineSet
EndChar

StartChar: Lacute
Encoding: 313 313 145
Width: 731
Flags: HW
TeX: 889 0
HStem: 0 75<117.59 200 296 569.583> 619 75<271.765 336 432 534.41>
DStem2: 181.245 0 277.245 0 0.242599 0.970127<100.599 638.052>
LayerCount: 2
Fore
SplineSet
315 821 m 0
 315 843 332 846 348 851 c 0
 513 907 513 908 525 908 c 0
 548 908 562 890 562 871 c 0
 562 851 550 832 516 821 c 0
 358 772 347 768 339 768 c 0
 327 768 315 773 315 821 c 0
EndSplineSet
Refer: 85 76 S 1 0 0 1 0 0 3
EndChar

StartChar: Lcaron
Encoding: 317 317 146
Width: 731
Flags: HW
TeX: 994 0
HStem: -0 75<117.59 200 296 569.583> 619 75<271.765 336 432 534.41>
VStem: 606 137<687.089 776.736>
DStem2: 181.245 -0 277.245 -0 0.242599 0.970127<100.599 638.052>
LayerCount: 2
Fore
SplineSet
574 595 m 0
 574 613 614 610 654 677 c 1
 611 682 606 711 606 726 c 0
 606 766 641 801 682 801 c 0
 718 801 743 773 743 730 c 0
 743 637 640 549 613 549 c 0
 600 549 574 587 574 595 c 0
EndSplineSet
Refer: 85 76 S 1 0 0 1 0 -0 3
EndChar

StartChar: Lslash
Encoding: 321 321 147
Width: 731
Flags: HW
TeX: 694 0
HStem: -0 75<117.59 200 296 569.583> 619 75<271.765 336 432 534.41>
DStem2: 181.245 -0 277.245 -0 0.242599 0.970127<100.599 281.525 487.445 638.052>
LayerCount: 2
Fore
SplineSet
110 21 m 1
 110 21 115 62 129 71 c 0
 136 76 146 75 154 75 c 2
 200 75 l 1
 250 273 l 1
 237 265 227 260 220 260 c 0
 203 260 188 299 188 308 c 0
 188 321 208 332 254 361 c 0
 290 384 266 361 336 619 c 1
 294 619 l 2
 283 619 265 620 265 640 c 1
 265 640 269 683 284 691 c 0
 289 694 296 694 302 694 c 2
 513 694 l 2
 523 694 542 693 542 673 c 1
 542 673 537 632 523 623 c 0
 518 620 513 619 507 619 c 2
 432 619 l 1
 389 448 l 1
 556 556 548 553 559 553 c 2
 560 553 l 2
 579 553 593 515 593 506 c 0
 593 494 583 489 570 480 c 0
 368 350 371 352 366 345 c 0
 359 335 296 75 296 75 c 1
 416 75 l 2
 568 75 563 77 585 128 c 0
 636 244 621 257 660 257 c 2
 682 257 l 2
 692 257 709 255 709 236 c 0
 709 227 710 233 634 24 c 0
 627 5 621 0 601 -0 c 2
 138 -0 l 2
 122 0 110 4 110 21 c 1
EndSplineSet
EndChar

StartChar: Nacute
Encoding: 323 323 148
Width: 950
Flags: HW
TeX: 889 0
ItalicCorrection: 130
HStem: 0 75<120.237 204 284 348.158> 619 75<274.864 339 774.088 838 914.288 1002.51>
DStem2: 184.745 0 264.995 0 0.242599 0.970127<97.8089 603.981> 461 666 407 567 0.453071 -0.891474<63.7901 575.578> 683.739 0 764.248 0 0.242599 0.970127<157.711 636.962>
LayerCount: 2
Fore
SplineSet
559 821 m 0
 559 843 577 846 593 851 c 0
 758 907 757 908 769 908 c 0
 792 908 806 890 806 871 c 0
 806 838 776 826 760 821 c 0
 602 772 592 768 584 768 c 0
 572 768 559 773 559 821 c 0
EndSplineSet
Refer: 87 78 S 1 0 0 1 -0 0 3
EndChar

StartChar: Ncaron
Encoding: 327 327 149
Width: 950
Flags: HW
TeX: 994 0
ItalicCorrection: 130
HStem: 0 75<120.237 204 284 348.158> 619 75<274.864 339 774.088 838 914.288 1002.51> 816 88<647.99 726.127>
DStem2: 184.745 0 264.995 0 0.242599 0.970127<97.8089 603.981> 461 666 407 567 0.453071 -0.891474<63.7901 575.578> 683.739 0 764.248 0 0.242599 0.970127<157.711 636.962>
LayerCount: 2
Fore
SplineSet
544 934 m 0
 544 947 557 960 569 960 c 0
 585 960 681 904 694 904 c 0
 713 904 834 960 851 960 c 0
 864 960 872 948 872 936 c 0
 872 924 864 917 843 905 c 0
 693 817 692 816 684 816 c 2
 683 816 l 2
 671 816 657 830 647 838 c 0
 567 905 544 918 544 934 c 0
EndSplineSet
Refer: 87 78 S 1 0 0 1 -0 -0 3
EndChar

StartChar: Eng
Encoding: 330 330 150
Width: 964
Flags: HW
TeX: 694 0
ItalicCorrection: 173
HStem: -11 75<613.019 764.264> 0 75<118.237 201 297 361.854> 619 75<273.148 337> 646 84<566.028 800.771>
VStem: 518 109<83.6541 150.515> 895 96<401.984 571.381>
DStem2: 179.494 -11 275.494 -11 0.242599 0.970127<111.938 601.463> 770.238 -11 866.738 -11 0.242599 0.970127<103.096 528.884>
LayerCount: 2
Fore
SplineSet
111 21 m 1
 111 21 115 61 129 71 c 0
 136 76 146 75 154 75 c 2
 201 75 l 1
 337 619 l 1x6c
 297 619 l 2
 285 619 266 620 266 641 c 1
 266 641 270 682 285 691 c 0
 290 694 296 694 302 694 c 2
 420 694 l 2x6c
 434 694 446 690 446 674 c 0
 446 666 443 658 441 650 c 1
 511 695 601 730 707 730 c 0
 869 730 991 643 991 514 c 0
 991 486 985 465 980 445 c 2
 911 166 l 2
 901 125 890 83 840 41 c 0
 795 4 737 -11 679 -11 c 0
 594 -11 518 24 518 94 c 0
 518 149 556 168 582 168 c 0
 607 168 627 151 627 125 c 0
 627 108 621 97 611 83 c 1
 624 75 641 64 687 64 c 0
 801 64 814 164 815 168 c 2
 885 446 l 2
 890 464 895 482 895 504 c 0
 895 589 806 646 689 646 c 0x9c
 544 646 419 562 399 482 c 2
 325 185 l 2
 316 148 305 112 297 75 c 1
 339 75 l 2
 350 75 369 75 369 54 c 1
 369 54 365 12 350 4 c 0
 343 0 334 0 327 0 c 2
 141 0 l 2
 130 0 111 0 111 21 c 1
EndSplineSet
EndChar

StartChar: Ohungarumlaut
Encoding: 336 336 151
Width: 914
Flags: HW
TeX: 889 0
ItalicCorrection: 89
HStem: -11 83<368.488 594.173> 625 81<488.527 724.524>
VStem: 166 100<166.605 368.568> 825 93<325.665 533.441>
AnchorPoint: "below" 456 0 basechar 0
AnchorPoint: "above" 679 888 basechar 0
LayerCount: 2
Fore
SplineSet
493 821 m 0
 493 841 508 845 520 849 c 0
 694 908 691 908 703 908 c 0
 725 908 740 892 740 868 c 0
 740 865 740 862 739 858 c 1
 863 900 880 908 895 908 c 0
 918 908 932 891 932 871 c 0
 932 841 907 828 885 821 c 0
 722 770 714 768 708 768 c 0
 685 768 687 798 685 818 c 1
 535 772 524 768 517 768 c 0
 504 768 493 775 493 821 c 0
EndSplineSet
Refer: 88 79 S 1 0 0 1 -0 -0 3
EndChar

StartChar: Racute
Encoding: 340 340 152
Width: 900
Flags: HW
TeX: 889 0
ItalicCorrection: 18
HStem: -11 75<717.499 800.093> 0 75<119.237 202 296 359.764> 310 75<373 608.724> 619 75<277.332 338 431 708.7>
VStem: 615 97<72.1186 198.543> 644 96<142.825 278.961> 758 97<462.509 578.517>
DStem2: 180.494 -11 274.494 -11 0.242599 0.970127<111.453 353.503 430.872 649.391>
AnchorPoint: "below" 396 0 basechar 0
AnchorPoint: "above" 621 900 basechar 0
LayerCount: 2
Fore
SplineSet
538 821 m 0
 538 843 556 846 572 851 c 0
 737 907 736 908 748 908 c 0
 771 908 785 890 785 871 c 0
 785 836 750 825 739 821 c 0
 581 772 571 768 563 768 c 0x32
 551 768 538 773 538 821 c 0
EndSplineSet
Refer: 91 82 S 1 0 0 1 -0 0 3
EndChar

StartChar: Rcaron
Encoding: 344 344 153
Width: 900
Flags: HW
TeX: 994 0
ItalicCorrection: 18
HStem: -11 75<717.499 800.093> -0 75<119.237 202 296 359.764> 310 75<373 608.724> 619 75<277.332 338 431 708.7> 816 88<564.816 643.912>
VStem: 615 97<72.1186 198.543> 644 96<142.825 278.961> 758 97<462.509 578.517>
DStem2: 180.494 -11 274.494 -11 0.242599 0.970127<111.453 353.503 430.872 649.391>
AnchorPoint: "below" 396 0 basechar 0
AnchorPoint: "above" 634 952 basechar 0
LayerCount: 2
Fore
SplineSet
461 934 m 0
 461 947 474 960 486 960 c 0x39
 502 960 599 904 612 904 c 0
 631 904 751 960 768 960 c 0
 781 960 789 948 789 936 c 0
 789 921 774 913 760 905 c 0
 610 817 609 816 601 816 c 0
 589 816 574 830 564 838 c 0
 484 905 461 918 461 934 c 0
EndSplineSet
Refer: 91 82 S 1 0 0 1 -0 -0 3
EndChar

StartChar: Sacute
Encoding: 346 346 154
Width: 700
Flags: HW
TeX: 889 0
ItalicCorrection: 109
HStem: -11 75<284.193 484.66> -11 242<200 379> 636 70<382.802 563.1>
VStem: 95 129<-2.5 196.288> 219 88<453.138 563.021> 570 88<143.686 266.772>
AnchorPoint: "below" 382 0 basechar 0
AnchorPoint: "above" 537 888 basechar 0
LayerCount: 2
Fore
SplineSet
418 821 m 0
 418 843 435 846 451 851 c 0
 616 907 616 908 628 908 c 0
 651 908 665 890 665 871 c 0
 665 851 653 832 619 821 c 0
 461 772 451 768 443 768 c 0x24
 431 768 418 773 418 821 c 0
EndSplineSet
Refer: 92 83 S 1 0 0 1 0 0 3
EndChar

StartChar: Scaron
Encoding: 352 352 155
Width: 700
Flags: HW
TeX: 994 0
ItalicCorrection: 109
HStem: -11 75<284.193 484.66> -11 242<200 379> 636 70<382.802 563.1> 816 88<522.99 600.466>
VStem: 95 129<-2.5 196.288> 219 88<453.138 563.021> 570 88<143.686 266.772>
AnchorPoint: "below" 382 0 basechar 0
AnchorPoint: "above" 550 940 basechar 0
LayerCount: 2
Fore
SplineSet
419 934 m 0
 419 947 432 960 444 960 c 0x32
 460 960 556 904 569 904 c 0
 588 904 709 960 726 960 c 0
 739 960 747 948 747 936 c 0
 747 921 731 913 717 905 c 0
 567 817 567 816 559 816 c 2
 558 816 l 2
 546 816 532 830 522 838 c 0
 442 905 419 918 419 934 c 0
EndSplineSet
Refer: 92 83 S 1 0 0 1 -0 -0 3
EndChar

StartChar: Scedilla
Encoding: 350 350 156
Width: 700
Flags: HW
TeX: 694 170
ItalicCorrection: 109
HStem: -200 76<205.575 395.985> 636 70<386.363 563.1>
VStem: 95 129<-3.5 196.288> 146 82<177.839 230.958> 218 89<453.971 563.021> 410 89<-106.726 -65.0777> 570 88<145.665 266.826>
LayerCount: 2
Fore
SplineSet
95 3 m 0xe6
 95 10 129 140 146 209 c 0
 152 230 157 231 171 231 c 2xd6
 200 231 l 2
 217 231 228 231 228 216 c 0xd6
 228 207 224 195 224 177 c 0xe6
 224 87 318 64 390 64 c 0
 521 64 570 158 570 211 c 0
 570 244 551 276 511 293 c 0
 484 304 359 327 323 340 c 0
 274 358 218 403 218 479 c 0
 218 570 304 706 491 706 c 0
 592 706 635 666 660 637 c 1
 707 703 713 705 722 705 c 2
 724 705 l 2
 736 705 745 703 745 691 c 0
 745 687 694 484 693 482 c 0
 688 465 681 463 669 463 c 2
 641 463 l 2
 616 463 611 467 611 479 c 0
 611 486 613 496 613 510 c 0
 613 570 586 636 478 636 c 0
 362 636 307 557 307 504 c 0xce
 307 410 454 417 549 384 c 0
 606 364 658 314 658 235 c 0
 658 148 588 26 451 -3 c 1
 451 -4 l 1
 468 -13 499 -32 499 -75 c 0
 499 -119 469 -165 396 -185 c 0
 346 -198 281 -200 239 -200 c 2
 229 -200 l 2
 215 -200 198 -198 198 -178 c 0
 198 -174 199 -170 200 -165 c 0
 209 -130 211 -124 238 -124 c 2
 241 -124 l 2
 316 -124 410 -119 410 -83 c 0
 410 -65 376 -62 361 -61 c 0
 348 -60 329 -61 329 -39 c 0
 329 -33 330 -29 335 -9 c 1
 239 1 202 34 179 56 c 1
 130 -15 126 -11 118 -11 c 0
 106 -12 95 -10 95 3 c 0xe6
EndSplineSet
EndChar

StartChar: Tcaron
Encoding: 356 356 157
Width: 850
Flags: HW
TeX: 994 0
ItalicCorrection: 132
HStem: 0 75<279.581 395 491 582.667> 613 76<322.992 529 625 831> 816 88<597.99 676.127>
VStem: 191 73<458.385 515.625> 816 81<458.524 606.018> 831 95<530.085 611.617>
DStem2: 376.24 -0.0204082 472.24 -0.0204082 0.242599 0.970127<100.62 631.767>
AnchorPoint: "below" 423 0 basechar 0
AnchorPoint: "above" 663 957 basechar 0
LayerCount: 2
Fore
SplineSet
494 934 m 0
 494 947 507 960 519 960 c 0xf0
 535 960 631 904 644 904 c 0
 663 904 783 960 800 960 c 0
 813 960 822 948 822 936 c 0
 822 924 814 917 793 905 c 0
 643 817 642 816 634 816 c 2
 633 816 l 2
 621 816 607 830 597 838 c 0
 517 905 494 918 494 934 c 0
EndSplineSet
Refer: 93 84 S 1 0 0 1 0 -0 3
EndChar

StartChar: Tcommaaccent
Encoding: 354 354 158
Width: 850
Flags: HW
TeX: 694 170
ItalicCorrection: 132
HStem: -200 76<248.646 440.595> 0 75<279.323 380 491 586.839> 613 76<322.992 529 625 831>
VStem: 191 73<458.385 515.625> 453 89<-107.822 -65.2726> 816 81<458.524 606.018> 831 95<530.085 611.617>
DStem2: 326.231 -200 422.231 -200 0.242599 0.970127<306.758 837.905>
LayerCount: 2
Fore
SplineSet
191 478 m 0
 191 486 191 482 253 666 c 0
 259 684 266 689 285 689 c 2
 897 689 l 2xfc
 908 689 926 688 926 666 c 0xfa
 926 660 907 545 897 484 c 0
 893 459 881 458 864 458 c 2xfc
 845 458 l 2
 823 458 816 465 816 482 c 0xfc
 816 505 828 545 831 609 c 1xfa
 800 614 768 613 736 613 c 2
 625 613 l 1
 491 75 l 1
 568 75 l 1
 590 74 594 63 594 54 c 1
 594 54 590 12 575 4 c 0
 570 1 565 0 560 0 c 2
 486 0 l 1
 525 -17 542 -45 542 -75 c 0
 542 -119 513 -164 443 -184 c 0
 392 -199 325 -200 282 -200 c 2
 276 -200 l 2
 263 -200 241 -199 241 -180 c 0
 241 -175 243 -168 247 -151 c 0
 253 -128 259 -124 281 -124 c 2
 284 -124 l 2
 374 -124 453 -117 453 -84 c 0
 453 -73 440 -63 403 -61 c 0
 389 -60 372 -59 372 -39 c 0
 372 -31 375 -19 380 0 c 1
 299 0 l 2
 290 0 273 2 273 21 c 1
 273 21 276 64 292 72 c 0
 297 74 303 75 308 75 c 2
 395 75 l 1
 529 613 l 1
 451 613 l 2
 444 613 436 614 429 614 c 0
 375 614 343 611 322 607 c 1
 290 543 276 475 264 464 c 0
 258 459 251 458 244 458 c 2
 223 458 l 2
 212 458 191 458 191 478 c 0
EndSplineSet
EndChar

StartChar: Uhungarumlaut
Encoding: 368 368 159
Width: 929
Flags: HW
TeX: 889 0
ItalicCorrection: 130
HStem: -11 75<378.387 591.341> 619 75<271.765 336 426.839 514.763 750.088 814 894 982.763>
VStem: 233 95<108.662 287.016>
DStem2: 178.231 -11 274.732 -11 0.242599 0.970127<218.929 649.454> 657.231 -11 741.982 -11 0.242599 0.970127<158.318 648.242>
AnchorPoint: "below" 471 0 basechar 0
AnchorPoint: "above" 688 900 basechar 0
LayerCount: 2
Fore
SplineSet
500 821 m 0
 500 841 515 845 527 849 c 0
 701 908 698 908 710 908 c 0
 732 908 747 892 747 868 c 0
 747 865 747 862 746 858 c 1
 870 900 887 908 902 908 c 0
 925 908 939 891 939 871 c 0
 939 841 914 828 892 821 c 0
 729 770 722 768 716 768 c 0
 696 768 695 787 692 818 c 1
 689 817 536 768 524 768 c 0
 511 768 500 775 500 821 c 0
EndSplineSet
Refer: 94 85 S 1 0 0 1 0 -0 3
EndChar

StartChar: Uring
Encoding: 366 366 160
Width: 929
Flags: HW
TeX: 994 0
ItalicCorrection: 130
HStem: -11 75<378.387 591.341> 619 75<271.765 336 426.839 514.763 750.088 814 894 982.763> 711 76<617.432 723.466> 927 75<642.264 748.573>
VStem: 233 95<108.662 287.016> 549 65<791.998 896.69> 752 65<817.664 921.85>
DStem2: 178.231 -11 274.732 -11 0.242599 0.970127<218.929 649.454> 657.231 -11 741.982 -11 0.242599 0.970127<158.318 648.242>
LayerCount: 2
Fore
SplineSet
549 809 m 0
 549 894 611 1002 719 1002 c 0
 780 1002 817 965 817 905 c 0
 817 821 755 711 647 711 c 0
 586 711 549 749 549 809 c 0
614 826 m 0
 614 794 637 787 666 787 c 0
 719 787 737 815 748 864 c 0
 750 872 752 880 752 888 c 0
 752 919 729 927 701 927 c 0
 651 927 630 907 617 850 c 0
 615 843 614 834 614 826 c 0
EndSplineSet
Refer: 94 85 S 1 0 0 1 0 -0 3
EndChar

StartChar: Ydieresis
Encoding: 376 376 161
Width: 908
Flags: HW
TeX: 994 0
ItalicCorrection: 202
HStem: -0 75<342.237 426 518 583.235> 619 75<221.286 303 418 453.622 892.006 1015.02> 753 124<504.804 585.196 728.669 808.72>
VStem: 481 128<777.023 852.835> 705 127<776.779 853.152>
DStem2: 418 619 303 619 0.454513 -0.89074<0 287.116> 548 363 583 292 0.710548 0.703649<0 364.166>
AnchorPoint: "below" 453 0 basechar 0
AnchorPoint: "above" 670 869 basechar 0
LayerCount: 2
Fore
SplineSet
481 805 m 0
 481 840 516 877 556 877 c 0
 588 877 609 854 609 825 c 0
 609 789 574 753 534 753 c 0
 505 753 481 774 481 805 c 0
705 805 m 0
 705 841 740 877 779 877 c 0
 811 877 832 854 832 825 c 0
 832 789 798 753 758 753 c 0
 727 753 705 776 705 805 c 0
EndSplineSet
Refer: 98 89 S 1 0 0 1 0 -0 3
EndChar

StartChar: Zacute
Encoding: 377 377 162
Width: 764
Flags: HW
TeX: 889 0
ItalicCorrection: 141
HStem: 0 81<249 599.318> 619 75<359.22 690>
VStem: 233 82<463.793 552.913>
DStem2: 125 76 249 81 0.721005 0.69293<92.8692 783.629>
AnchorPoint: "below" 384 0 basechar 0
AnchorPoint: "above" 610 900 basechar 0
LayerCount: 2
Fore
SplineSet
482 821 m 0
 482 843 499 846 515 851 c 0
 680 907 680 908 692 908 c 0
 715 908 729 890 729 871 c 0
 729 851 717 832 683 821 c 0
 525 772 515 768 507 768 c 0
 495 768 482 773 482 821 c 0
EndSplineSet
Refer: 99 90 S 1 0 0 1 0 0 3
EndChar

StartChar: Zcaron
Encoding: 381 381 163
Width: 764
Flags: HW
TeX: 994 0
ItalicCorrection: 141
HStem: -0 81<249 599.318> 619 75<359.22 690> 816 88<555.99 634.127>
VStem: 233 82<463.793 552.913>
DStem2: 125 76 249 81 0.721005 0.69293<92.8692 783.629>
AnchorPoint: "below" 384 0 basechar 0
AnchorPoint: "above" 623 952 basechar 0
LayerCount: 2
Fore
SplineSet
452 934 m 0
 452 947 465 960 477 960 c 0
 493 960 589 904 602 904 c 0
 621 904 742 960 759 960 c 0
 772 960 780 948 780 936 c 0
 780 924 772 917 751 905 c 0
 601 817 600 816 592 816 c 2
 591 816 l 2
 579 816 565 830 555 838 c 0
 475 905 452 918 452 934 c 0
EndSplineSet
Refer: 99 90 S 1 0 0 1 -0 -0 3
EndChar

StartChar: Zdotaccent
Encoding: 379 379 164
Width: 764
Flags: HW
TeX: 889 0
ItalicCorrection: 141
HStem: 0 81<249 599.318> 619 75<359.22 690> 791 124<586.486 666.72>
VStem: 233 82<463.793 552.913> 563 127<814.779 890.835>
DStem2: 125 76 249 81 0.721005 0.69293<92.8692 783.629>
AnchorPoint: "below" 384 0 basechar 0
AnchorPoint: "above" 611 907 basechar 0
LayerCount: 2
Fore
SplineSet
563 843 m 0
 563 878 597 915 637 915 c 0
 669 915 690 892 690 863 c 0
 690 827 656 791 616 791 c 0
 587 791 563 812 563 843 c 0
EndSplineSet
Refer: 99 90 S 1 0 0 1 -0 0 3
EndChar

StartChar: IJ
Encoding: 306 306 165
Width: 1036
Flags: HW
TeX: 694 0
ItalicCorrection: 111
HStem: -11 75<612.689 765.722> 0 75<114.237 201 297 365.235> 619 75<268.765 337 433 519.763 846.285 931 1024 1087.85>
VStem: 518 109<83.7031 150.129>
DStem2: 182.245 0 278.245 0 0.242599 0.970127<100.599 638.052> 773.236 -11 866.237 -11 0.242599 0.970127<104.331 649.453>
LayerCount: 2
Fore
SplineSet
518 94 m 0
 518 148 556 168 582 168 c 0
 608 168 627 151 627 126 c 0
 627 113 622 98 611 83 c 1
 624 75 641 64 687 64 c 0
 808 64 817 166 823 188 c 2
 931 619 l 1
 865 619 l 2xb0
 856 619 836 619 836 640 c 0
 836 646 843 672 846 680 c 0
 852 694 863 694 874 694 c 2
 1066 694 l 2
 1076 694 1095 694 1095 673 c 1
 1095 673 1091 631 1076 623 c 0
 1070 619 1062 619 1055 619 c 2
 1024 619 l 1
 1012 570 l 1
 913 176 l 2
 903 134 894 84 838 39 c 0
 794 4 737 -11 681 -11 c 0
 582 -11 518 31 518 94 c 0
EndSplineSet
Refer: 82 73 S 1 0 0 1 0 0 2
Ligature2: "Latin Dutch ligatures subtable" I J
EndChar

StartChar: Idotaccent
Encoding: 304 304 166
Width: 461
Flags: HW
TeX: 889 0
ItalicCorrection: 157
HStem: -0 75<114.237 201 297 365.235> 619 75<268.765 337 433 519.763> 791 124<403.486 483.72>
VStem: 380 127<814.779 890.835>
DStem2: 182.245 -0 278.245 -0 0.242599 0.970127<100.599 638.052>
LayerCount: 2
Fore
SplineSet
380 843 m 0
 380 878 414 915 454 915 c 0
 486 915 507 892 507 863 c 0
 507 827 473 791 433 791 c 0
 404 791 380 812 380 843 c 0
EndSplineSet
Refer: 82 73 S 1 0 0 1 -0 -0 3
EndChar

StartChar: dcroat
Encoding: 273 273 167
Width: 636
Flags: HW
TeX: 694 0
ItalicCorrection: 111
HStem: -6 76<242.628 370.509 519.953 579.921> 402 76<317.549 447.049> 505 75<405.946 528 634 691.971> 674 20G<630.5 640>
VStem: 128 91<92.0588 267.62> 482 175<610.64 675.608> 609 74<103.9 168.985>
DStem2: 399.969 -6 486.967 -6 0.242599 0.970127<136.394 315.949 457.672 526.795 625.27 628.848>
LayerCount: 2
Fore
SplineSet
128 157 m 0
 128 295 228 478 402 478 c 0
 446 478 478 466 511 438 c 1
 528 505 l 1
 424 505 l 2
 404 505 399 514 399 526 c 0
 399 532 400 538 402 544 c 0
 408 567 408 580 436 580 c 2
 547 580 l 1
 553 606 l 1
 514 610 482 601 482 629 c 0
 482 636 489 668 496 676 c 0
 504 684 499 683 618 693 c 0
 623 693 628 694 633 694 c 0
 647 694 657 687 657 674 c 0xfc
 657 665 653 655 634 580 c 1
 670 580 l 2
 680 580 699 580 699 559 c 1
 699 559 695 518 681 509 c 0
 674 505 666 505 658 505 c 2
 615 505 l 1
 612 491 608 476 604 462 c 2
 520 126 l 2
 518 119 517 112 517 105 c 0
 517 85 534 71 551 71 c 0
 594 71 595 153 609 165 c 0xfa
 614 169 621 169 628 169 c 2
 660 169 l 2
 677 169 683 164 683 155 c 0xfa
 683 139 641 -6 540 -6 c 0
 521 -6 466 -1 438 51 c 1
 400 22 352 -6 286 -6 c 0
 202 -6 128 44 128 157 c 0
219 156 m 0
 219 87 263 70 300 70 c 0
 388 70 436 160 447 187 c 0
 449 191 473 270 473 303 c 0
 473 340 461 402 388 402 c 0xf8
 249 402 219 202 219 156 c 0
EndSplineSet
AlternateSubs2: "Stilistic set 01 subtable" dcroat.vn
AlternateSubs2: "Latin alternatives subtable" dcroat.vn
Substitution2: "Latin Vietnamese substitutions subtable" dcroat.vn
EndChar

StartChar: section
Encoding: 167 167 168
Width: 572
Flags: HW
TeX: 694 194
HStem: -200 75<201.028 328.806> 625 75<366.632 494.427>
VStem: 107 85<-114.262 -29.1124> 169 64<196.378 291.269> 238 64<470.595 567.631> 394 64<-66.6882 29.3812> 463 63<208.498 303.403> 504 84<528.253 613.821>
LayerCount: 2
Fore
SplineSet
107 -87 m 0
 107 -31 140 -17 162 -17 c 0
 182 -17 198 -30 198 -51 c 0
 198 -64 192 -74 192 -84 c 0xee
 192 -100 212 -125 253 -125 c 0
 323 -125 394 -69 394 -13 c 0
 394 37 323 59 292 71 c 0
 254 86 169 131 169 221 c 0
 169 291 218 359 282 395 c 1
 253 425 238 455 238 496 c 0
 238 600 346 700 458 700 c 0
 530 700 588 654 588 587 c 0
 588 531 556 517 534 517 c 0
 513 517 498 531 498 551 c 0
 498 565 504 573 504 583 c 0xdd
 504 599 483 625 442 625 c 0
 371 625 302 568 302 513 c 0
 302 463 373 441 404 429 c 0
 443 414 526 369 526 279 c 0
 526 209 476 139 414 105 c 1
 442 75 458 45 458 4 c 0
 458 -100 350 -200 238 -200 c 0
 166 -200 107 -155 107 -87 c 0
233 238 m 0
 233 179 341 153 344 153 c 0
 387 153 463 204 463 262 c 0
 463 320 355 347 352 347 c 0xde
 308 347 233 296 233 238 c 0
EndSplineSet
EndChar

StartChar: abreve
Encoding: 259 259 169
Width: 636
Flags: HW
TeX: 772 0
ItalicCorrection: 111
HStem: -6 76<241.214 370.185 519.853 580.385> 402 76<317.002 446.28> 544 79<408.918 539.083>
VStem: 128 91<91.9185 266.775> 302 77<655.071 769.953> 608 75<102.679 168.993> 622 80<701.047 770.629>
AnchorPoint: "below" 282 0 basechar 0
AnchorPoint: "above" 471 752 basechar 0
LayerCount: 2
Fore
SplineSet
302 704 m 0
 302 765 317 772 339 772 c 2
 353 772 l 2
 377 772 382 764 382 751 c 0
 382 741 379 728 379 714 c 0
 379 664 413 623 469 623 c 0
 530 623 596 673 622 739 c 0
 631 761 629 772 658 772 c 0xfa
 662 772 666 772 670 772 c 0
 683 772 702 771 702 751 c 0
 702 708 613 544 458 544 c 0
 364 544 302 612 302 704 c 0
EndSplineSet
Refer: 106 97 S 1 0 0 1 0 0 3
AlternateSubs2: "Stilistic set 01 subtable" abreve.vn
AlternateSubs2: "Latin alternatives subtable" abreve.vn
Substitution2: "Latin Vietnamese substitutions subtable" abreve.vn
EndChar

StartChar: aogonek
Encoding: 261 261 170
Width: 636
Flags: HW
TeX: 472 194
ItalicCorrection: 111
HStem: -206 74<477.494 553.695> -6 76<241.214 370.185> 402 76<317.709 446.28>
VStem: 128 91<93.661 267.83> 383 94<-131.678 -70.8585> 607 76<101.677 168.819>
AnchorPoint: "above" 402 478 basechar 0
LayerCount: 2
Fore
SplineSet
128 157 m 0
 128 298 230 478 402 478 c 0
 447 478 479 466 513 437 c 1
 520 447 536 462 558 462 c 0
 578 462 594 449 594 428 c 0
 594 419 591 410 589 402 c 2
 522 133 l 2
 520 124 517 114 517 105 c 0
 517 81 538 70 552 70 c 0
 590 70 596 150 607 163 c 0
 611 168 612 169 646 169 c 2
 658 169 l 2
 671 169 683 167 683 154 c 0
 683 138 652 39 587 6 c 1
 582 -2 579 -4 569 -10 c 0
 498 -51 477 -89 477 -109 c 0
 477 -124 486 -132 499 -132 c 0
 522 -132 535 -112 548 -112 c 0
 556 -112 592 -139 592 -151 c 0
 592 -166 543 -206 483 -206 c 0
 429 -206 383 -174 383 -127 c 0
 383 -59 479 -6 492 3 c 1
 463 15 448 32 438 51 c 1
 400 22 352 -6 286 -6 c 0
 194 -6 128 52 128 157 c 0
219 156 m 0
 219 87 263 70 300 70 c 0
 362 70 432 124 455 215 c 0
 468 268 473 279 473 300 c 0
 473 387 422 402 388 402 c 0
 248 402 219 200 219 156 c 0
EndSplineSet
EndChar

StartChar: dcaron
Encoding: 271 271 173
Width: 636
Flags: HW
TeX: 694 0
ItalicCorrection: 111
HStem: -6 76<242.628 368.494 519.885 580.402> 402 76<317.549 447.049> 606 72<487.328 552.894> 674 20<499 642.5> 719 20G<757.5 796>
VStem: 128 91<92.0588 267.62> 482 174<610.5 677.51> 609 74<105.394 168.881> 702 137<624.423 714.142>
DStem2: 398.737 -6 487.49 -6 0.242599 0.970127<136.784 316.248 457.971 631.142>
LayerCount: 2
Fore
SplineSet
670 532 m 0
 670 550 710 547 750 614 c 1
 707 619 702 648 702 663 c 0
 702 703 737 739 778 739 c 0
 814 739 839 710 839 667 c 0
 839 575 735 486 708 486 c 0xcc80
 695 486 670 524 670 532 c 0
EndSplineSet
Refer: 109 100 S 1 0 0 1 0 -0 3
EndChar

StartChar: eogonek
Encoding: 281 281 175
Width: 572
Flags: HW
TeX: 472 194
ItalicCorrection: 95
HStem: -206 76<332.287 399.137> -6 76<259.534 328> 213 75<247 449.974> 402 76<326.829 481.522>
VStem: 132 92<102.186 209.781> 238 94<-129.593 -68.5806> 491 84<320.773 390.663>
AnchorPoint: "above" 432 478 basechar 0
LayerCount: 2
Fore
SplineSet
132 173 m 0
 132 323 243 478 432 478 c 0
 517 478 575 435 575 370 c 0
 575 351 568 309 534 276 c 0
 475 219 369 213 268 213 c 2
 259 213 l 2
 248 213 238 212 227 212 c 1
 225 199 224 186 224 173 c 0
 224 90 277 70 340 70 c 0
 490 70 503 123 523 123 c 0
 535 123 568 85 568 76 c 0
 568 63 530 32 476 14 c 0
 449 5 447 8 412 -14 c 0
 363 -45 332 -81 332 -108 c 0
 332 -121 340 -130 353 -130 c 0
 376 -130 393 -107 404 -107 c 0
 412 -107 449 -135 449 -147 c 0
 449 -164 394 -206 335 -206 c 0
 283 -206 238 -174 238 -127 c 0
 238 -79 286 -33 328 -6 c 1
 322 -6 l 2
 201 -6 132 62 132 173 c 0
247 288 m 1
 288 288 l 2
 335 288 491 288 491 358 c 0
 491 383 465 402 420 402 c 0
 313 402 268 338 247 288 c 1
EndSplineSet
EndChar

StartChar: gbreve
Encoding: 287 287 176
Width: 572
Flags: HW
TeX: 772 194
ItalicCorrection: 97
HStem: -200 75<176 350.673> 0 75<241.624 370.616> 402 76<317.472 445.083> 544 79<376.527 506.496>
VStem: 129 90<97.0311 268.812> 270 77<655.071 770.363> 473 120<292 438.5> 589 80<701.047 770.629>
DStem2: 350.239 -200 438.489 -200 0.242599 0.970127<95.1503 243.448 337.251 520.237>
LayerCount: 2
Fore
SplineSet
270 704 m 0
 270 768 286 772 306 772 c 0
 311 772 316 772 321 772 c 0
 345 772 350 764 350 751 c 0
 350 741 347 728 347 714 c 0
 347 662 383 623 437 623 c 0
 498 623 563 673 589 739 c 0
 598 761 596 772 625 772 c 2xfd
 638 772 l 2
 650 772 669 771 669 751 c 0
 669 706 579 544 426 544 c 0
 332 544 270 612 270 704 c 0
EndSplineSet
Refer: 112 103 S 1 0 0 1 -0 0 3
EndChar

StartChar: lacute
Encoding: 314 314 177
Width: 317
Flags: HW
TeX: 889 0
ItalicCorrection: 111
HStem: -5 75<201.557 260.515> 674 20<312.5 322.5>
VStem: 109 89<72.907 196.266> 163 174<611.438 675.705> 282 81<92.0804 168.905>
DStem2: 80.2395 -5 167.991 -5 0.242599 0.970127<112.444 629.807>
LayerCount: 2
Fore
SplineSet
291 821 m 0
 291 843 308 846 324 851 c 0
 489 907 488 908 500 908 c 0
 523 908 537 890 537 871 c 0
 537 851 526 832 492 821 c 0
 334 772 323 768 315 768 c 0xc0
 303 768 291 773 291 821 c 0
EndSplineSet
Refer: 117 108 S 1 0 0 1 0 0 3
EndChar

StartChar: lcaron
Encoding: 318 318 178
Width: 317
Flags: HW
TeX: 694 0
ItalicCorrection: 111
HStem: -5 75<201.557 260.515> 674 20<312.5 322.5> 719 20G<438.5 477>
VStem: 109 89<72.907 196.266> 163 174<611.438 675.705> 282 81<92.0804 168.905> 382 137<625.357 714.673>
DStem2: 80.2395 -5 167.991 -5 0.242599 0.970127<112.444 629.807>
LayerCount: 2
Fore
SplineSet
351 532 m 0
 351 550 390 547 430 614 c 1
 387 619 382 648 382 663 c 0
 382 703 418 739 459 739 c 0
 495 739 519 711 519 668 c 0
 519 576 417 486 389 486 c 0xe2
 376 486 351 524 351 532 c 0
EndSplineSet
Refer: 117 108 S 1 0 0 1 0 0 3
EndChar

StartChar: lslash
Encoding: 322 322 179
Width: 381
Flags: HW
TeX: 694 0
ItalicCorrection: 111
HStem: -6 76<215.921 278.464> 459 20G<351.5 366> 674 20G<328.5 338.5>
VStem: 125 88<73.7112 194.615> 179 174<608.749 675.705> 306 73<105.087 168.992>
AnchorPoint: "above" 315 694 basechar 0
LayerCount: 2
Fore
SplineSet
96 304 m 0
 96 330 178 359 192 381 c 0
 197 390 193 383 249 606 c 1
 200 611 191 603 181 618 c 0
 179 621 179 624 179 629 c 0
 179 645 187 670 193 676 c 0
 201 684 198 682 320 693 c 0
 323 693 327 694 330 694 c 0
 347 694 353 686 353 674 c 0xe8
 353 658 319 540 297 446 c 1
 339 473 347 479 356 479 c 0
 376 479 390 439 390 432 c 0
 390 416 379 413 288 355 c 0
 272 344 271 341 267 324 c 0
 218 128 213 115 213 105 c 0
 213 82 234 70 249 70 c 0
 291 70 290 154 306 165 c 0
 311 169 319 169 325 169 c 2xf4
 356 169 l 2
 367 169 379 167 379 155 c 0
 379 133 333 -6 237 -6 c 0
 181 -6 125 31 125 94 c 0xf4
 125 112 126 114 167 277 c 1
 142 261 138 258 130 258 c 0
 111 258 96 296 96 304 c 0
EndSplineSet
EndChar

StartChar: eng
Encoding: 331 331 182
Width: 700
Flags: HW
TeX: 472 194
ItalicCorrection: 111
HStem: -200 126<284.473 358.539> -5 21G<181.5 221.5> 402 76<171.545 232.399 407.846 538.793>
VStem: 69 74<304.033 366.933> 263 100<-125 -87.2947> 548 88<253.337 391.58>
AnchorPoint: "affricate-below" 651 -194 basechar 0
AnchorPoint: "affricate-above" 874 694 basechar 0
AnchorPoint: "below" 299 -194 basechar 0
AnchorPoint: "above" 467 478 basechar 0
LayerCount: 2
Fore
SplineSet
69 318 m 0
 69 330 109 478 212 478 c 0
 253 478 310 458 323 395 c 1
 373 448 428 478 499 478 c 0
 564 478 636 455 636 363 c 0
 636 316 614 240 570 127 c 1
 571 124 571 120 571 117 c 0
 571 109 539 -31 489 -111 c 0
 462 -153 418 -200 349 -200 c 0
 290 -200 263 -165 263 -132 c 0
 263 -92 298 -74 321 -74 c 0
 347 -74 363 -89 363 -118 c 0
 363 -120 362 -123 362 -125 c 1
 427 -120 461 108 476 128 c 0
 478 131 482 133 485 135 c 1
 505 193 548 298 548 348 c 0
 548 384 526 402 483 402 c 0
 388 402 328 315 283 188 c 0
 244 77 252 -5 191 -5 c 0
 172 -5 155 7 155 29 c 0
 155 36 156 43 158 50 c 2
 232 347 l 2
 234 354 235 360 235 367 c 0
 235 391 214 402 200 402 c 0
 160 402 157 318 143 307 c 0
 138 303 130 304 124 304 c 2
 94 304 l 2
 81 304 69 305 69 318 c 0
EndSplineSet
EndChar

StartChar: sacute
Encoding: 347 347 186
Width: 508
Flags: HW
TeX: 694 0
ItalicCorrection: 86
HStem: -6 76<177.071 365.536> 403 75<282.695 418.3> 694 20G<511.5 530.5>
VStem: 88 88<79.8457 127.346> 176 85<306.169 381.345> 311 245<601 676> 399 84<102.209 182.948> 410 97<336.19 389.531>
AnchorPoint: "below" 258 0 basechar 0
AnchorPoint: "above" 420 694 basechar 0
LayerCount: 2
Fore
SplineSet
88 96 m 0
 88 146 123 167 149 167 c 0
 171 167 190 151 190 128 c 0
 190 114 185 103 176 91 c 1
 176 90 l 1
 190 80 205 70 271 70 c 0
 315 70 377 75 396 134 c 0
 398 139 399 144 399 149 c 0xfa
 399 204 298 201 251 218 c 0
 216 231 176 264 176 318 c 0
 176 346 193 478 365 478 c 0
 463 478 507 436 507 388 c 0
 507 340 472 322 449 322 c 0
 428 322 410 337 410 359 c 0xf9
 410 370 414 380 419 390 c 1
 408 396 394 403 355 403 c 0
 267 403 261 350 261 338 c 0
 261 290 341 297 396 277 c 0
 435 263 483 229 483 169 c 0
 483 121 452 59 407 30 c 0
 363 1 309 -6 258 -6 c 0
 120 -6 88 55 88 96 c 0
311 601 m 0
 311 617 328 624 337 628 c 0
 494 708 504 714 519 714 c 0
 542 714 556 696 556 676 c 0
 556 647 531 634 516 627 c 0
 356 552 351 547 342 547 c 0xfc
 318 547 311 600 311 601 c 0
EndSplineSet
EndChar

StartChar: scaron
Encoding: 353 353 187
Width: 508
Flags: HW
TeX: 772 0
ItalicCorrection: 161
HStem: -6 76<177.277 366.577> 403 75<282.718 418.064> 557 217
VStem: 88 88<79.8457 127.346> 177 85<313.181 382.001> 275 330<740 760> 398 84<100.237 177.134> 410 97<335.5 389.531>
AnchorPoint: "below" 258 0 basechar 0
AnchorPoint: "above" 435 754 basechar 0
LayerCount: 2
Fore
SplineSet
88 96 m 0
 88 146 123 167 149 167 c 0
 171 167 190 151 190 128 c 0
 190 114 185 103 176 91 c 1
 176 90 l 1
 190 80 205 70 270 70 c 0
 308 70 376 72 395 130 c 0
 397 137 398 142 398 145 c 0xfa
 398 221 177 185 177 321 c 0
 177 344 190 478 367 478 c 0
 460 478 507 438 507 388 c 0
 507 336 468 322 449 322 c 0
 428 322 410 337 410 359 c 0
 410 370 414 380 419 390 c 1
 401 400 386 403 354 403 c 0
 270 403 262 354 262 341 c 0xf9
 262 274 482 302 482 164 c 0
 482 116 450 52 397 23 c 0
 354 -1 306 -6 258 -6 c 0
 121 -6 88 55 88 96 c 0
EndSplineSet
Refer: 17 711 S 1 0 0 1 -34 0 2
EndChar

StartChar: scedilla
Encoding: 351 351 188
Width: 508
Flags: HW
TeX: 472 170
ItalicCorrection: 86
HStem: -200 76<77.3442 267.985> 403 75<282.113 418.548>
VStem: 88 88<79.5963 127.346> 177 84<305.621 382.431> 399 84<103.092 183.071> 410 97<335.841 389.531>
LayerCount: 2
Fore
SplineSet
70 -178 m 1
 70 -178 74 -135 91 -127 c 0
 97 -124 105 -124 113 -124 c 0
 221 -124 277 -113 282 -85 c 1
 284 -65 249 -62 233 -61 c 0
 219 -60 201 -60 201 -39 c 0
 201 -32 204 -24 209 -3 c 1
 185 1 88 18 88 97 c 0
 88 147 123 167 149 167 c 0
 171 167 190 152 190 128 c 0
 190 114 185 103 176 91 c 1
 176 90 l 1
 191 80 205 70 271 70 c 0
 315 70 377 75 396 134 c 0
 398 139 399 144 399 149 c 0xf8
 399 204 298 201 251 218 c 0
 216 231 177 264 177 318 c 0
 177 341 188 478 367 478 c 0
 453 478 507 441 507 387 c 0
 507 348 481 322 449 322 c 0
 428 322 410 337 410 359 c 0xf4
 410 370 414 380 419 390 c 1
 408 396 394 403 356 403 c 0
 269 403 261 353 261 338 c 0
 261 292 331 296 384 281 c 0
 454 261 483 213 483 168 c 0xf8
 483 144 468 23 319 -2 c 1
 336 -10 371 -31 371 -75 c 0
 371 -119 341 -165 268 -185 c 0
 218 -199 153 -200 111 -200 c 2
 105 -200 l 2
 87 -200 70 -198 70 -178 c 1
EndSplineSet
EndChar

StartChar: tcaron
Encoding: 357 357 189
Width: 412
Flags: HW
TeX: 694 0
ItalicCorrection: 111
HStem: -6 76<232.805 325.349> 397 75<94.5127 213 319 437.959>
VStem: 141 88<74.2677 195.991> 270 91<549.029 667.616> 375 84<117.585 168.782> 425 137<648.357 736.9>
DStem2: 112.222 -6 199.991 -6 0.242599 0.970127<167.223 415.41 513.885 691.116>
LayerCount: 2
Fore
SplineSet
87 418 m 0
 87 425 89 433 91 439 c 0
 98 465 101 472 125 472 c 2
 232 472 l 1
 239 502 247 533 270 624 c 0
 271 627 278 680 324 680 c 0
 344 680 361 666 361 645 c 0
 361 630 319 472 319 472 c 1
 417 472 l 2
 429 472 445 470 445 451 c 0
 445 444 443 436 441 430 c 0
 435 405 433 397 408 397 c 2
 300 397 l 1
 234 130 l 2
 232 122 229 113 229 105 c 0
 229 89 240 70 269 70 c 0
 311 70 353 107 375 150 c 0xf8
 384 168 389 169 404 169 c 2
 430 169 l 2
 446 169 459 168 459 156 c 0
 459 131 380 -6 254 -6 c 0
 191 -6 141 35 141 94 c 0
 141 125 188 289 213 397 c 1
 115 397 l 2
 103 397 87 399 87 418 c 0
393 555 m 0
 393 574 437 572 473 637 c 1
 438 641 425 662 425 686 c 0
 425 724 459 762 501 762 c 0
 537 762 562 734 562 691 c 0
 562 599 458 509 431 509 c 0xf4
 417 509 393 548 393 555 c 0
EndSplineSet
EndChar

StartChar: tcommaaccent
Encoding: 355 355 190
Width: 412
Flags: HW
TeX: 674 170
ItalicCorrection: 111
HStem: -200 76<77.4458 269.985> 397 75<94.4629 213 319 437.752>
VStem: 141 88<74.1064 194.182> 278 83<572.88 672.83> 374 85<116.364 168.265>
DStem2: 63.7084 -200 151.477 -200 0.242599 0.970127<367.683 615.384 713.859 892.059>
LayerCount: 2
Fore
SplineSet
70 -179 m 1
 70 -179 74 -135 91 -127 c 0
 97 -124 105 -124 113 -124 c 0
 222 -124 277 -114 282 -86 c 0
 285 -65 248 -61 232 -60 c 0
 223 -59 201 -61 201 -39 c 0
 201 -31 205 -14 209 2 c 1
 179 13 141 40 141 94 c 0
 141 123 185 274 213 397 c 1
 115 397 l 2
 106 397 87 397 87 418 c 0
 87 425 89 433 91 439 c 0
 98 465 101 472 125 472 c 2
 232 472 l 1
 233 476 272 638 278 650 c 0
 287 667 305 680 324 680 c 0
 344 680 361 667 361 646 c 0
 361 631 319 472 319 472 c 1
 417 472 l 2
 425 472 445 472 445 451 c 0
 445 444 443 436 441 430 c 0
 435 405 433 397 408 397 c 2
 300 397 l 1
 233 126 l 2
 231 119 229 112 229 105 c 0
 229 89 241 70 269 70 c 0
 311 70 353 106 374 148 c 0
 384 168 384 169 417 169 c 2
 434 169 l 2
 447 169 459 168 459 156 c 0
 459 142 413 39 308 3 c 1
 333 -6 371 -28 371 -75 c 0
 371 -119 342 -165 270 -185 c 0
 220 -199 155 -200 112 -200 c 2
 106 -200 l 2
 89 -200 70 -200 70 -179 c 1
EndSplineSet
EndChar

StartChar: uhungarumlaut
Encoding: 369 369 191
Width: 668
Flags: HW
TeX: 694 0
ItalicCorrection: 265
HStem: -6 76<303.884 403.651 550.923 611.742> 402 76<185.184 253.489> 547 81<335.631 393.406 526.719 585.451> 694 20G<527.5 546.5 718.5 737.5>
VStem: 69 88<304.603 373.496> 199 87<86.109 299.063> 254 90<332.4 401.016> 327 245<601 676> 545 83<360.046 465.538> 640 75<105.41 164.763>
AnchorPoint: "below" 333 0 basechar 0
AnchorPoint: "above" 507 694 basechar 0
LayerCount: 2
Fore
SplineSet
69 317 m 0
 69 346 132 478 243 478 c 0
 299 478 344 442 344 388 c 0xfa40
 344 343 319 332 312 313 c 0
 309 306 286 222 286 161 c 0
 286 83 323 70 348 70 c 0
 480 70 527 403 545 441 c 0
 549 450 563 472 591 472 c 0
 612 472 628 458 628 437 c 0xfcc0
 628 429 625 420 623 412 c 2
 552 127 l 2
 550 120 548 112 548 105 c 0
 548 84 567 70 584 70 c 0
 623 70 627 155 640 165 c 0
 645 169 653 169 660 169 c 2
 691 169 l 2
 710 169 715 163 715 155 c 0
 715 138 672 -6 572 -6 c 0
 551 -6 497 -1 469 52 c 1
 435 20 395 -6 335 -6 c 0
 287 -6 199 12 199 153 c 0xfd40
 199 214 222 312 229 327 c 0
 237 342 254 353 254 375 c 0
 254 391 243 402 228 402 c 0
 214 402 180 392 157 337 c 0
 144 306 150 304 120 304 c 2
 95 304 l 2
 82 304 69 304 69 317 c 0
327 601 m 1
 327 617 344 624 353 628 c 0
 510 708 520 714 535 714 c 0
 558 714 572 696 572 676 c 0xf940
 572 647 547 634 532 627 c 0
 371 551 367 547 358 547 c 2
 357 547 l 2
 334 547 327 601 327 601 c 1
519 602 m 1
 519 611 525 618 545 628 c 0
 702 707 711 714 726 714 c 0
 749 714 763 696 763 676 c 0
 763 647 739 634 724 627 c 0
 563 551 558 547 549 547 c 2
 548 547 l 2xf8c0
 524 547 519 602 519 602 c 1
EndSplineSet
EndChar

StartChar: uring
Encoding: 367 367 192
Width: 668
Flags: HW
TeX: 772 0
ItalicCorrection: 111
HStem: -6 76<286.428 407.553 550.774 611.898> 402 76<185.861 253.489> 530 50<429.792 537.928> 730 50<455.164 564.448>
VStem: 69 83<304.156 364.261> 184 89<84.4941 230.786> 254 90<314.165 401.016> 362 65<584.059 696.049> 567 64<611.358 726.239> 640 75<105.41 168.974>
LayerCount: 2
Fore
SplineSet
69 318 m 0
 69 346 132 478 243 478 c 0
 299 478 344 442 344 388 c 0xfbc0
 344 341 273 220 273 136 c 0
 273 83 309 70 346 70 c 0
 395 70 439 105 474 184 c 0
 487 212 481 197 534 407 c 0
 538 421 544 472 591 472 c 0
 611 472 628 458 628 437 c 0
 628 429 625 420 623 412 c 2
 552 127 l 2
 550 120 548 112 548 105 c 0
 548 84 567 70 584 70 c 0
 623 70 627 155 640 165 c 0
 645 169 653 169 660 169 c 2
 691 169 l 2
 703 169 715 167 715 154 c 0
 715 141 673 -6 572 -6 c 0
 551 -6 495 0 468 53 c 1
 429 20 393 -6 330 -6 c 0
 258 -6 184 19 184 119 c 0xfdc0
 184 217 254 345 254 375 c 0xfbc0
 254 391 243 402 228 402 c 0
 198 402 168 368 152 323 c 0
 146 306 139 304 125 304 c 0
 116 304 107 304 98 304 c 0
 79 304 69 306 69 318 c 0
362 608 m 0
 362 646 380 713 421 748 c 0
 451 774 491 780 529 780 c 0
 592 780 631 759 631 702 c 0
 631 664 614 596 572 562 c 0
 542 537 501 530 464 530 c 0
 411 530 362 546 362 608 c 0
427 616 m 0
 427 583 455 580 479 580 c 0
 539 580 551 608 565 673 c 0
 566 679 567 687 567 694 c 0xf9c0
 567 728 538 730 514 730 c 0
 467 730 448 714 435 662 c 0
 432 648 427 632 427 616 c 0
EndSplineSet
EndChar

StartChar: ydieresis
Encoding: 255 255 193
Width: 604
Flags: HW
TeX: 772 194
ItalicCorrection: 97
HStem: -200 75<223.328 346.132> -6 76<286.815 405.644> 402 76<185.477 252.107> 569 125<307.875 387.72 531.589 610.72>
VStem: 69 82<304.026 361.926> 130 101<-117.531 -63.399> 184 89<84.4941 232.573> 254 90<311.651 400.936> 284 127<593.302 670.152> 507 127<593.302 669.312> 546 82<368.562 465.538>
DStem2: 382.484 -200 470.234 -200 0.242599 0.970127<131.802 237.082 334.671 677.077>
AnchorPoint: "below" 236 -194 basechar 0
AnchorPoint: "above" 502 674 basechar 0
LayerCount: 2
Fore
SplineSet
69 318 m 0
 69 348 134 478 241 478 c 0
 311 478 344 431 344 388 c 0xf9
 344 340 273 218 273 136 c 0xf2
 273 83 309 70 346 70 c 0
 430 70 475 181 486 215 c 0
 494 241 537 428 546 444 c 0
 555 460 572 472 591 472 c 0
 611 472 628 458 628 437 c 0
 628 427 625 417 623 411 c 2
 526 23 l 2
 520 0 504 -108 375 -171 c 0
 338 -189 296 -200 254 -200 c 0
 180 -200 130 -165 130 -114 c 0
 130 -75 157 -49 190 -49 c 0
 212 -49 231 -64 231 -87 c 0xf520
 231 -98 227 -108 222 -118 c 1
 230 -121 243 -125 265 -125 c 0
 338 -125 406 -73 429 -10 c 0
 434 3 437 17 440 30 c 1
 402 6 374 -6 330 -6 c 0
 260 -6 184 19 184 119 c 0xf2
 184 218 254 344 254 375 c 0
 254 391 243 402 228 402 c 0
 213 402 177 392 151 320 c 0xf9
 146 306 142 304 127 304 c 2
 94 304 l 2
 81 304 69 305 69 318 c 0
284 621 m 0
 284 662 323 694 358 694 c 0
 390 694 411 671 411 642 c 0xf080
 411 606 377 569 337 569 c 0
 308 569 284 590 284 621 c 0
507 621 m 0
 507 656 541 694 581 694 c 0
 613 694 634 671 634 642 c 0
 634 606 600 569 560 569 c 0xf040
 531 569 507 590 507 621 c 0
EndSplineSet
EndChar

StartChar: zacute
Encoding: 378 378 194
Width: 508
Flags: HW
TeX: 694 0
ItalicCorrection: 158
HStem: -6 87<289.224 431.617> 391 87<234.554 369.279> 694 20G<511.5 530.5>
VStem: 144 416<360 466> 312 244<601 676> 473 82<119.42 168.932>
DStem2: 345 311 130 -2 0.714213 0.699929<-136.373 70.0071>
AnchorPoint: "below" 285 0 basechar 0
AnchorPoint: "above" 459 694 basechar 0
LayerCount: 2
Fore
SplineSet
312 601 m 1
 312 617 329 624 338 628 c 0
 495 708 504 714 519 714 c 0
 542 714 556 696 556 676 c 0
 556 647 532 634 517 627 c 0
 357 552 351 547 342 547 c 0xe8
 318 547 312 601 312 601 c 1
EndSplineSet
Refer: 131 122 S 1 0 0 1 0 0 3
EndChar

StartChar: zdotaccent
Encoding: 380 380 196
Width: 508
Flags: HW
TeX: 694 0
ItalicCorrection: 158
HStem: -6 87<289.224 431.617> 391 87<234.554 369.279> 597 97<395.921 465.812>
VStem: 144 416<360 466> 381 100<612.409 678.928> 473 82<119.42 168.932>
DStem2: 345 311 130 -2 0.714213 0.699929<-136.373 70.0071>
AnchorPoint: "below" 285 0 basechar 0
AnchorPoint: "above" 454 674 basechar 0
LayerCount: 2
Fore
SplineSet
381 637 m 0
 381 665 409 694 440 694 c 0
 462 694 481 678 481 654 c 0
 481 627 453 597 422 597 c 0xe8
 401 597 381 613 381 637 c 0
EndSplineSet
Refer: 131 122 S 1 0 0 1 0 0 3
EndChar

StartChar: ij
Encoding: 307 307 197
Width: 700
Flags: HW
TeX: 694 194
ItalicCorrection: 111
HStem: -200 75<384 473.915> -6 76<243.549 311.25> 402 76<185.029 252.988 521.949 614.32> 597 97<293.921 363.079 658.688 729.509>
VStem: 69 88<304.511 371.261> 153 90<71.6819 159.137> 254 89<316.004 400.966> 279 99<-125 -96.8156 612.072 678.591> 346 81<108.968 168.967> 389 84<304.104 354.811> 618 89<280.711 398.082> 645 99<611.14 679.406>
DStem2: 478.488 -200 565.239 -200 0.242599 0.970127<100.24 583.498>
LayerCount: 2
Fore
SplineSet
69 318 m 0xfa
 69 347 132 478 242 478 c 0
 298 478 343 442 343 388 c 0
 343 368 337 352 332 338 c 0
 246 116 243 109 243 97 c 0
 243 82 253 70 269 70 c 0
 300 70 331 106 346 152 c 0
 351 165 355 169 370 169 c 2
 409 169 l 2
 422 169 427 164 427 155 c 0
 427 128 366 -6 254 -6 c 0
 198 -6 153 30 153 84 c 2
 153 91 l 2xf680
 153 122 254 349 254 375 c 0
 254 391 243 402 227 402 c 0
 199 402 172 372 157 336 c 0
 147 312 150 304 127 304 c 2
 88 304 l 2
 75 304 69 310 69 318 c 0xfa
279 637 m 0
 279 664 307 694 338 694 c 0
 360 694 378 678 378 654 c 0xf1
 378 626 350 597 319 597 c 0
 297 597 279 613 279 637 c 0
284 -137 m 0
 284 -107 310 -77 344 -77 c 0
 367 -77 384 -90 384 -119 c 2
 384 -125 l 1
 385 -125 l 2
 397 -125 410 -125 422 -123 c 0
 512 -109 520 -35 521 -30 c 2
 614 341 l 2
 616 349 618 358 618 367 c 0
 618 390 599 402 578 402 c 0
 536 402 494 365 473 323 c 0xf060
 464 305 460 304 446 304 c 2
 411 304 l 2
 395 304 389 309 389 316 c 0
 389 342 468 478 593 478 c 0
 656 478 707 438 707 379 c 0
 707 360 701 341 698 330 c 2
 606 -37 l 2
 602 -53 596 -107 535 -152 c 0
 488 -187 430 -200 386 -200 c 0
 311 -200 284 -168 284 -137 c 0
645 637 m 0xf010
 645 671 678 694 704 694 c 0
 728 694 744 676 744 654 c 0
 744 626 717 597 686 597 c 0
 664 597 645 613 645 637 c 0xf010
EndSplineSet
Ligature2: "Latin Dutch ligatures subtable" i j
EndChar

StartChar: exclamdown
Encoding: 161 161 198
Width: 422
Flags: HW
TeX: 500 194
ItalicCorrection: 38
HStem: 375 125<280.553 358.411>
VStem: 234 86<237.822 292.699> 256 127<399.688 475.698>
LayerCount: 2
Fore
SplineSet
110 -157 m 0
 110 -145 115 -132 144 -37 c 2
 234 261 l 2xc0
 243 291 246 293 263 293 c 2
 297 293 l 2
 314 293 320 289 320 279 c 0
 320 272 318 262 315 249 c 2
 240 -131 l 2
 226 -200 179 -205 162 -205 c 0
 133 -205 110 -186 110 -157 c 0
256 427 m 0
 256 463 292 500 331 500 c 0
 360 500 383 479 383 448 c 0
 383 413 349 375 309 375 c 0xa0
 280 375 256 396 256 427 c 0
EndSplineSet
EndChar

StartChar: questiondown
Encoding: 191 191 199
Width: 636
Flags: HW
TeX: 500 194
HStem: -206 76<208.336 372.19> 217 76<315.553 411> 375 125<387.589 465.411>
VStem: 110 81<-111.511 -17.0317> 363 127<399.688 475.312> 382 81<170.803 239> 437 99<-73.3306 14.5607>
LayerCount: 2
Fore
SplineSet
110 -80 m 0
 110 -13 150 40 197 73 c 0
 229 96 351 160 366 172 c 0
 378 182 382 195 382 203 c 0
 382 211 378 217 364 217 c 0
 349 217 327 208 315 195 c 0
 304 183 309 174 286 173 c 1
 250 173 l 2
 233 173 228 178 228 186 c 0
 228 218 287 293 385 293 c 0
 437 293 463 261 463 217 c 0xf4
 463 203 460 146 405 105 c 0
 326 46 191 13 191 -68 c 0
 191 -93 207 -130 282 -130 c 0
 370 -130 434 -72 437 -51 c 0
 438 -44 434 -33 437 -20 c 0
 442 6 467 28 494 28 c 0
 516 28 536 13 536 -11 c 0xf2
 536 -77 431 -206 268 -206 c 0
 185 -206 110 -170 110 -80 c 0
363 427 m 0xf8
 363 462 397 500 437 500 c 0xf2
 466 500 490 479 490 448 c 0
 490 413 456 375 416 375 c 0xf8
 387 375 363 396 363 427 c 0xf8
EndSplineSet
EndChar

StartChar: sterling
Encoding: 163 163 200
Width: 926
Flags: HW
TeX: 694 0
HStem: -6 145<155.741 298.745> -6 74<479.361 653.479> 310 75<300.125 383 489 602.925> 651 75<593.088 727.528>
VStem: 683 82<97.7234 149.96> 754 83<522.996 625.288>
LayerCount: 2
Fore
SplineSet
108 49 m 0
 108 85 141 139 265 139 c 0
 292 139 312 136 332 133 c 1
 345 161 l 1
 383 310 l 1
 310 310 l 2
 298 310 292 314 292 324 c 0
 292 333 295 346 301 367 c 0
 305 381 310 385 324 385 c 2
 402 385 l 1
 402 385 434 526 447 559 c 0
 500 694 618 726 685 726 c 0
 781 726 837 658 837 571 c 0
 837 488 798 472 772 472 c 0
 749 472 731 488 731 511 c 0
 731 543 754 547 754 569 c 0xb4
 754 594 737 651 672 651 c 0
 538 651 526 532 489 385 c 1
 595 385 l 1
 607 384 611 379 611 370 c 0
 611 361 607 346 602 328 c 0
 598 311 592 310 577 310 c 2
 470 310 l 1
 470 309 l 1
 430 127 411 111 411 111 c 1
 434 104 532 68 593 68 c 0
 647 68 673 106 683 132 c 0
 689 146 692 150 707 150 c 2x78
 745 150 l 2
 757 150 765 148 765 136 c 0
 765 97 688 -6 556 -6 c 0x78
 466 -6 371 41 352 41 c 0
 336 41 292 -6 193 -6 c 0
 126 -6 108 27 108 49 c 0
EndSplineSet
EndChar

StartChar: Agrave
Encoding: 192 192 201
Width: 908
Flags: HW
TeX: 889 0
HStem: 0 75<83.2734 173.202 264 304.23 611.855 672 771 841.709> 207 75<398 640> 687 20<604.5 661> 768 81<673.291 730.803>
DStem2: 174 77 264 76 0.546013 0.837776<48.3034 218.984 294.051 656.3> 680 676 595 586 0.149708 -0.98873<76.2606 383.571 459.523 593.029>
AnchorPoint: "below" 453 0 basechar 0
AnchorPoint: "above" 676 887 basechar 0
LayerCount: 2
Fore
SplineSet
521 859 m 0
 521 882 543 908 570 908 c 2
 572 908 l 2
 581 908 586 906 724 849 c 0
 733 845 748 840 748 826 c 0
 748 814 723 768 705 768 c 2
 704 768 l 2
 699 768 697 769 555 821 c 0
 538 828 521 837 521 859 c 0
EndSplineSet
Refer: 74 65 S 1 0 0 1 -0 0 3
AlternateSubs2: "Stilistic set 01 subtable" Agrave.vn
AlternateSubs2: "Latin alternatives subtable" Agrave.vn
Substitution2: "Latin Vietnamese substitutions subtable" Agrave.vn
EndChar

StartChar: Aacute
Encoding: 193 193 202
Width: 908
Flags: HW
TeX: 889 0
HStem: 0 75<83.2734 173.202 264 304.23 611.855 672 771 841.709> 207 75<398 640> 687 20<604.5 661>
DStem2: 174 77 264 76 0.546013 0.837776<48.3034 218.984 294.051 656.3> 680 676 595 586 0.149708 -0.98873<76.2606 383.571 459.523 593.029>
AnchorPoint: "below" 453 0 basechar 0
AnchorPoint: "above" 676 887 basechar 0
LayerCount: 2
Fore
SplineSet
538 821 m 0
 538 843 556 846 572 851 c 0
 737 907 736 908 748 908 c 0
 771 908 785 890 785 871 c 0
 785 838 755 826 739 821 c 0
 581 772 570 768 562 768 c 0
 550 768 538 773 538 821 c 0
EndSplineSet
Refer: 74 65 S 1 0 0 1 -0 0 3
AlternateSubs2: "Stilistic set 01 subtable" Aacute.vn
AlternateSubs2: "Latin alternatives subtable" Aacute.vn
Substitution2: "Latin Vietnamese substitutions subtable" Aacute.vn
EndChar

StartChar: Acircumflex
Encoding: 194 194 203
Width: 908
Flags: HW
TeX: 994 0
HStem: -0 75<83.2734 173.202 264 304.23 611.855 672 771 841.709> 207 75<398 640> 687 20<604.5 661>
DStem2: 174 77 264 76 0.546013 0.837776<48.3034 218.984 294.051 656.3> 680 676 595 586 0.149708 -0.98873<76.2606 383.571 459.523 593.029>
AnchorPoint: "below" 453 0 basechar 0
AnchorPoint: "above" 699 978 basechar 0
LayerCount: 2
Fore
SplineSet
475 800 m 0
 475 810 483 817 492 825 c 0
 686 996 686 999 698 999 c 0
 713 999 723 978 737 956 c 0
 828 812 831 810 831 800 c 0
 831 782 784 755 774 755 c 0
 758 755 753 770 720 832 c 0
 707 856 694 879 682 903 c 1
 667 890 625 848 539 766 c 0
 534 761 527 755 519 755 c 0
 504 755 475 787 475 800 c 0
EndSplineSet
Refer: 74 65 S 1 0 0 1 0 -0 3
AlternateSubs2: "Stilistic set 01 subtable" Acircumflex.vn
AlternateSubs2: "Latin alternatives subtable" Acircumflex.vn
Substitution2: "Latin Vietnamese substitutions subtable" Acircumflex.vn
EndChar

StartChar: Atilde
Encoding: 195 195 204
Width: 908
Flags: HW
TeX: 994 0
HStem: 0 75<83.2734 173.202 264 304.23 611.855 672 771 841.709> 207 75<398 640> 687 20<604.5 661> 837 93<706.222 816.907> 901 93<547.342 657.729>
DStem2: 174 77 264 76 0.546013 0.837776<48.3034 218.984 294.051 656.3> 680 676 595 586 0.149708 -0.98873<76.2606 383.571 459.523 593.029>
AnchorPoint: "below" 453 0 basechar 0
AnchorPoint: "above" 698 973 basechar 0
LayerCount: 2
Fore
SplineSet
450 875 m 0
 450 886 460 898 495 936 c 0
 523 966 561 994 604 994 c 0xe8
 669 994 713 930 764 930 c 0xf0
 816 930 849 993 870 993 c 0
 879 993 914 973 914 956 c 0
 914 945 904 934 870 897 c 0
 841 866 804 837 760 837 c 0xf0
 694 837 652 901 600 901 c 0
 548 901 515 838 494 838 c 0
 483 838 450 859 450 875 c 0
EndSplineSet
Refer: 74 65 S 1 0 0 1 -0 0 3
AlternateSubs2: "Stilistic set 01 subtable" Atilde.vn
AlternateSubs2: "Latin alternatives subtable" Atilde.vn
Substitution2: "Latin Vietnamese substitutions subtable" Atilde.vn
EndChar

StartChar: Adieresis
Encoding: 196 196 205
Width: 908
Flags: HW
TeX: 994 0
HStem: -0 75<83.2734 173.202 264 304.23 611.855 672 771 841.709> 207 75<398 640> 687 20<604.5 661> 753 124<505.848 585.196 728.669 808.72>
VStem: 482 127<777.023 852.835> 705 127<776.779 853.152>
DStem2: 174 77 264 76 0.546013 0.837776<48.3034 218.984 294.051 656.3> 680 676 595 586 0.149708 -0.98873<76.2606 383.571 459.523 593.029>
AnchorPoint: "below" 453 0 basechar 0
AnchorPoint: "above" 669 856 basechar 0
LayerCount: 2
Fore
SplineSet
482 805 m 0
 482 840 516 877 556 877 c 0
 588 877 609 854 609 825 c 0
 609 789 574 753 534 753 c 0
 505 753 482 774 482 805 c 0
705 805 m 0
 705 841 740 877 779 877 c 0
 811 877 832 854 832 825 c 0
 832 789 798 753 758 753 c 0
 727 753 705 776 705 805 c 0
EndSplineSet
Refer: 74 65 S 1 0 0 1 0 -0 3
EndChar

StartChar: AE
Encoding: 198 198 207
Width: 1092
Flags: HW
TeX: 694 0
ItalicCorrection: 116
HStem: -0 75<84.2368 175.202 266 305.23 456.659 520 615 939.514> 297 75<461 575 689 856.047> 619 75<625 656 750 1046>
VStem: 1046 94<492.046 615.625>
DStem2: 176 77 266 76 0.551506 0.834171<48.8013 313.121 403.26 658.953> 501.245 -0 596.245 -0 0.242599 0.970127<100.356 306.021 406.436 638.052>
AnchorPoint: "below" 549 0 basechar 0
AnchorPoint: "above" 725 706 basechar 0
LayerCount: 2
Fore
SplineSet
77 21 m 1
 77 21 81 61 95 71 c 0
 103 76 114 75 123 75 c 0
 140 75 159 76 176 77 c 1
 534 620 l 1
 524 627 521 633 521 641 c 0
 521 649 524 658 526 667 c 0
 532 692 542 694 559 694 c 2
 1110 694 l 2
 1128 694 1140 691 1140 671 c 0
 1140 665 1125 552 1118 492 c 0
 1114 464 1103 463 1085 463 c 0
 1079 463 1073 463 1067 463 c 0
 1044 463 1037 471 1037 489 c 0
 1037 510 1046 545 1046 595 c 2
 1046 613 l 1
 1021 617 981 619 916 619 c 2
 750 619 l 1
 689 372 l 1
 760 372 l 2
 804 372 862 372 871 376 c 0
 890 385 891 447 907 460 c 0
 913 465 919 465 926 465 c 2
 948 465 l 2
 964 465 978 464 978 444 c 0
 978 437 927 223 920 213 c 0
 914 204 903 203 896 203 c 2
 873 203 l 2
 851 203 844 211 844 224 c 0
 844 240 854 265 857 294 c 1
 819 296 781 297 743 297 c 2
 670 297 l 1
 669 296 l 1
 615 75 l 1
 771 75 l 2
 931 75 930 81 941 99 c 0
 959 129 986 192 1004 234 c 0
 1011 251 1017 256 1036 256 c 2
 1055 256 l 2
 1056 256 1057 257 1058 257 c 0
 1075 257 1087 252 1087 237 c 0
 1087 228 1088 232 999 22 c 0
 991 4 984 0 966 -0 c 2
 477 -0 l 2
 467 0 449 1 449 21 c 1
 449 21 454 62 468 71 c 0
 474 75 482 75 489 75 c 2
 520 75 l 1
 575 297 l 1
 411 297 l 1
 266 76 l 1
 289 75 312 77 312 54 c 0
 312 46 309 37 307 28 c 0
 302 5 294 1 277 -0 c 1
 105 -0 l 2
 92 0 77 3 77 21 c 1
461 372 m 1
 594 372 l 1
 656 619 l 1
 625 619 l 1
 461 372 l 1
EndSplineSet
EndChar

StartChar: Ccedilla
Encoding: 199 199 208
Width: 892
Flags: HW
TeX: 694 170
ItalicCorrection: 141
HStem: -200 76<302.884 492.985> 435 271<649 856 884 950> 630 76<525.687 753.456>
VStem: 168 96<168.652 380.43> 769 84<180.252 246.376>
AnchorPoint: "above" 649 706 basechar 0
LayerCount: 2
Fore
SplineSet
168 252 m 0
 168 466 347 706 649 706 c 0
 775 706 837 645 860 618 c 1
 861 618 l 1
 934 704 931 706 950 706 c 0
 963 706 968 700 968 691 c 0
 968 686 911 457 910 454 c 0
 905 436 897 435 884 435 c 2xd8
 856 435 l 2xd8
 834 435 824 435 824 452 c 0
 824 459 825 466 825 473 c 0
 825 556 773 630 666 630 c 0xb8
 379 630 264 418 264 262 c 0
 264 104 401 64 517 64 c 0
 643 64 739 139 769 222 c 0
 777 246 773 247 815 247 c 2
 826 247 l 2
 842 247 853 246 853 233 c 0
 853 201 789 52 585 2 c 1
 551 -6 l 1
 589 -28 596 -56 596 -75 c 0
 596 -118 567 -165 493 -185 c 0
 443 -199 378 -200 336 -200 c 2
 329 -200 l 2
 316 -200 295 -199 295 -180 c 0
 295 -175 297 -167 301 -151 c 0
 307 -126 317 -124 334 -124 c 2
 338 -124 l 2
 446 -124 502 -113 507 -85 c 1
 509 -65 474 -62 458 -61 c 0
 446 -60 426 -61 426 -39 c 0
 426 -33 427 -29 432 -9 c 1
 283 2 168 88 168 252 c 0
EndSplineSet
EndChar

StartChar: Egrave
Encoding: 200 200 209
Width: 794
Flags: HW
TeX: 889 0
ItalicCorrection: 116
HStem: 0 75<117.169 200 296 641.525> 321 76<376 517.19> 617 75<274.285 336 432 745.762>
VStem: 537 102<400.986 471.561> 747 94<486.994 612.861>
DStem2: 181.245 0 277.245 0 0.242599 0.970127<100.599 354.291 432.388 636.112>
AnchorPoint: "below" 417 0 basechar 0
AnchorPoint: "above" 642 902 basechar 0
LayerCount: 2
Fore
SplineSet
501 859 m 0
 501 882 522 908 549 908 c 2
 552 908 l 2
 561 908 566 906 704 849 c 0
 712 846 728 840 728 826 c 0
 728 819 727 818 712 793 c 0
 707 785 700 768 684 768 c 0
 679 768 676 769 534 821 c 0
 516 828 501 837 501 859 c 0
EndSplineSet
Refer: 78 69 S 1 0 0 1 -0 0 3
AlternateSubs2: "Stilistic set 01 subtable" Egrave.vn
AlternateSubs2: "Latin alternatives subtable" Egrave.vn
Substitution2: "Latin Vietnamese substitutions subtable" Egrave.vn
EndChar

StartChar: Eacute
Encoding: 201 201 210
Width: 794
Flags: HW
TeX: 889 0
ItalicCorrection: 116
HStem: 0 75<117.169 200 296 641.525> 321 76<376 517.19> 617 75<274.285 336 432 745.762>
VStem: 537 102<400.986 471.561> 747 94<486.994 612.861>
DStem2: 181.245 0 277.245 0 0.242599 0.970127<100.599 354.291 432.388 636.112>
AnchorPoint: "below" 417 0 basechar 0
AnchorPoint: "above" 642 902 basechar 0
LayerCount: 2
Fore
SplineSet
533 821 m 0
 533 843 550 846 566 851 c 0
 731 907 731 908 743 908 c 0
 766 908 780 890 780 871 c 0
 780 851 768 832 734 821 c 0
 576 772 566 768 558 768 c 0
 546 768 533 773 533 821 c 0
EndSplineSet
Refer: 78 69 S 1 0 0 1 0 0 3
AlternateSubs2: "Stilistic set 01 subtable" Eacute.vn
AlternateSubs2: "Latin alternatives subtable" Eacute.vn
Substitution2: "Latin Vietnamese substitutions subtable" Eacute.vn
EndChar

StartChar: Ecircumflex
Encoding: 202 202 211
Width: 794
Flags: HW
TeX: 994 0
ItalicCorrection: 116
HStem: 0 75<117.169 200 296 641.525> 321 76<376 517.19> 617 75<274.285 336 432 745.762>
VStem: 537 102<400.986 471.561> 747 94<486.994 612.861>
DStem2: 181.245 0 277.245 0 0.242599 0.970127<100.599 354.291 432.388 636.112>
AnchorPoint: "below" 417 0 basechar 0
AnchorPoint: "above" 665 993 basechar 0
LayerCount: 2
Fore
SplineSet
423 800 m 0
 423 810 431 817 440 825 c 0
 634 996 634 999 646 999 c 0
 661 999 670 978 684 956 c 0
 775 813 778 810 778 800 c 0
 778 781 730 755 721 755 c 0
 705 755 702 767 668 832 c 0
 655 856 642 879 630 903 c 1
 615 890 573 849 487 766 c 0
 482 761 475 755 467 755 c 0
 452 755 423 787 423 800 c 0
EndSplineSet
Refer: 78 69 S 1 0 0 1 0 0 3
AlternateSubs2: "Stilistic set 01 subtable" Ecircumflex.vn
AlternateSubs2: "Latin alternatives subtable" Ecircumflex.vn
Substitution2: "Latin Vietnamese substitutions subtable" Ecircumflex.vn
EndChar

StartChar: Edieresis
Encoding: 203 203 212
Width: 794
Flags: HW
TeX: 994 0
ItalicCorrection: 116
HStem: 0 75<117.169 200 296 641.525> 321 76<376 517.19> 617 75<274.285 336 432 745.762> 753 124<452.486 532.514 676.19 756.197>
VStem: 429 127<777.302 853.221> 537 102<400.986 471.561> 652 127<776.25 853.25> 747 94<486.994 612.861>
DStem2: 181.245 0 277.245 0 0.242599 0.970127<100.599 354.291 432.388 636.112>
AnchorPoint: "below" 417 0 basechar 0
AnchorPoint: "above" 635 872 basechar 0
LayerCount: 2
Fore
SplineSet
429 805 m 0
 429 841 463 877 503 877 c 0
 532 877 556 857 556 826 c 0xf8
 556 790 522 753 482 753 c 0
 453 753 429 774 429 805 c 0
652 805 m 0
 652 841 688 878 727 878 c 0
 756 878 779 856 779 825 c 0
 779 791 747 753 705 753 c 0xf2
 674 753 652 776 652 805 c 0
EndSplineSet
Refer: 78 69 S 1 0 0 1 0 0 3
EndChar

StartChar: Igrave
Encoding: 204 204 213
Width: 461
Flags: HW
TeX: 889 0
ItalicCorrection: 157
HStem: 0 75<114.237 201 297 365.235> 619 75<268.765 337 433 519.763>
DStem2: 182.245 0 278.245 0 0.242599 0.970127<100.599 638.052>
AnchorPoint: "below" 230 0 basechar 0
AnchorPoint: "above" 456 900 basechar 0
LayerCount: 2
Fore
SplineSet
315 859 m 0
 315 882 336 908 363 908 c 2
 366 908 l 2
 375 908 379 906 517 849 c 0
 526 845 541 840 541 826 c 0
 541 815 516 768 498 768 c 0
 493 768 490 769 348 821 c 0
 331 828 315 837 315 859 c 0
EndSplineSet
Refer: 82 73 S 1 0 0 1 0 0 3
AlternateSubs2: "Stilistic set 01 subtable" Igrave.vn
AlternateSubs2: "Latin alternatives subtable" Igrave.vn
Substitution2: "Latin Vietnamese substitutions subtable" Igrave.vn
EndChar

StartChar: Iacute
Encoding: 205 205 214
Width: 461
Flags: HW
TeX: 889 0
ItalicCorrection: 157
HStem: 0 75<114.237 201 297 365.235> 619 75<268.765 337 433 519.763>
DStem2: 182.245 0 278.245 0 0.242599 0.970127<100.599 638.052>
AnchorPoint: "below" 230 0 basechar 0
AnchorPoint: "above" 456 900 basechar 0
LayerCount: 2
Fore
SplineSet
324 821 m 0
 324 843 342 846 358 851 c 0
 523 907 522 908 534 908 c 0
 557 908 571 890 571 871 c 0
 571 838 541 826 525 821 c 0
 367 772 356 768 348 768 c 0
 336 768 324 773 324 821 c 0
EndSplineSet
Refer: 82 73 S 1 0 0 1 -0 0 3
AlternateSubs2: "Stilistic set 01 subtable" Iacute.vn
AlternateSubs2: "Latin alternatives subtable" Iacute.vn
Substitution2: "Latin Vietnamese substitutions subtable" Iacute.vn
EndChar

StartChar: Icircumflex
Encoding: 206 206 215
Width: 461
Flags: HW
TeX: 994 0
ItalicCorrection: 157
HStem: -0 75<114.237 201 297 365.235> 619 75<268.765 337 433 519.763>
DStem2: 182.245 -0 278.245 -0 0.242599 0.970127<100.599 638.052>
AnchorPoint: "below" 230 0 basechar 0
AnchorPoint: "above" 478 991 basechar 0
LayerCount: 2
Fore
SplineSet
253 800 m 0
 253 810 261 817 270 825 c 0
 464 996 464 999 476 999 c 0
 491 999 500 978 514 956 c 0
 605 813 609 810 609 800 c 0
 609 782 561 755 551 755 c 0
 535 755 533 768 498 832 c 0
 485 856 472 879 460 903 c 1
 445 890 403 848 317 766 c 0
 312 761 305 755 297 755 c 0
 282 755 253 787 253 800 c 0
EndSplineSet
Refer: 82 73 S 1 0 0 1 0 -0 3
EndChar

StartChar: Idieresis
Encoding: 207 207 216
Width: 461
Flags: HW
TeX: 994 0
ItalicCorrection: 157
HStem: -0 75<114.237 201 297 365.235> 619 75<268.765 337 433 519.763> 753 124<282.28 362.074 505.417 585.72>
VStem: 259 127<776.848 852.835> 482 127<776.779 852.835>
DStem2: 182.245 -0 278.245 -0 0.242599 0.970127<100.599 638.052>
AnchorPoint: "below" 230 0 basechar 0
AnchorPoint: "above" 448 869 basechar 0
LayerCount: 2
Fore
SplineSet
259 805 m 0
 259 840 293 877 333 877 c 0
 361 877 386 858 386 826 c 0
 386 785 347 753 312 753 c 0
 280 753 259 776 259 805 c 0
EndSplineSet
Refer: 20 729 S 1 0 0 1 182 183 2
Refer: 82 73 S 1 0 0 1 0 -0 3
EndChar

StartChar: Eth
Encoding: 208 208 217
Width: 932
Flags: HW
TeX: 694 0
ItalicCorrection: 89
HStem: -0 75<121.286 201 295 614.699> 303 76<194.691 258 370 583.634> 619 75<272.68 337 430 740.848>
VStem: 841 94<319.723 528.817>
DStem2: 182.245 -0 276.245 -0 0.242599 0.970127<100.114 312.327 413.227 638.052>
LayerCount: 2
Fore
SplineSet
111 21 m 0
 111 29 119 57 121 61 c 0
 127 74 139 75 151 75 c 2
 201 75 l 1
 258 303 l 1
 216 303 l 2
 204 303 187 305 187 323 c 0
 187 329 189 336 192 348 c 0
 199 378 207 379 226 379 c 0
 243 379 260 379 277 379 c 1
 337 619 l 1
 295 619 l 2
 273 619 266 628 266 640 c 0
 266 648 269 658 271 667 c 0
 277 692 284 695 311 695 c 0
 317 695 324 694 330 694 c 2
 635 694 l 2
 639 694 646 695 654 695 c 0
 859 695 935 577 935 445 c 0
 935 275 818 45 557 5 c 0
 528 0 496 0 464 -0 c 2
 139 -0 l 2
 126 0 111 2 111 21 c 0
295 75 m 1
 467 75 l 2
 535 75 764 77 830 345 c 0
 836 371 841 402 841 433 c 0
 841 459 841 535 770 582 c 0
 722 614 664 619 605 619 c 2
 430 619 l 1
 370 379 l 1
 567 379 l 1
 586 378 591 370 591 359 c 0
 591 351 588 342 586 333 c 0
 581 315 580 303 555 303 c 2
 351 303 l 1
 295 75 l 1
EndSplineSet
EndChar

StartChar: Ntilde
Encoding: 209 209 218
Width: 950
Flags: HW
TeX: 994 0
ItalicCorrection: 130
HStem: 0 75<120.237 204 284 348.158> 619 75<274.864 339 774.088 838 914.288 1002.51> 837 93<727.475 838.852> 901 93<568.102 678.962>
DStem2: 184.745 0 264.995 0 0.242599 0.970127<97.8089 603.981> 461 666 407 567 0.453071 -0.891474<63.7901 575.578> 683.739 0 764.248 0 0.242599 0.970127<157.711 636.962>
LayerCount: 2
Fore
SplineSet
471 875 m 0
 471 886 481 897 516 935 c 1
 545 965 581 994 625 994 c 0xd0
 691 994 734 930 786 930 c 0xe0
 839 930 871 993 892 993 c 0
 901 993 936 973 936 956 c 0
 936 945 926 934 892 897 c 0
 863 866 825 837 781 837 c 0xe0
 715 837 673 901 621 901 c 0
 568 901 536 838 515 838 c 0
 503 838 471 860 471 875 c 0
EndSplineSet
Refer: 87 78 S 1 0 0 1 -0 0 3
EndChar

StartChar: Ograve
Encoding: 210 210 219
Width: 914
Flags: HW
TeX: 889 0
ItalicCorrection: 89
HStem: -11 83<368.488 594.173> 625 81<488.527 724.524> 768 81<708.291 765.803>
VStem: 166 100<166.605 368.568> 825 93<325.665 533.441>
AnchorPoint: "below" 456 0 basechar 0
AnchorPoint: "above" 679 888 basechar 0
LayerCount: 2
Fore
SplineSet
556 859 m 0
 556 883 578 908 605 908 c 2
 607 908 l 2
 616 908 621 906 759 849 c 0
 768 845 783 840 783 826 c 0
 783 815 758 768 740 768 c 2
 739 768 l 2
 734 768 731 769 589 821 c 0
 572 828 556 837 556 859 c 0
EndSplineSet
Refer: 88 79 S 1 0 0 1 -0 -0 3
AlternateSubs2: "Stilistic set 01 subtable" Ograve.vn
AlternateSubs2: "Latin alternatives subtable" Ograve.vn
Substitution2: "Latin Vietnamese substitutions subtable" Ograve.vn
EndChar

StartChar: Oacute
Encoding: 211 211 220
Width: 914
Flags: HW
TeX: 889 0
ItalicCorrection: 89
HStem: -11 83<368.488 594.173> 625 81<488.527 724.524>
VStem: 166 100<166.605 368.568> 825 93<325.665 533.441>
AnchorPoint: "below" 456 0 basechar 0
AnchorPoint: "above" 679 888 basechar 0
LayerCount: 2
Fore
SplineSet
541 821 m 0
 541 843 559 846 575 851 c 0
 740 907 739 908 751 908 c 0
 774 908 788 890 788 871 c 0
 788 824 741 821 586 773 c 0
 579 771 572 768 565 768 c 0
 553 768 541 773 541 821 c 0
EndSplineSet
Refer: 88 79 S 1 0 0 1 0 0 3
AlternateSubs2: "Stilistic set 01 subtable" Oacute.vn
AlternateSubs2: "Latin alternatives subtable" Oacute.vn
Substitution2: "Latin Vietnamese substitutions subtable" Oacute.vn
EndChar

StartChar: Ocircumflex
Encoding: 212 212 221
Width: 914
Flags: HW
TeX: 994 0
ItalicCorrection: 89
HStem: -11 83<368.488 594.173> 625 81<488.527 724.524>
VStem: 166 100<166.605 368.568> 825 93<325.665 533.441>
AnchorPoint: "below" 456 0 basechar 0
AnchorPoint: "above" 701 979 basechar 0
LayerCount: 2
Fore
SplineSet
478 800 m 0
 478 810 487 817 496 825 c 0
 690 996 689 999 701 999 c 0
 716 999 726 978 740 956 c 0
 831 813 834 810 834 800 c 0
 834 782 787 755 777 755 c 0
 761 755 759 768 724 832 c 0
 711 856 698 879 686 903 c 1
 671 890 629 849 543 766 c 0
 538 761 530 755 522 755 c 0
 507 755 478 787 478 800 c 0
EndSplineSet
Refer: 88 79 S 1 0 0 1 0 -0 3
AlternateSubs2: "Stilistic set 01 subtable" Ocircumflex.vn
AlternateSubs2: "Latin alternatives subtable" Ocircumflex.vn
Substitution2: "Latin Vietnamese substitutions subtable" Ocircumflex.vn
EndChar

StartChar: Otilde
Encoding: 213 213 222
Width: 914
Flags: HW
TeX: 994 0
ItalicCorrection: 89
HStem: -11 83<368.488 594.173> 625 81<488.527 724.524> 837 93<709.086 819.907> 901 93<549.715 660.224>
VStem: 166 100<166.605 368.568> 825 93<325.665 533.441>
AnchorPoint: "below" 456 0 basechar 0
AnchorPoint: "above" 700 974 basechar 0
LayerCount: 2
Fore
SplineSet
453 875 m 0
 453 886 463 897 498 935 c 1
 527 965 562 994 606 994 c 0xdc
 672 994 716 930 767 930 c 0xec
 819 930 852 993 873 993 c 0
 882 993 917 973 917 956 c 0
 917 945 907 934 873 897 c 0
 844 866 807 837 763 837 c 0xec
 697 837 654 901 602 901 c 0
 550 901 518 838 497 838 c 0
 485 838 453 860 453 875 c 0
EndSplineSet
Refer: 88 79 S 1 0 0 1 0 0 3
AlternateSubs2: "Stilistic set 01 subtable" Otilde.vn
AlternateSubs2: "Latin alternatives subtable" Otilde.vn
Substitution2: "Latin Vietnamese substitutions subtable" Otilde.vn
EndChar

StartChar: Odieresis
Encoding: 214 214 223
Width: 914
Flags: HW
TeX: 994 0
ItalicCorrection: 89
HStem: -11 83<368.488 594.173> 625 81<488.527 724.524> 753 124<508.28 588.774 731.417 811.72>
VStem: 166 100<166.605 368.568> 485 127<776.099 853.221> 708 127<776.779 852.835> 825 93<325.665 533.441>
AnchorPoint: "below" 456 0 basechar 0
AnchorPoint: "above" 671 857 basechar 0
LayerCount: 2
Fore
SplineSet
485 805 m 0
 485 841 519 877 559 877 c 0
 591 877 612 854 612 825 c 0
 612 784 572 753 537 753 c 0xf8
 508 753 485 774 485 805 c 0
EndSplineSet
Refer: 20 729 S 1 0 0 1 408 183 2
Refer: 88 79 S 1 0 0 1 0 0 3
EndChar

StartChar: OE
Encoding: 338 338 224
Width: 1219
Flags: HW
TeX: 694 0
ItalicCorrection: 116
HStem: -11 75<388.402 602.324> 0 75<725 1067.22> 323 75<805 1004.45> 619 75<860 1172.98> 630 76<511.356 816.653>
VStem: 175 98<171.394 375.132> 994 81<229.543 317.532> 1164 103<485.817 590.024> 1173 94<487.094 642.164>
DStem2: 609.483 -11 703.494 -11 0.242599 0.970127<112.574 365.875 444.214 591.419>
AnchorPoint: "above" 835 706 basechar 0
LayerCount: 2
Fore
SplineSet
175 246 m 0
 175 450 349 706 660 706 c 0xae80
 727 706 758 694 858 694 c 2
 1238 694 l 2
 1251 694 1267 692 1267 671 c 0x3680
 1267 664 1253 551 1246 491 c 0
 1243 471 1238 463 1214 463 c 2
 1196 463 l 2
 1178 463 1164 464 1164 488 c 0x37
 1164 498 1173 550 1173 592 c 0
 1173 599 1173 606 1172 613 c 1
 1145 617 1103 619 1033 619 c 2
 860 619 l 1x3680
 805 398 l 1
 918 398 l 2
 959 398 1011 399 1020 402 c 0
 1040 410 1041 473 1057 486 c 0
 1063 490 1069 491 1076 491 c 2
 1098 491 l 2
 1113 491 1128 489 1128 470 c 0
 1128 460 1128 469 1075 255 c 0
 1069 231 1060 229 1043 229 c 0
 1035 229 1027 229 1019 229 c 0
 999 230 994 237 994 250 c 0
 994 266 1003 290 1006 320 c 1
 973 323 941 323 908 323 c 2
 786 323 l 1
 786 322 l 1
 725 75 l 1
 859 75 l 2
 1067 75 1057 79 1070 102 c 0
 1138 220 1120 257 1165 257 c 2
 1183 257 l 2
 1196 257 1214 256 1214 237 c 0
 1214 230 1210 222 1208 217 c 0
 1117 2 1123 9 1112 3 c 0
 1104 -1 1094 0 1085 0 c 2
 657 0 l 2x7680
 598 0 541 -11 480 -11 c 0
 311 -11 175 68 175 246 c 0
273 272 m 0
 273 137 361 64 506 64 c 0
 616 64 636 97 670 231 c 2
 734 485 l 2
 736 493 746 534 746 566 c 0
 746 614 723 630 648 630 c 0xae
 397 630 273 442 273 272 c 0
EndSplineSet
EndChar

StartChar: Oslash
Encoding: 216 216 225
Width: 956
Flags: HW
TeX: 743 48
ItalicCorrection: 89
HStem: -11 75<374.645 625.725> 630 76<503.608 752.355>
VStem: 167 91<157.025 372.68> 868 91<317.161 534.132>
DStem2: 247 58 314 17 0.674965 0.73785<-120.183 0 102.754 750.976 853.055 975.484>
LayerCount: 2
Fore
SplineSet
167 246 m 0
 167 443 331 706 655 706 c 0
 709 706 763 697 813 676 c 1
 828 694 883 754 891 762 c 0
 897 768 903 773 911 773 c 0
 923 773 958 746 958 731 c 0
 958 720 956 719 879 636 c 1
 879 635 l 1
 925 595 959 535 959 444 c 0
 959 239 794 -11 472 -11 c 0
 418 -11 364 -4 314 17 c 1
 236 -69 230 -78 217 -78 c 0
 206 -78 169 -54 169 -37 c 0
 169 -21 202 5 247 58 c 1
 191 105 167 171 167 246 c 0
258 253 m 0
 258 196 275 151 307 122 c 1
 754 612 l 1
 709 627 671 630 636 630 c 0
 318 630 258 346 258 253 c 0
373 82 m 1
 418 67 455 64 491 64 c 0
 793 64 868 313 868 436 c 0
 868 504 848 540 820 571 c 1
 373 82 l 1
EndSplineSet
EndChar

StartChar: Ugrave
Encoding: 217 217 226
Width: 929
Flags: HW
TeX: 889 0
ItalicCorrection: 130
HStem: -11 75<378.387 591.341> 619 75<271.765 336 426.839 514.763 750.088 814 894 982.763> 768 81<715.344 773.803>
VStem: 233 95<108.662 287.016>
DStem2: 178.231 -11 274.732 -11 0.242599 0.970127<218.929 649.454> 657.231 -11 741.982 -11 0.242599 0.970127<158.318 648.242>
AnchorPoint: "below" 471 0 basechar 0
AnchorPoint: "above" 688 900 basechar 0
LayerCount: 2
Fore
SplineSet
564 859 m 0
 564 883 585 908 612 908 c 2
 615 908 l 2
 624 908 628 906 766 849 c 0
 775 845 791 840 791 826 c 0
 791 815 766 768 748 768 c 2
 747 768 l 2
 742 768 739 769 597 821 c 0
 580 828 564 837 564 859 c 0
EndSplineSet
Refer: 94 85 S 1 0 0 1 -0 -0 3
AlternateSubs2: "Stilistic set 01 subtable" Ugrave.vn
AlternateSubs2: "Latin alternatives subtable" Ugrave.vn
Substitution2: "Latin Vietnamese substitutions subtable" Ugrave.vn
EndChar

StartChar: Uacute
Encoding: 218 218 227
Width: 929
Flags: HW
TeX: 889 0
ItalicCorrection: 130
HStem: -11 75<378.387 591.341> 619 75<271.765 336 426.839 514.763 750.088 814 894 982.763>
VStem: 233 95<108.662 287.016>
DStem2: 178.231 -11 274.732 -11 0.242599 0.970127<218.929 649.454> 657.231 -11 741.982 -11 0.242599 0.970127<158.318 648.242>
AnchorPoint: "below" 471 0 basechar 0
AnchorPoint: "above" 688 900 basechar 0
LayerCount: 2
Fore
SplineSet
596 821 m 0
 596 843 614 846 630 851 c 0
 795 907 794 908 806 908 c 0
 829 908 843 890 843 871 c 0
 843 824 796 821 641 773 c 0
 634 771 627 768 620 768 c 0
 608 768 596 773 596 821 c 0
EndSplineSet
Refer: 94 85 S 1 0 0 1 0 0 3
AlternateSubs2: "Stilistic set 01 subtable" Uacute.vn
AlternateSubs2: "Latin alternatives subtable" Uacute.vn
Substitution2: "Latin Vietnamese substitutions subtable" Uacute.vn
EndChar

StartChar: Ucircumflex
Encoding: 219 219 228
Width: 929
Flags: HW
TeX: 994 0
ItalicCorrection: 130
HStem: -11 75<378.387 591.341> 619 75<271.765 336 426.839 514.763 750.088 814 894 982.763>
VStem: 233 95<108.662 287.016>
DStem2: 178.231 -11 274.732 -11 0.242599 0.970127<218.929 649.454> 657.231 -11 741.982 -11 0.242599 0.970127<158.318 648.242>
AnchorPoint: "below" 471 0 basechar 0
AnchorPoint: "above" 710 991 basechar 0
LayerCount: 2
Fore
SplineSet
488 800 m 0
 488 810 496 817 505 825 c 0
 699 996 699 999 711 999 c 0
 726 999 736 978 750 956 c 0
 841 812 844 810 844 800 c 0
 844 782 796 755 787 755 c 0
 771 755 768 768 733 832 c 0
 720 856 707 879 695 903 c 1
 680 890 638 848 552 766 c 0
 547 761 540 755 532 755 c 0
 517 755 488 787 488 800 c 0
EndSplineSet
Refer: 94 85 S 1 0 0 1 0 -0 3
EndChar

StartChar: Udieresis
Encoding: 220 220 229
Width: 929
Flags: HW
TeX: 994 0
ItalicCorrection: 130
HStem: -11 75<378.387 591.341> 619 75<271.765 336 426.839 514.763 750.088 814 894 982.763> 753 124<515.667 595.72 738.669 818.72>
VStem: 233 95<108.662 287.016> 492 127<776.779 853.152> 715 127<776.779 853.152>
DStem2: 178.231 -11 274.732 -11 0.242599 0.970127<218.929 649.454> 657.231 -11 741.982 -11 0.242599 0.970127<158.318 648.242>
AnchorPoint: "below" 471 0 basechar 0
AnchorPoint: "above" 680 869 basechar 0
LayerCount: 2
Fore
SplineSet
492 805 m 0
 492 841 527 877 566 877 c 0
 598 877 619 854 619 825 c 0
 619 789 585 753 545 753 c 0
 516 753 492 774 492 805 c 0
715 805 m 0
 715 841 750 877 789 877 c 0
 821 877 842 854 842 825 c 0
 842 789 808 753 768 753 c 0
 737 753 715 776 715 805 c 0
EndSplineSet
Refer: 94 85 S 1 0 0 1 0 -0 3
EndChar

StartChar: Yacute
Encoding: 221 221 230
Width: 908
Flags: HW
TeX: 889 0
ItalicCorrection: 202
HStem: 0 75<342.237 426 518 583.235> 619 75<221.286 303 418 453.622 892.006 1015.02>
DStem2: 418 619 303 619 0.454513 -0.89074<0 287.116> 548 363 583 292 0.710548 0.703649<0 364.166>
AnchorPoint: "below" 453 0 basechar 0
AnchorPoint: "above" 678 900 basechar 0
LayerCount: 2
Fore
SplineSet
586 821 m 0
 586 843 603 846 619 851 c 0
 784 907 784 908 796 908 c 0
 819 908 833 890 833 871 c 0
 833 838 803 826 787 821 c 0
 629 772 618 768 610 768 c 0
 598 768 586 773 586 821 c 0
EndSplineSet
Refer: 98 89 S 1 0 0 1 -0 0 3
AlternateSubs2: "Stilistic set 01 subtable" Yacute.vn
AlternateSubs2: "Latin alternatives subtable" Yacute.vn
Substitution2: "Latin Vietnamese substitutions subtable" Yacute.vn
EndChar

StartChar: Thorn
Encoding: 222 222 231
Width: 772
Flags: HW
TeX: 694 0
ItalicCorrection: 98
HStem: -0 75<120.237 203 294 358.235> 180 76<339 583.195> 504 75<419 640.911> 619 75<274.869 339 429 512.752>
VStem: 683 94<341.073 466.104>
DStem2: 184.245 -0 275.245 -0 0.242599 0.970127<99.386 207.557 285.896 541.528 618.655 638.052>
LayerCount: 2
Fore
SplineSet
113 21 m 1
 113 21 117 61 131 71 c 0
 138 76 148 75 156 75 c 2
 203 75 l 1
 339 619 l 1
 299 619 l 2
 286 619 268 619 268 640 c 1
 268 640 272 683 287 691 c 0
 292 694 299 694 305 694 c 2
 492 694 l 2
 500 694 520 694 520 673 c 1
 520 673 516 633 502 623 c 0
 495 618 484 619 476 619 c 2
 429 619 l 1
 419 579 l 1
 584 579 l 2
 667 579 777 549 777 429 c 0
 777 330 697 201 522 183 c 0
 503 181 484 180 465 180 c 2
 320 180 l 1
 294 75 l 1
 333 75 l 2
 346 75 365 75 365 54 c 1
 365 54 361 11 346 3 c 0
 340 0 333 0 327 -0 c 2
 142 -0 l 2
 126 0 113 4 113 21 c 1
339 256 m 1
 455 256 l 2
 505 256 569 260 621 298 c 0
 647 317 683 356 683 408 c 0
 683 447 664 504 538 504 c 2
 401 504 l 1
 339 256 l 1
EndSplineSet
EndChar

